<svg width="8" height="13" xmlns="http://www.w3.org/2000/svg"><g id="Desktop" stroke="none" stroke-width="1" fill="none" fill-rule="evenodd"><g id="03.2-Gloves-Product-Interior" transform="translate(-1244 -308)" fill="#102257" fill-rule="nonzero"><path d="M1246.812 311.875a.563.563 0 00.563-.562v-2.25a.562.562 0 00-.563-.563h-2.25a.562.562 0 00-.562.563v2.25c0 .31.252.562.563.562h2.25zm4.125 0a.563.563 0 00.563-.562v-2.25a.562.562 0 00-.563-.563h-2.25a.562.562 0 00-.562.563v2.25c0 .31.252.562.562.562h2.25zm-4.687-1.125h-1.125v-1.125h1.125v1.125zm4.125 0h-1.125v-1.125h1.125v1.125zm-3.563 5.438a.563.563 0 00.563-.563v-2.25a.562.562 0 00-.563-.562h-2.25a.562.562 0 00-.562.562v2.25c0 .31.252.563.563.563h2.25zm4.125 0a.563.563 0 00.563-.563v-2.25a.562.562 0 00-.563-.562h-2.25a.562.562 0 00-.562.562v2.25c0 .31.252.563.562.563h2.25zm-4.687-1.125h-1.125v-1.125h1.125v1.125zm4.125 0h-1.125v-1.125h1.125v1.125zm-3.563 5.437a.563.563 0 00.563-.563v-2.25a.562.562 0 00-.563-.562h-2.25a.562.562 0 00-.562.563v2.25c0 .31.252.562.563.562h2.25zm4.125 0a.563.563 0 00.563-.563v-2.25a.562.562 0 00-.563-.562h-2.25a.562.562 0 00-.562.563v2.25c0 .31.252.562.562.562h2.25zm-4.687-1.125h-1.125v-1.125h1.125v1.125zm4.125 0h-1.125v-1.125h1.125v1.125z" id="grip-vertical"/></g></g></svg>