<svg width="14" height="15" xmlns="http://www.w3.org/2000/svg"><g id="Symbols" stroke="none" stroke-width="1" fill="none" fill-rule="evenodd"><g id="Blog-/-Exterior" transform="translate(-1 -304)" fill="#102257" fill-rule="nonzero"><g id="clock-2-Min-Read" transform="translate(1.219 304.969)"><path d="M6.781 13.562a6.78 6.78 0 006.781-6.78A6.78 6.78 0 006.782 0 6.78 6.78 0 000 6.781a6.78 6.78 0 006.781 6.781zm0-1.312a5.467 5.467 0 01-5.469-5.469 5.467 5.467 0 015.47-5.469 5.467 5.467 0 015.468 5.47 5.467 5.467 0 01-5.469 5.468zm2.15-2.926l.514-.708a.328.328 0 00-.072-.46L7.547 6.829V2.953a.33.33 0 00-.328-.328h-.875a.33.33 0 00-.328.328v4.49a.33.33 0 00.134.265l2.32 1.687a.33.33 0 00.46-.07z" id="clock"/></g></g></g></svg>