<svg width="14" height="15" xmlns="http://www.w3.org/2000/svg"><g id="Desktop" stroke="none" stroke-width="1" fill="none" fill-rule="evenodd"><g id="03.2-Gloves-Product-Interior" transform="translate(-941 -614)" fill="#102257" fill-rule="nonzero"><g id="􏄸-A-flexible,-robus" transform="translate(941.219 614.969)"><path d="M6.781 13.562a6.78 6.78 0 006.781-6.78A6.78 6.78 0 006.782 0 6.78 6.78 0 000 6.781a6.78 6.78 0 006.781 6.781zm-1.054-2.418a.75.75 0 01-.463-.193l-.465-.465a.75.75 0 01-.193-.463.75.75 0 01.193-.464l2.778-2.778-2.778-2.778a.75.75 0 01-.193-.463.75.75 0 01.193-.464l.465-.465a.75.75 0 01.463-.192.75.75 0 01.464.192l3.705 3.705a.754.754 0 01.193.465c0 .15-.087.359-.193.465L6.19 10.951a.75.75 0 01-.464.193z" id="􏄸"/></g></g></g></svg>