<svg width="11" height="13" xmlns="http://www.w3.org/2000/svg"><g id="Desktop" stroke="none" stroke-width="1" fill="none" fill-rule="evenodd"><g id="03.2-Gloves-Product-Interior" transform="translate(-960 -308)" fill="#102257" fill-rule="nonzero"><path d="M965.25 320.5c.88 0 1.666-.807 2.2-2.077.182.023.478.044.661.046 1.022 0 1.818-.319 2.183-.969.44-.784.155-1.89-.645-3 .8-1.111 1.084-2.216.645-3-.365-.65-1.161-.969-2.183-.969-.183.002-.48.023-.661.046-.534-1.27-1.32-2.077-2.2-2.077-.88 0-1.666.807-2.2 2.077a6.878 6.878 0 00-.661-.046c-1.022 0-1.818.319-2.183.969-.44.784-.155 1.889.645 3-.8 1.11-1.084 2.216-.645 3 .365.65 1.161.969 2.183.969.183-.002.48-.023.661-.046.534 1.27 1.32 2.077 2.2 2.077zm0-9.324a11.5 11.5 0 00-1.104-.38c.35-.746.767-1.171 1.104-1.171.337 0 .754.425 1.104 1.17a11.88 11.88 0 00-1.104.38zm-3.663 2.449c-.446-.68-.603-1.263-.435-1.562.14-.251.614-.407 1.237-.407.091 0 .195.021.29.028-.08.314-.181.831-.225 1.153-.252.203-.64.556-.867.788zm7.326 0a11.91 11.91 0 00-.867-.788 12.488 12.488 0 00-.225-1.153c.095-.007.199-.028.29-.028.623 0 1.097.156 1.237.407.168.299.011.882-.435 1.562zm-3.664 3.125a2.251 2.251 0 010-4.5 2.25 2.25 0 010 4.5zm0-1.5a.75.75 0 100-1.5.75.75 0 000 1.5zm-2.86 2.094c-.623 0-1.097-.156-1.237-.406-.168-.3-.011-.883.435-1.563.226.232.615.585.867.788.044.322.145.839.225 1.153-.095.007-.199.028-.29.028zm5.722 0c-.091 0-.195-.021-.29-.028.08-.314.181-.831.225-1.153.252-.203.64-.556.867-.788.446.68.603 1.263.435 1.563-.14.25-.614.406-1.237.406zm-2.861 2.031c-.337 0-.754-.425-1.104-1.17a11.88 11.88 0 001.104-.38 11.5 11.5 0 001.104.38c-.35.745-.767 1.17-1.104 1.17z" id="atom"/></g></g></svg>