<svg width="14" height="14" xmlns="http://www.w3.org/2000/svg"><g id="Symbols" stroke="none" stroke-width="1" fill="none" fill-rule="evenodd"><g id="Nav-/-Globus-v1" transform="translate(-1533 -35)" fill="#102257" fill-rule="nonzero"><path d="M1546.152 48.536l.573-.574a.305.305 0 000-.431l-3.082-3.083a.301.301 0 00-.216-.089h-.335a5.28 5.28 0 00-3.996-8.734 5.28 5.28 0 00-5.282 5.281 5.28 5.28 0 008.735 3.997v.335c0 .081.033.157.089.216l3.082 3.082c.12.12.312.12.432 0zm-7.056-3.567a4.061 4.061 0 01-4.063-4.063 4.061 4.061 0 014.063-4.062 4.061 4.061 0 014.062 4.062 4.061 4.061 0 01-4.062 4.063z" id=""/></g></g></svg>