<svg width="12" height="11" xmlns="http://www.w3.org/2000/svg"><g id="Symbols" stroke="none" stroke-width="1" fill="none" fill-rule="evenodd"><g id="Footer-/-Globus" transform="translate(-1261 -258)" fill="#FFF" fill-rule="nonzero"><g id="Group" transform="translate(1204 207)"><path d="M60.777 61.373c4.522 0 6.997-3.746 6.997-6.997 0-.107 0-.214-.008-.32.48-.35.899-.784 1.234-1.272a4.93 4.93 0 01-1.416.381 2.45 2.45 0 001.08-1.355 4.842 4.842 0 01-1.56.594 2.454 2.454 0 00-1.797-.777 2.458 2.458 0 00-2.46 2.46c0 .19.024.38.062.563a6.99 6.99 0 01-5.071-2.574 2.458 2.458 0 00.761 3.29 2.477 2.477 0 01-1.112-.313v.03a2.46 2.46 0 001.972 2.414 2.6 2.6 0 01-1.111.046 2.464 2.464 0 002.3 1.706 4.926 4.926 0 01-3.054 1.05 5.09 5.09 0 01-.594-.03 6.95 6.95 0 003.777 1.104z" id=""/></g></g></g></svg>