<svg width="14" height="12" xmlns="http://www.w3.org/2000/svg"><g id="Symbols" stroke="none" stroke-width="1" fill="none" fill-rule="evenodd"><g id="Blog-/-Exterior" transform="translate(-123 -306)" fill="#102257" fill-rule="nonzero"><g id="list-Category" transform="translate(123 306.063)"><path d="M2.187 2.625a.438.438 0 00.438-.438V.437A.438.438 0 002.187 0H.437A.438.438 0 000 .437v1.75c0 .242.196.438.437.438h1.75zm11.375-.438A.438.438 0 0014 1.75V.875a.438.438 0 00-.438-.438h-8.75a.438.438 0 00-.437.438v.875c0 .241.196.437.437.437h8.75zM2.187 7a.438.438 0 00.438-.438v-1.75a.438.438 0 00-.438-.437H.437A.438.438 0 000 4.812v1.75C0 6.804.196 7 .437 7h1.75zm11.375-.438A.438.438 0 0014 6.125V5.25a.438.438 0 00-.438-.438h-8.75a.438.438 0 00-.437.438v.875c0 .241.196.437.437.437h8.75zM2.187 11.375a.438.438 0 00.438-.438v-1.75a.438.438 0 00-.438-.437H.437A.438.438 0 000 9.187v1.75c0 .242.196.438.437.438h1.75zm11.375-.438A.438.438 0 0014 10.5v-.875a.438.438 0 00-.438-.438h-8.75a.438.438 0 00-.437.438v.875c0 .241.196.437.437.437h8.75z" id="list"/></g></g></g></svg>