<svg width="12" height="13" xmlns="http://www.w3.org/2000/svg"><g id="Desktop" stroke="none" stroke-width="1" fill="none" fill-rule="evenodd"><g id="03.2-Gloves-Product-Interior" transform="translate(-1105 -308)" fill="#102257" fill-rule="nonzero"><path d="M1111 320.312a5.812 5.812 0 100-11.624 5.812 5.812 0 000 11.624zm0-1.125a4.685 4.685 0 01-4.688-4.687 4.686 4.686 0 014.688-4.687 4.686 4.686 0 014.687 4.687 4.685 4.685 0 01-4.687 4.688zm.482-3.937a.28.28 0 00.281-.267l.16-3.188a.281.281 0 00-.281-.295h-1.284a.281.281 0 00-.28.295l.159 3.188a.28.28 0 00.28.267h.965zm-.482 2.484a.985.985 0 000-1.968.985.985 0 000 1.968z" id="exclamation-circle"/></g></g></svg>