<svg width="14" height="9" xmlns="http://www.w3.org/2000/svg"><g id="Symbols" stroke="none" stroke-width="1" fill="none" fill-rule="evenodd"><g id="Footer-/-Globus" transform="translate(-1350 -259)" fill="#FFF" fill-rule="nonzero"><g id="Group" transform="translate(1204 207)"><path d="M158 60.73a1.583 1.583 0 001.133-1.12c.232-.874.262-2.573.266-3.001v-.2c-.004-.428-.034-2.127-.266-3a1.608 1.608 0 00-1.132-1.14c-.87-.234-4.018-.264-4.816-.268h-.37c-.798.004-3.946.034-4.816.268-.55.148-.984.585-1.132 1.14-.232.873-.262 2.572-.266 3l-.001.088v.113c.005.428.035 2.127.267 3.001.148.554.581.973 1.132 1.12.87.235 4.018.266 4.816.27h.37c.798-.004 3.946-.035 4.816-.27zm-6.31-2.318v-3.806l3.346 1.903-3.345 1.903z" id="youtube"/></g></g></g></svg>