<svg width="14" height="14" xmlns="http://www.w3.org/2000/svg"><g id="Symbols" stroke="none" stroke-width="1" fill="none" fill-rule="evenodd"><g id="Nav-/-Globus" transform="translate(-559 -100)" fill="#FFF" fill-rule="nonzero"><path d="M561.198 113.625c6.404 0 11.616-5.185 11.616-11.616a.79.79 0 00-.614-.772l-2.56-.592a.796.796 0 00-.909.46l-1.18 2.755a.796.796 0 00.226.927l1.368 1.12a8.886 8.886 0 01-4.052 4.052l-1.12-1.369a.796.796 0 00-.926-.226l-2.753 1.18a.792.792 0 00-.46.907l.59 2.557a.793.793 0 00.774.617zm.015-.813l-.584-2.528 2.727-1.168 1.511 1.848c2.63-1.234 4.055-2.663 5.284-5.284l-1.849-1.51 1.168-2.727 2.53.584c-.006 5.954-4.833 10.778-10.787 10.785z" id="phone"/></g></g></svg>