<svg width="11" height="12" xmlns="http://www.w3.org/2000/svg"><g id="Desktop" stroke="none" stroke-width="1" fill="none" fill-rule="evenodd"><g id="01.2-Home-Search-Dropdown" transform="translate(-1548 -161)" fill="#102257" fill-rule="nonzero"><path d="M1550.373 172.212l3.127-3.127 3.127 3.127a.983.983 0 001.39 0l.695-.695a.983.983 0 000-1.39l-3.127-3.127 3.127-3.127a.983.983 0 000-1.39l-.695-.695a.983.983 0 00-1.39 0l-3.127 3.127-3.127-3.127a.983.983 0 00-1.39 0l-.695.695a.983.983 0 000 1.39l3.127 3.127-3.127 3.127a.983.983 0 000 1.39l.695.695a.983.983 0 001.39 0z" id="times"/></g></g></svg>