<svg width="9" height="10" xmlns="http://www.w3.org/2000/svg"><g id="Desktop" stroke="none" stroke-width="1" fill="none" fill-rule="evenodd"><g id="03.2-Gloves-Product-Interior" transform="translate(-298 -157)" fill="#5D5D5D" fill-rule="nonzero"><g id="Pagination-/-Narrow-Womens-Clothing-Copy" transform="translate(-1 124)"><path d="M303.56 42.538l4.121-4.122a.234.234 0 000-.332l-4.122-4.122a.234.234 0 00-.331 0l-.138.138a.234.234 0 000 .332l3.486 3.486h-7.342a.234.234 0 00-.234.234v.196c0 .13.105.234.234.234h7.342l-3.486 3.486a.234.234 0 000 .332l.138.138c.091.091.24.091.331 0z" id=""/></g></g></g></svg>