<svg width="11" height="11" xmlns="http://www.w3.org/2000/svg"><g id="Symbols" stroke="none" stroke-width="1" fill="none" fill-rule="evenodd"><g id="Footer-/-Globus" transform="translate(-1306 -258)" fill="#FFF" fill-rule="nonzero"><g id="Group" transform="translate(1204 207)"><path d="M109.668 61.713c.841-.04 1.587-.233 2.2-.849.615-.614.807-1.36.85-2.2.048-.868.048-3.465 0-4.332-.04-.841-.233-1.587-.85-2.2-.613-.615-1.359-.807-2.2-.85-.867-.048-3.466-.048-4.334 0-.839.04-1.584.233-2.2.847-.617.614-.807 1.36-.849 2.2a42.25 42.25 0 00-.036 1.843v.649c.003.752.015 1.463.036 1.842.04.842.232 1.587.849 2.201.616.614 1.359.806 2.2.849.868.049 3.467.049 4.334 0zm-2.166-.91c-.764 0-2.407.061-3.096-.21a1.772 1.772 0 01-.998-1c-.274-.69-.211-2.331-.211-3.095 0-.764-.061-2.407.21-3.096.184-.46.538-.814 1-.999.69-.274 2.331-.21 3.095-.21.764 0 2.407-.062 3.096.21.46.183.814.537.999.999.274.691.21 2.332.21 3.096 0 .764.064 2.407-.21 3.096a1.77 1.77 0 01-.999.998c-.691.274-2.332.211-3.096.211zm2.803-6.48a.628.628 0 100-1.256.628.628 0 000 1.256zm-2.803 4.868a2.689 2.689 0 002.693-2.693 2.689 2.689 0 00-2.693-2.693 2.689 2.689 0 00-2.693 2.693 2.689 2.689 0 002.693 2.693zm0-.943c-.963 0-1.75-.785-1.75-1.75 0-.966.785-1.751 1.75-1.751.966 0 1.751.785 1.751 1.75 0 .966-.787 1.751-1.75 1.751z" id=""/></g></g></g></svg>