<svg width="14" height="10" xmlns="http://www.w3.org/2000/svg"><g id="Symbols" stroke="none" stroke-width="1" fill="none" fill-rule="evenodd"><g id="Footer-/-Globus" transform="translate(-1071 -44)" fill="#102257" fill-rule="nonzero"><g id="Group-2" transform="translate(495 30)"><path d="M588.596 24c.673 0 1.218-.546 1.218-1.219V15.47c0-.673-.545-1.219-1.218-1.219h-10.563a1.22 1.22 0 00-1.219 1.219v7.312a1.22 1.22 0 001.219 1.219h10.563zm-5.282-3.656c-.589.01-1.436-.8-1.864-1.135-1.94-1.52-2.848-2.24-3.417-2.704v-1.036h10.563v1.036c-.57.463-1.477 1.184-3.418 2.704-.427.336-1.274 1.144-1.864 1.135zm5.282 2.437h-10.563V18.07c.582.463 1.407 1.113 2.664 2.098.555.437 1.527 1.401 2.617 1.395 1.085.006 2.044-.944 2.617-1.395a431.647 431.647 0 002.665-2.098v4.712z" id="envelope"/></g></g></g></svg>