<svg width="87" height="50" xmlns="http://www.w3.org/2000/svg"><g id="Symbols" stroke="none" stroke-width="1" fill="none" fill-rule="evenodd"><g id="Nav-/-Globus-v1" transform="translate(-39 -16)" fill="#20274F"><g id="Globus-Group-(Solid)" transform="translate(39.875 16)"><path d="M20.179 34c-2.451 0-3.478-1.029-2.894-4.628L19.601 15h3.524l-2.293 14.27c-.163 1.105-.14 1.31 1.564 1.31l-.536 3.368c-.538.026-.935.052-1.681.052" id="Fill-1"/><path d="M31.929 26.782c.152-.845.28-1.561.28-2.15 0-1.28-.486-2.023-2.097-2.023-1.946 0-2.405 1.357-2.84 3.814-.155.794-.232 1.51-.232 2.1 0 1.305.487 2.099 2.047 2.099 1.97 0 2.406-1.307 2.842-3.84m-8.804 1.92c0-.845.103-1.766.256-2.713.794-4.531 2.61-6.989 7.063-6.989 4.324 0 5.681 2.15 5.681 5.273 0 .87-.102 1.818-.282 2.79C35.025 31.723 33.31 34 28.806 34c-4.273 0-5.68-2.124-5.68-5.298" id="Fill-2"/><path d="M45.803 26.901c.178-.893.282-1.66.282-2.272 0-1.251-.436-1.941-1.868-1.941-1.97 0-2.456 1.15-2.943 3.753a10.9 10.9 0 00-.23 2.069c0 1.38.487 2.145 2.226 2.145 1.611 0 2.097-1.098 2.533-3.754m-9.678 7.046L39.465 15h3.863l-.928 5.109c.793-.715 2.021-1.021 3.454-1.021 3.35 0 4.271 1.966 4.271 4.57 0 1.048-.153 2.248-.358 3.371-.716 3.984-1.97 6.971-5.653 6.971-2.711 0-3.735-.537-4.323-1.277l-.844 1.251-2.822-.027" id="Fill-3"/><path d="M50.383 27.217L51.79 19h3.795l-1.407 8.27c-.328 2.034-.478 3.234 1.432 3.234 1.784 0 1.96-.834 2.337-2.922L59.381 19h3.744l-1.507 9c-.754 4.46-2.087 6-6.133 6-5.178 0-5.857-2.322-5.102-6.783" id="Fill-4"/><path d="M68.794 25.19c-1.23-.59-1.954-.95-1.954-1.592 0-.822.528-1.22 1.465-1.32.846-.088 2.125.026 3.215.402l.605-3.051c-.715-.348-1.857-.629-3.67-.629-2.387 0-5.185.873-5.185 4.751 0 2.107 1.11 3.083 2.967 4.007 1.808.874 2.219 1.106 2.219 1.85 0 .976-.555 1.208-1.35 1.208-1.673 0-2.875-.488-4.243-1.02l-.738 3.305c1.473.524 2.944.899 4.86.899 2.46 0 4.945-.95 4.945-4.572 0-2.26-1.086-3.262-3.136-4.238" id="Fill-5"/><path d="M17.125 15.837l-.692 3.843c-1.71-.559-3.328-.837-4.857-.837-1.53 0-2.814.32-3.854.959-1.039.64-1.8 1.438-2.283 2.398-.483.959-.74 1.925-.773 2.898-.027.82.108 1.59.405 2.31a3.92 3.92 0 001.364 1.735c.611.438 1.341.655 2.189.655a5.63 5.63 0 001.073-.101c.35-.067.654-.141.91-.222.257-.081.48-.158.674-.23l.414-2.486H8.807l.538-3.35h6.632l-1.451 9.078c-.595.252-1.209.487-1.842.703-.633.216-1.343.405-2.128.567-.786.162-1.57.243-2.356.243a9.096 9.096 0 01-3.126-.527 7.23 7.23 0 01-2.58-1.614c-.753-.725-1.325-1.617-1.718-2.675-.393-1.058-.692-2.28-.646-3.668.031-.964.125-2.143.472-3.27.63-2.042 1.98-4.409 5.245-6.064C7.345 15.422 9.357 15 11.709 15c1.87 0 3.675.28 5.416.837" id="Fill-6"/><path d="M75.976 17.096c0-.245-.163-.293-.466-.293h-.202v.633h.23c.28 0 .438-.074.438-.325v-.015zm.067 1.196l-.449-.659h-.286v.66h-.258v-1.687c.197-.005.287-.01.46-.01.443 0 .735.111.735.5v.015c0 .272-.146.42-.376.48l.488.701h-.314zm-.42-2.063c-.769 0-1.245.494-1.245 1.27 0 .783.476 1.278 1.244 1.278.769 0 1.245-.495 1.245-1.277 0-.777-.476-1.271-1.245-1.271zm0 2.771c-.904 0-1.498-.606-1.498-1.5 0-.899.594-1.5 1.497-1.5.903 0 1.503.601 1.503 1.5 0 .894-.6 1.5-1.503 1.5z" id="Fill-7"/><g id="Group-11" transform="translate(.125)"><path d="M72.466 13.208S76.869-.366 58.036.016C39.882.385 24.924 14.632 24.924 14.632s10.458-7.708 28.73-8.318c18.273-.61 18.813 6.894 18.813 6.894" id="Fill-8"/><path d="M.397 36.502s-4.23 13.685 15.236 13.452c19.003-.228 34.123-14.833 34.123-14.833s-11.12 7.739-29.392 8.348C2.092 44.08.397 36.502.397 36.502" id="Fill-10"/></g><path d="M52.125 43.361c0-.449.042-.824.118-1.19.412-2.236 1.632-3.171 3.374-3.171 1.38 0 2.155.54 2.508 1.045l-.867.77c-.26-.322-.656-.743-1.7-.743-1.22 0-2.02.715-2.322 2.245-.05.284-.084.605-.084.889 0 1.136.555 1.804 1.868 1.804 1.27 0 1.607-.494 1.86-1.804l.025-.156h-1.784l.177-.999h2.827l-.185 1.026C57.536 45.322 56.88 46 54.961 46c-1.978 0-2.836-.99-2.836-2.639" id="Fill-12"/><path d="M61.69 42.915c.865 0 1.366-.356 1.366-1.239 0-.534-.441-.77-1.383-.77H60.28l-.467 2.009h1.876zm-.527.899h-1.536l-.5 2.186h-1.002l1.341-6h2.292c1.807 0 2.367.656 2.367 1.474 0 1.23-.568 2.145-1.926 2.315L63.03 46h-1.043l-.824-2.186z" id="Fill-13"/><path d="M70.892 42.742c.063-.301.1-.585.1-.86 0-1.088-.608-1.811-2.077-1.811-1.378 0-2.248.686-2.575 2.214a4.08 4.08 0 00-.09.86c0 1.09.598 1.821 2.049 1.821 1.387 0 2.258-.668 2.593-2.224zm-5.767.513c0-.348.036-.714.118-1.126C65.76 39.65 67.33 39 68.97 39c1.995 0 3.155.952 3.155 2.727 0 .347-.036.714-.118 1.107C71.472 45.332 69.931 46 68.29 46c-2.013 0-3.165-.96-3.165-2.745z" id="Fill-14"/><path d="M72.125 44.29c0-.256.041-.526.098-.78l.778-3.51h.99l-.76 3.47c-.05.23-.09.437-.09.636 0 .605.351.995 1.505.995 1.089 0 1.498-.478 1.703-1.433l.81-3.668h.966l-.86 3.86C77.013 45.004 76.48 46 74.54 46c-1.932 0-2.415-.812-2.415-1.71" id="Fill-15"/><path d="M82.644 43.053c.903 0 1.418-.413 1.418-1.377 0-.51-.38-.77-1.334-.77h-1.46l-.497 2.147h1.873zM80.458 40h2.397c1.713 0 2.27.631 2.27 1.498 0 1.425-.726 2.461-2.447 2.461h-2.093L80.121 46h-.996l1.333-6z" id="Fill-16"/></g></g></g></svg>