<?xml version="1.0" standalone="no"?>
<!DOCTYPE svg PUBLIC "-//W3C//DTD SVG 1.1//EN" "http://www.w3.org/Graphics/SVG/1.1/DTD/svg11.dtd" >
<svg xmlns="http://www.w3.org/2000/svg" xmlns:xlink="http://www.w3.org/1999/xlink" version="1.1">
<metadata>
Created by FontForge 20170731 at Fri May 28 20:07:30 2021
 By Aleksey,,,
Copyright 2017 OMSE LTD. All rights reserved.
</metadata>
<defs>
<font id="ModernEraTRIAL-Regular" horiz-adv-x="1228" >
  <font-face 
    font-family="Modern Era TRIAL"
    font-weight="400"
    font-stretch="normal"
    units-per-em="2048"
    panose-1="2 0 0 0 0 0 0 0 0 0"
    ascent="1608"
    descent="-440"
    x-height="1004"
    cap-height="1434"
    bbox="-115 -459 2150 1591"
    underline-thickness="139"
    underline-position="-310"
    unicode-range="U+000D-2212"
  />
<missing-glyph horiz-adv-x="1695" 
d="M848 -29q-202 0 -373.5 100t-272 272t-100.5 374t100.5 374t272 271.5t373.5 99.5q152 0 290 -59t237.5 -158.5t158.5 -237.5t59 -290t-59 -290t-158.5 -238t-237.5 -159t-290 -59zM848 104q166 0 307.5 82t224 223.5t82.5 307.5t-82.5 307t-224 223t-307.5 82t-307 -82
t-223 -223t-82 -307t82 -307.5t223 -223.5t307 -82zM618 717q-52 0 -89 37t-37 88q0 53 37 90t89 37t88.5 -37t36.5 -90q0 -51 -36.5 -88t-88.5 -37zM1077 717q-52 0 -88.5 37t-36.5 88q0 53 36.5 90t88.5 37q53 0 90 -37.5t37 -89.5q0 -51 -37.5 -88t-89.5 -37z" />
    <glyph glyph-name=".notdef" horiz-adv-x="1695" 
d="M848 -29q-202 0 -373.5 100t-272 272t-100.5 374t100.5 374t272 271.5t373.5 99.5q152 0 290 -59t237.5 -158.5t158.5 -237.5t59 -290t-59 -290t-158.5 -238t-237.5 -159t-290 -59zM848 104q166 0 307.5 82t224 223.5t82.5 307.5t-82.5 307t-224 223t-307.5 82t-307 -82
t-223 -223t-82 -307t82 -307.5t223 -223.5t307 -82zM618 717q-52 0 -89 37t-37 88q0 53 37 90t89 37t88.5 -37t36.5 -90q0 -51 -36.5 -88t-88.5 -37zM1077 717q-52 0 -88.5 37t-36.5 88q0 53 36.5 90t88.5 37q53 0 90 -37.5t37 -89.5q0 -51 -37.5 -88t-89.5 -37z" />
    <glyph glyph-name=".null" horiz-adv-x="0" 
 />
    <glyph glyph-name="nonmarkingreturn" horiz-adv-x="682" 
 />
    <glyph glyph-name="CR" unicode="&#xd;" horiz-adv-x="573" 
 />
    <glyph glyph-name="space" unicode=" " horiz-adv-x="573" 
 />
    <glyph glyph-name="exclam" unicode="!" horiz-adv-x="571" 
d="M207 358v1076h160v-1076h-160zM285 -14q-51 0 -85 35t-34 85q0 48 34.5 83.5t84.5 35.5q51 0 86 -35.5t35 -85.5q0 -49 -35.5 -83.5t-85.5 -34.5z" />
    <glyph glyph-name="quotedbl" unicode="&#x22;" horiz-adv-x="577" 
d="M68 1081v418h155v-418h-155zM354 1081v418h156v-418h-156z" />
    <glyph glyph-name="numbersign" unicode="#" horiz-adv-x="1556" 
d="M1489 913h-320l-55 -393h307v-135h-323l-54 -385h-147l53 385h-434l-53 -385h-146l54 385h-303v135h319l55 393h-309v136h326l53 385h145l-53 -385h436l54 385h145l-53 -385h303v-136zM969 520l53 393h-434l-56 -393h437z" />
    <glyph glyph-name="dollar" unicode="$" horiz-adv-x="1234" 
d="M1141 385q0 -168 -122 -278.5t-314 -129.5v-143h-152v143q-362 38 -459 408l150 43q36 -138 111 -213t198 -92v549q-196 46 -302 138t-106 251q0 165 114.5 271.5t293.5 127.5v131h152v-131q320 -36 411 -389l-149 -43q-58 251 -262 287v-516q222 -49 329 -146.5
t107 -267.5zM305 1061q0 -91 60.5 -143.5t187.5 -86.5v484q-113 -18 -180.5 -84.5t-67.5 -169.5zM705 121q126 16 201 83t75 181q0 41 -7.5 70.5t-33 66t-84.5 66t-151 51.5v-518z" />
    <glyph glyph-name="ampersand" unicode="&#x26;" horiz-adv-x="1210" 
d="M1155 840v-135h-149v-295q0 -195 -126 -318t-317 -123q-207 0 -338 122t-131 319q0 124 61 221.5t169 152.5q-148 106 -148 289q0 170 119 278.5t301 108.5q159 0 264.5 -80t130.5 -213l-145 -37q-17 89 -85 140t-165 51q-115 0 -189.5 -66t-74.5 -176q0 -111 75 -174
t189 -63h258v149h152v-151h149zM854 410v297h-272q-137 0 -232.5 -80.5t-95.5 -216.5q0 -134 91 -215.5t218 -81.5q124 0 207.5 80.5t83.5 216.5z" />
    <glyph glyph-name="quotesingle" unicode="'" horiz-adv-x="290" 
d="M68 1081v418h155v-418h-155z" />
    <glyph glyph-name="parenleft" unicode="(" horiz-adv-x="514" 
d="M344 -350q-114 176 -190 418t-76 546q0 308 75.5 549t190.5 412l127 -84q-42 -62 -81.5 -145.5t-76 -194.5t-58.5 -253t-22 -290q0 -276 71 -502t165 -370z" />
    <glyph glyph-name="parenright" unicode=")" horiz-adv-x="514" 
d="M170 -350l-125 86q94 144 165 370t71 502q0 148 -22 290t-58.5 253t-76 194.5t-81.5 145.5l127 84q115 -171 190.5 -412t75.5 -549q0 -304 -76 -546t-190 -418z" />
    <glyph glyph-name="asterisk" unicode="*" horiz-adv-x="868" 
d="M791 1196l-256 -84l159 -219l-102 -74l-160 217l-158 -217l-102 74l160 219l-254 84l37 119l256 -84v268h125v-264l254 78z" />
    <glyph glyph-name="plus" unicode="+" 
d="M539 205v440h-437v143h437v441h151v-441h436v-143h-436v-440h-151z" />
    <glyph glyph-name="comma" unicode="," horiz-adv-x="374" 
d="M78 -184q80 97 80 176q-39 13 -64.5 42t-25.5 68q0 56 35.5 89.5t82.5 33.5q51 0 86 -35.5t35 -101.5q0 -76 -41.5 -173t-115.5 -163z" />
    <glyph glyph-name="hyphen" unicode="-" horiz-adv-x="708" 
d="M102 543v143h504v-143h-504z" />
    <glyph glyph-name="period" unicode="." horiz-adv-x="374" 
d="M186 -14q-51 0 -84.5 34t-33.5 84q0 51 33.5 86t84.5 35t86 -35t35 -86q0 -50 -35 -84t-86 -34z" />
    <glyph glyph-name="slash" unicode="/" horiz-adv-x="841" 
d="M68 0l544 1434h162l-545 -1434h-161z" />
    <glyph glyph-name="zero" unicode="0" horiz-adv-x="1230" 
d="M618 -29q-107 0 -194.5 39t-148 107t-101 163.5t-59.5 206t-19 236.5q0 123 19 231t60 202t101.5 161.5t147.5 106t194 38.5q105 0 191 -38.5t146 -106t101 -161t60 -202.5t19 -231q0 -159 -30 -292t-91 -237.5t-162 -163.5t-234 -59zM618 117q92 0 162.5 47t112 130.5
t62 189.5t20.5 233q0 123 -21 228.5t-62.5 190t-112 133t-161.5 48.5q-93 0 -164.5 -48.5t-114 -133t-64 -190.5t-21.5 -228q0 -123 21 -229t63.5 -190t114 -132.5t165.5 -48.5z" />
    <glyph glyph-name="one" unicode="1" horiz-adv-x="692" 
d="M340 0v1260q-55 -35 -139 -65.5t-152 -41.5v154q67 13 147 48.5t144 78.5h160v-1434h-160z" />
    <glyph glyph-name="two" unicode="2" horiz-adv-x="1140" 
d="M123 0v147l473 422q119 107 157 149q123 137 130 287v19q0 126 -86.5 209.5t-223.5 83.5q-136 0 -232 -91t-97 -241l-148 43q5 130 73 230.5t174 152t230 51.5q205 0 337 -124t132 -314q0 -47 -6.5 -90.5t-22.5 -84t-31 -73t-44 -69.5t-48.5 -61.5t-58 -61t-59.5 -55.5
t-65 -58l-365 -326h702v-145h-921z" />
    <glyph glyph-name="three" unicode="3" horiz-adv-x="1185" 
d="M586 -29q-205 0 -343 120.5t-147 293.5l146 43q8 -131 105.5 -221t238.5 -90q151 0 247.5 93t96.5 232q0 142 -93.5 235t-250.5 93q-50 0 -117 -18l-82 100l416 436h-664v146h856v-146l-366 -385q210 -6 335.5 -132.5t125.5 -328.5q0 -201 -143 -336t-361 -135z" />
    <glyph glyph-name="four" unicode="4" horiz-adv-x="1144" 
d="M717 0v387h-654v127l648 920h166v-908h204v-139h-204v-387h-160zM233 524l484 2v680z" />
    <glyph glyph-name="five" unicode="5" horiz-adv-x="1189" 
d="M594 -29q-202 0 -342 116t-156 273l150 46q13 -129 111.5 -209t236.5 -80q152 0 247 94t97 242q-2 144 -98 238.5t-248 94.5q-89 0 -165 -35.5t-116 -82.5l-145 51l78 715h760v-146h-627l-49 -444q39 32 113 58t159 26q219 0 356.5 -133.5t137.5 -341.5
q0 -139 -66.5 -249.5t-180.5 -171.5t-253 -61z" />
    <glyph glyph-name="six" unicode="6" horiz-adv-x="1193" 
d="M602 -29q-246 0 -376 169.5t-130 486.5q0 156 16 280.5t53.5 230t97 176t149 109.5t206.5 39q177 0 285 -94t154 -252l-144 -45q-68 246 -295 246q-81 0 -141.5 -27.5t-99 -74.5t-63 -119.5t-35.5 -151t-15 -180.5q48 64 140.5 113t205.5 49q211 0 349.5 -131t138.5 -344
q0 -214 -139.5 -347t-356.5 -133zM602 117q151 0 243.5 92.5t92.5 241.5q0 150 -92.5 240.5t-243.5 90.5q-142 0 -236 -93t-94 -238q0 -140 92 -237t238 -97z" />
    <glyph glyph-name="seven" unicode="7" horiz-adv-x="1050" 
d="M301 0q58 298 210.5 674.5t297.5 613.5h-746v146h924v-146q-151 -234 -308.5 -611t-217.5 -677h-160z" />
    <glyph glyph-name="eight" unicode="8" horiz-adv-x="1165" 
d="M850 778q103 -56 161 -152t58 -216q0 -196 -135.5 -318.5t-349.5 -122.5q-217 0 -352.5 122.5t-135.5 318.5q0 120 58.5 216t162.5 152q-75 50 -116 126t-41 169q0 170 119.5 278.5t304.5 108.5t304.5 -108.5t119.5 -278.5q0 -92 -41.5 -168.5t-116.5 -126.5zM317 1079
q0 -111 76 -174t191 -63q114 0 190 63t76 174q0 110 -75.5 176t-190.5 66t-191 -66t-76 -176zM584 113q138 0 231.5 81t93.5 216q0 137 -93 217t-232 80q-87 0 -161 -34.5t-120.5 -103t-46.5 -159.5q0 -134 96.5 -215.5t231.5 -81.5z" />
    <glyph glyph-name="nine" unicode="9" horiz-adv-x="1193" 
d="M592 1462q246 0 376 -169t130 -486q0 -156 -16 -280.5t-54 -230t-97.5 -176t-149 -110t-206.5 -39.5q-177 0 -284.5 93.5t-153.5 252.5l144 45q68 -245 294 -245q81 0 141.5 27.5t99 74.5t63.5 119.5t36 151t15 180.5q-48 -64 -140.5 -113t-205.5 -49q-211 0 -349.5 131
t-138.5 344q0 214 139.5 346.5t356.5 132.5zM592 1317q-151 0 -243.5 -92.5t-92.5 -241.5q0 -150 92.5 -241t243.5 -91q142 0 236 93.5t94 238.5q0 140 -92 237t-238 97z" />
    <glyph glyph-name="colon" unicode=":" horiz-adv-x="374" 
d="M186 608q-51 0 -84.5 35t-33.5 86q0 50 33.5 84.5t84.5 34.5t86 -34.5t35 -84.5q0 -51 -35 -86t-86 -35zM186 -14q-51 0 -84.5 34t-33.5 84q0 51 33.5 86t84.5 35t86 -35t35 -86q0 -50 -35 -84t-86 -34z" />
    <glyph glyph-name="semicolon" unicode=";" horiz-adv-x="382" 
d="M195 608q-51 0 -85 34.5t-34 86.5q0 51 34 85t85 34t85.5 -34t34.5 -85q0 -52 -34.5 -86.5t-85.5 -34.5zM78 -188q80 97 80 176q-39 13 -64.5 42t-25.5 68q0 56 35.5 89.5t82.5 33.5q51 0 86 -35.5t35 -101.5q0 -76 -41.5 -173t-115.5 -163z" />
    <glyph glyph-name="equal" unicode="=" 
d="M102 870v144h1024v-144h-1024zM102 422v143h1024v-143h-1024z" />
    <glyph glyph-name="question" unicode="?" horiz-adv-x="1040" 
d="M514 1462q128 0 233 -55t165.5 -153.5t60.5 -219.5q0 -107 -40.5 -199t-124.5 -159.5t-202 -93.5v-228h-157v340h18q166 0 258 93.5t94 238.5q0 126 -85.5 208.5t-215.5 82.5q-139 0 -222 -81t-85 -216l-143 39q9 178 133.5 290.5t312.5 112.5zM528 225q51 0 86 -34.5
t35 -84.5q0 -51 -35 -85.5t-86 -34.5q-50 0 -84 34.5t-34 85.5q0 50 34.5 84.5t83.5 34.5z" />
    <glyph glyph-name="at" unicode="@" horiz-adv-x="1734" 
d="M868 1247q334 0 539 -203.5t205 -535.5q0 -171 -89 -276t-239 -105q-80 0 -134.5 30.5t-76.5 84.5q-100 -115 -252 -115q-145 0 -224 98.5t-79 239.5q0 74 23.5 144t67 127.5t113.5 92.5t155 35q141 0 217 -94l18 74h113l-43 -477v-9q-2 -44 23.5 -73t80.5 -29
q90 0 140.5 73t50.5 179q0 282 -163.5 445t-445.5 163q-174 0 -314 -82t-218 -223t-78 -311q0 -169 82.5 -311.5t222.5 -225t305 -82.5q89 0 174 27.5t142 64.5l73 -108q-71 -47 -172 -80t-217 -33q-154 0 -291.5 58t-237 157.5t-158 238.5t-58.5 294q0 150 58 287.5
t157 238.5t237.5 161t292.5 60zM838 254q106 0 168.5 81t62.5 185q0 92 -48.5 154.5t-139.5 62.5q-72 0 -127 -40.5t-81 -100.5t-26 -127q0 -90 49.5 -152.5t141.5 -62.5z" />
    <glyph glyph-name="A" unicode="A" horiz-adv-x="1341" 
d="M1122 0l-149 401h-606l-150 -401h-164l535 1434h164l536 -1434h-166zM420 545h500l-250 674z" />
    <glyph glyph-name="B" unicode="B" horiz-adv-x="1239" 
d="M166 0v1434h508q201 0 304 -106t103 -271q0 -106 -47.5 -185t-126.5 -124v-5q31 -11 59.5 -27t61 -44.5t55.5 -63.5t38.5 -87.5t15.5 -114.5q0 -175 -117 -290.5t-320 -115.5h-534zM326 799h344q123 0 188.5 69.5t65.5 186.5q0 109 -68.5 173t-185.5 64h-344v-493z
M326 141h376q131 0 203 76t72 189q0 114 -75 185t-228 71h-348v-521z" />
    <glyph glyph-name="C" unicode="C" horiz-adv-x="1570" 
d="M846 -29q-211 0 -376 95t-256 265t-91 386q0 211 93 381.5t257.5 267t368.5 96.5q229 0 392.5 -119t233.5 -325l-151 -51q-57 170 -179.5 260t-295.5 90q-241 0 -400 -171t-159 -429q0 -265 157 -432.5t406 -167.5q178 0 296 86t171 235l149 -49q-71 -195 -229.5 -306.5
t-386.5 -111.5z" />
    <glyph glyph-name="D" unicode="D" horiz-adv-x="1449" 
d="M166 0v1434h442q116 0 215 -22t171.5 -60t130 -92t95 -115.5t62 -133t35 -142t10.5 -144.5q0 -111 -23.5 -213.5t-77 -197t-132 -163.5t-196.5 -110t-263 -41h-469zM326 143h297q120 0 215 33t155.5 88t100.5 132t56.5 158.5t16.5 172.5t-14.5 168t-53.5 152t-100.5 127
t-162.5 84t-232 32h-278v-1147z" />
    <glyph glyph-name="E" unicode="E" horiz-adv-x="1146" 
d="M166 0v1434h868v-144h-708v-495h624v-142h-624v-510h708v-143h-868z" />
    <glyph glyph-name="F" unicode="F" horiz-adv-x="1146" 
d="M166 0v1434h868v-144h-708v-530h626v-142h-626v-618h-160z" />
    <glyph glyph-name="G" unicode="G" horiz-adv-x="1634" 
d="M850 -29q-209 0 -374.5 93.5t-259 264t-93.5 388.5q0 209 95 380t261.5 268t370.5 97q212 0 367.5 -104t226.5 -287l-148 -53q-56 141 -167.5 220t-274.5 79q-164 0 -295.5 -80.5t-203.5 -217.5t-72 -302q0 -262 158 -431t409 -169q119 0 213 42.5t151.5 114t88 160
t32.5 187.5h-356v139h512v-760h-119l-24 213q-17 -27 -43 -56t-71 -63.5t-98 -60.5t-128.5 -44t-157.5 -18z" />
    <glyph glyph-name="H" unicode="H" horiz-adv-x="1390" 
d="M166 0v1434h160v-627h739v627h160v-1434h-160v662h-739v-662h-160z" />
    <glyph glyph-name="I" unicode="I" horiz-adv-x="491" 
d="M166 0v1434h160v-1434h-160z" />
    <glyph glyph-name="J" unicode="J" horiz-adv-x="1036" 
d="M471 -29q-180 0 -288.5 103.5t-110.5 275.5v53l157 -26v-21q0 -109 63 -174t177 -65q116 0 180 71.5t64 202.5v1043h159v-1037q0 -206 -107.5 -316t-293.5 -110z" />
    <glyph glyph-name="K" unicode="K" horiz-adv-x="1265" 
d="M1016 0l-510 721l-180 -186v-535h-160v1434h160v-676l655 676h207l-572 -596l596 -838h-196z" />
    <glyph glyph-name="L" unicode="L" horiz-adv-x="1077" 
d="M166 0v1434h160v-1289h686v-145h-846z" />
    <glyph glyph-name="M" unicode="M" horiz-adv-x="1763" 
d="M1589 1434v-1434h-157v1145l-488 -1145h-127l-483 1141l-4 -1141h-156v1434h188l521 -1223l518 1223h188z" />
    <glyph glyph-name="N" unicode="N" horiz-adv-x="1486" 
d="M174 0v1434h170l807 -1180v1180h162v-1434h-170l-809 1180v-1180h-160z" />
    <glyph glyph-name="O" unicode="O" horiz-adv-x="1695" 
d="M850 -27q-208 0 -374.5 95.5t-259.5 266t-93 384.5q0 211 93 381.5t259.5 267t374.5 96.5q205 0 370.5 -96.5t259 -267t93.5 -381.5q0 -214 -93.5 -384.5t-258.5 -266t-371 -95.5zM850 119q163 0 291.5 76t200 213t71.5 311q0 170 -72.5 307t-201.5 215t-289 78
q-163 0 -292.5 -78t-202 -215t-72.5 -307q0 -264 158.5 -432t408.5 -168z" />
    <glyph glyph-name="P" unicode="P" horiz-adv-x="1212" 
d="M166 0v1434h457q222 0 351.5 -114t129.5 -319q0 -202 -131.5 -318t-347.5 -116h-299v-567h-160zM326 711h284q156 0 245 70.5t89 219.5t-89 219t-245 70h-284v-579z" />
    <glyph glyph-name="Q" unicode="Q" horiz-adv-x="1695" 
d="M1573 719q0 -301 -178 -504l170 -170l-109 -104l-170 170q-190 -138 -436 -138q-208 0 -374.5 95.5t-259.5 266t-93 384.5q0 211 93 381.5t259.5 267t374.5 96.5q205 0 370.5 -96.5t259 -267t93.5 -381.5zM850 119q185 0 328 100l-193 193l109 104l192 -192
q127 162 127 395q0 170 -72.5 307t-201.5 215t-289 78q-163 0 -292.5 -78t-202 -215t-72.5 -307q0 -264 158.5 -432t408.5 -168z" />
    <glyph glyph-name="R" unicode="R" horiz-adv-x="1263" 
d="M166 0v1434h469q227 0 346 -113.5t119 -298.5q0 -85 -27.5 -156.5t-73.5 -119t-100.5 -77.5t-114.5 -42l371 -627h-178l-359 608h-292v-608h-160zM326 750h317q135 0 216 68t81 204q0 138 -84 203t-221 65h-309v-540z" />
    <glyph glyph-name="S" unicode="S" horiz-adv-x="1234" 
d="M633 -27q-212 0 -349 102.5t-190 309.5l150 43q40 -158 134.5 -234.5t254.5 -76.5q154 0 251 69t97 199q0 28 -3.5 49.5t-14 49t-34 49.5t-59.5 45t-95 42t-136 33q-115 21 -201 52t-154 78.5t-103.5 117t-35.5 160.5q0 123 66 215.5t175.5 140t244.5 47.5
q196 0 316 -102t169 -291l-149 -43q-33 140 -113 216.5t-223 76.5q-146 0 -236 -69t-90 -191q0 -110 86 -163.5t277 -90.5q241 -47 357 -145.5t116 -276.5q0 -185 -145 -298.5t-363 -113.5z" />
    <glyph glyph-name="T" unicode="T" horiz-adv-x="1173" 
d="M506 0v1288h-440v146h1042v-146h-442v-1288h-160z" />
    <glyph glyph-name="U" unicode="U" horiz-adv-x="1382" 
d="M690 -29q-116 0 -211 34t-165 100.5t-109 172t-39 240.5v916h160v-908q0 -213 97.5 -311t266.5 -98q168 0 267.5 98t99.5 311v908h160v-918q0 -138 -40 -243.5t-112 -171t-166.5 -98t-208.5 -32.5z" />
    <glyph glyph-name="V" unicode="V" horiz-adv-x="1335" 
d="M1116 1434h166l-530 -1434h-170l-529 1434h168l449 -1233z" />
    <glyph glyph-name="W" unicode="W" horiz-adv-x="1896" 
d="M1679 1434h164l-403 -1434h-164l-328 1194l-327 -1194h-162l-406 1434h166l324 -1184l323 1184h166l324 -1186z" />
    <glyph glyph-name="X" unicode="X" horiz-adv-x="1316" 
d="M1264 0h-189l-416 608l-415 -608h-191l500 729l-479 705h190l395 -582l396 582h188l-477 -703z" />
    <glyph glyph-name="Y" unicode="Y" horiz-adv-x="1232" 
d="M537 0v582l-484 852h174l389 -697l392 697h172l-484 -852v-582h-159z" />
    <glyph glyph-name="Z" unicode="Z" horiz-adv-x="1267" 
d="M90 0v141l891 1149h-827v144h1022v-142l-891 -1149h876v-143h-1071z" />
    <glyph glyph-name="backslash" unicode="\" horiz-adv-x="821" 
d="M754 0h-162l-545 1434h162z" />
    <glyph glyph-name="underscore" unicode="_" horiz-adv-x="1024" 
d="M0 -242v140h1024v-140h-1024z" />
    <glyph glyph-name="a" unicode="a" horiz-adv-x="1032" 
d="M449 -29q-165 0 -257 87.5t-92 215.5q0 135 92 215t293 109l269 39v33q0 231 -246 231q-222 0 -250 -207l-141 37q30 144 130 222.5t261 78.5q188 0 294.5 -93t106.5 -267v-672h-131l-18 104q-94 -133 -311 -133zM481 106q114 0 193.5 64.5t79.5 191.5v148l-250 -37
q-125 -19 -188.5 -61t-63.5 -129q0 -82 61.5 -129.5t167.5 -47.5z" />
    <glyph glyph-name="b" unicode="b" horiz-adv-x="1222" 
d="M651 -27q-231 0 -356 174l-21 -147h-131v1434h156v-576q131 174 352 174q116 0 209.5 -45.5t150.5 -121.5t87 -168.5t30 -192.5q0 -98 -32.5 -192t-91.5 -170t-151 -122.5t-202 -46.5zM635 113q150 0 244 110.5t94 280.5q0 171 -94 280t-244 109q-151 0 -244.5 -109.5
t-93.5 -279.5q0 -171 93.5 -281t244.5 -110z" />
    <glyph glyph-name="c" unicode="c" horiz-adv-x="1136" 
d="M600 -29q-96 0 -178.5 29.5t-142 80.5t-101.5 118.5t-63 144.5t-21 158q0 102 35 197t98 169.5t160 119t213 44.5q167 0 278.5 -84.5t157.5 -220.5l-141 -49q-34 100 -111 156.5t-184 56.5q-154 0 -252 -109.5t-98 -279.5t98 -279.5t252 -109.5q106 0 184.5 59.5
t112.5 161.5l141 -49q-50 -139 -163.5 -226.5t-274.5 -87.5z" />
    <glyph glyph-name="d" unicode="d" horiz-adv-x="1222" 
d="M571 -27q-109 0 -201 46.5t-151 122.5t-92 170t-33 192q0 100 30 192.5t87 168.5t150.5 121.5t209.5 45.5q117 0 206 -47.5t147 -126.5v576h155v-1434h-129l-20 147q-129 -174 -359 -174zM588 113q151 0 244.5 110t93.5 281q0 170 -93.5 279.5t-244.5 109.5
q-150 0 -244 -109t-94 -280q0 -170 94 -280.5t244 -110.5z" />
    <glyph glyph-name="e" unicode="e" horiz-adv-x="1157" 
d="M1063 459h-815q6 -152 102 -253.5t244 -101.5q114 0 195.5 56.5t107.5 138.5l137 -43q-42 -121 -156 -203t-284 -82q-149 0 -264.5 72.5t-175.5 192.5t-60 266q0 143 64 264.5t179 193.5t255 72q212 -2 341.5 -139.5t129.5 -366.5v-67zM918 588q-9 133 -99.5 222
t-224.5 89q-143 0 -233.5 -88t-110.5 -223h668z" />
    <glyph glyph-name="f" unicode="f" horiz-adv-x="708" 
d="M223 0v862h-182v142h182v196q0 118 69.5 190t180.5 72q65 0 118 -18t71 -32t28 -26l-88 -106q-5 6 -16 14.5t-35.5 17.5t-52.5 9q-119 0 -119 -133v-184h293v-142h-293v-862h-156z" />
    <glyph glyph-name="g" unicode="g" horiz-adv-x="1218" 
d="M586 -455q-184 0 -294 87t-151 235l148 35q57 -221 297 -221q167 0 250.5 83.5t83.5 229.5v180q-47 -79 -137.5 -131.5t-211.5 -52.5q-93 0 -172 29.5t-134 79.5t-94.5 116.5t-58 140.5t-18.5 152q0 97 32 190t90.5 168t150.5 120.5t202 45.5q230 0 351 -172l24 144h131
v-1006q0 -69 -15.5 -132t-52.5 -122.5t-92 -103t-139.5 -69.5t-189.5 -26zM590 129q146 0 238 105t92 274q0 170 -93 277.5t-241 107.5q-151 0 -243.5 -107t-92.5 -278q0 -169 94.5 -274t245.5 -105z" />
    <glyph glyph-name="h" unicode="h" horiz-adv-x="1120" 
d="M143 0v1434h156v-564q119 162 334 162q156 0 250 -93.5t94 -281.5v-657h-156v621q0 77 -17.5 131t-51 82.5t-73.5 40.5t-93 12q-117 0 -202 -87t-85 -231v-569h-156z" />
    <glyph glyph-name="i" unicode="i" horiz-adv-x="468" 
d="M236 1165q-51 0 -85 33.5t-34 83.5t34 83.5t85 33.5q47 0 80.5 -34t33.5 -83t-33.5 -83t-80.5 -34zM158 0v1004h155v-1004h-155z" />
    <glyph glyph-name="j" unicode="j" horiz-adv-x="483" 
d="M256 1165q-51 0 -85 33.5t-34 83.5t34 83.5t85 33.5q48 0 81.5 -34t33.5 -83t-33.5 -83t-81.5 -34zM80 -459q-71 0 -121 22t-74 50l80 108q10 -14 36.5 -25t61.5 -11q113 0 113 135v1184h156v-1197q0 -116 -71 -191t-181 -75z" />
    <glyph glyph-name="k" unicode="k" horiz-adv-x="1003" 
d="M786 0l-356 500l-131 -135v-365h-156v1434h156v-867l426 439h193l-383 -398l432 -608h-181z" />
    <glyph glyph-name="l" unicode="l" horiz-adv-x="442" 
d="M143 0v1434h156v-1434h-156z" />
    <glyph glyph-name="m" unicode="m" horiz-adv-x="1736" 
d="M143 0v1004h131l21 -138q119 166 328 166q104 0 179 -46.5t111 -127.5q128 174 351 174q143 0 236 -90t93 -268v-674h-155v614q0 150 -59 211.5t-165 61.5q-112 0 -190 -84.5t-78 -233.5v-569h-155v614q0 273 -222 273q-111 0 -190.5 -84.5t-79.5 -233.5v-569h-156z" />
    <glyph glyph-name="n" unicode="n" horiz-adv-x="1122" 
d="M143 0v1004h131l23 -136q120 164 336 164q157 0 251.5 -93.5t94.5 -281.5v-657h-156v621q0 148 -63 207t-174 59q-116 0 -201.5 -86.5t-85.5 -229.5v-571h-156z" />
    <glyph glyph-name="o" unicode="o" horiz-adv-x="1216" 
d="M606 -29q-119 0 -218.5 46t-162 121.5t-97 169.5t-34.5 194t35.5 194.5t99 169.5t162 120.5t215.5 45.5q96 0 179.5 -29.5t144.5 -81t104.5 -119t65.5 -144t22 -156.5q0 -99 -35 -193.5t-99 -170t-163.5 -121.5t-218.5 -46zM606 113q158 0 259.5 111.5t101.5 277.5
q0 167 -101.5 278t-259.5 111q-157 0 -256.5 -111t-99.5 -278q0 -166 100 -277.5t256 -111.5z" />
    <glyph glyph-name="p" unicode="p" horiz-adv-x="1222" 
d="M651 1030q110 0 202 -46.5t151 -122t91.5 -169.5t32.5 -192q0 -79 -18.5 -154.5t-57 -144t-94 -119.5t-134.5 -81t-173 -30q-223 0 -352 174v-575h-156v1434h131l21 -150q124 176 356 176zM635 891q-151 0 -244.5 -110t-93.5 -281t93.5 -280t244.5 -109q150 0 244 109
t94 280q0 170 -94 280.5t-244 110.5z" />
    <glyph glyph-name="q" unicode="q" horiz-adv-x="1222" 
d="M571 1030q232 0 359 -176l20 150h129v-1434h-155v575q-58 -80 -147 -127t-206 -47q-94 0 -173 30t-134.5 81t-94 119.5t-57 144t-18.5 154.5q0 98 33 192t92 169.5t151 122t201 46.5zM588 891q-150 0 -244 -110.5t-94 -280.5q0 -171 94 -280t244 -109q151 0 244.5 109
t93.5 280t-93.5 281t-244.5 110z" />
    <glyph glyph-name="r" unicode="r" horiz-adv-x="774" 
d="M143 0v1004h131l23 -134q39 69 110.5 115.5t163.5 46.5q61 0 110.5 -16t74.5 -37l-64 -133q-49 39 -139 39q-107 0 -180.5 -89.5t-73.5 -232.5v-563h-156z" />
    <glyph glyph-name="s" unicode="s" horiz-adv-x="987" 
d="M506 -29q-324 0 -412 308l142 45q11 -34 21 -59t31.5 -56.5t48.5 -51.5t70.5 -34t98.5 -14q105 0 170 42t65 119q0 27 -6 46t-27 43.5t-71 44t-129 32.5q-66 11 -116.5 25t-101 38t-83 55t-52.5 77.5t-20 105.5q0 139 107 217t264 78q153 0 248.5 -78t128.5 -219
l-144 -37q-17 86 -74 141.5t-159 55.5q-118 0 -169.5 -46.5t-51.5 -109.5q0 -36 18 -62.5t55.5 -44.5t77 -29t99.5 -23q83 -15 144 -36.5t111.5 -57t76.5 -89t26 -125.5q0 -89 -53 -158.5t-140.5 -106t-193.5 -36.5z" />
    <glyph glyph-name="t" unicode="t" horiz-adv-x="737" 
d="M475 -29q-114 0 -181 69t-67 191v631h-186v142h186v262h156v-262h289v-142h-289v-616q0 -68 29.5 -98.5t87.5 -30.5q60 0 104 39l80 -109q-23 -29 -77 -52.5t-132 -23.5z" />
    <glyph glyph-name="u" unicode="u" horiz-adv-x="1122" 
d="M979 1004v-1004h-131l-25 135q-120 -164 -336 -164q-156 0 -250 93.5t-94 281.5v658h156v-621q0 -148 63.5 -207t174.5 -59q115 0 200.5 86t85.5 229v572h156z" />
    <glyph glyph-name="v" unicode="v" horiz-adv-x="1009" 
d="M815 1004h158l-383 -1004h-168l-385 1004h160l309 -826z" />
    <glyph glyph-name="w" unicode="w" horiz-adv-x="1511" 
d="M1317 1004h158l-310 -1004h-159l-248 807l-248 -807h-164l-309 1004h158l235 -809l242 809h166l243 -805z" />
    <glyph glyph-name="x" unicode="x" horiz-adv-x="987" 
d="M950 0h-176l-282 395l-281 -395h-174l366 508l-356 496h176l271 -381l270 381h176l-354 -496z" />
    <glyph glyph-name="y" unicode="y" horiz-adv-x="1153" 
d="M854 1004h156v-1006q0 -69 -14 -132t-47.5 -122.5t-83 -103t-125.5 -69.5t-171 -26q-175 0 -280 86t-146 234l150 35q52 -215 276 -215q143 0 214 82.5t71 226.5v151l-2 11q-67 -85 -146 -123.5t-200 -38.5q-71 0 -133.5 21.5t-114.5 64t-82.5 115t-30.5 167.5v642h156
v-590q0 -150 66 -212.5t184 -62.5q129 0 216 86t87 232v547z" />
    <glyph glyph-name="z" unicode="z" horiz-adv-x="946" 
d="M88 0v131l576 735h-560v138h750v-132l-575 -735h579l-2 -137h-768z" />
    <glyph glyph-name="uni00A0" unicode="&#xa0;" horiz-adv-x="573" 
 />
    <glyph glyph-name="cent" unicode="&#xa2;" horiz-adv-x="1136" 
d="M1038 498q-45 -123 -139.5 -207t-228.5 -103v-168h-158v170q-99 16 -179.5 66t-132 121.5t-79 158.5t-27.5 179q0 124 48 234t144.5 189.5t225.5 100.5v178h158v-176q139 -18 232.5 -99.5t133.5 -201.5l-141 -49q-34 100 -111 156.5t-184 56.5q-154 0 -252 -109.5
t-98 -279.5t98 -279.5t252 -109.5q106 0 184.5 59.5t112.5 161.5z" />
    <glyph glyph-name="sterling" unicode="&#xa3;" horiz-adv-x="1052" 
d="M354 143h674v-143h-987v143h154v502h-154v141h154v250q0 203 113 314.5t288 111.5q91 0 162.5 -24t117 -67t73 -93.5t38.5 -110.5l-141 -32q-15 75 -77.5 128.5t-170.5 53.5q-105 0 -174.5 -70.5t-69.5 -202.5v-258h484v-141h-484v-502z" />
    <glyph glyph-name="yen" unicode="&#xa5;" horiz-adv-x="1232" 
d="M1180 1434l-412 -725h256v-136h-328v-155h328v-135h-328v-283h-159v283h-332v135h332v155h-332v136h260l-412 725h174l389 -697l392 697h172z" />
    <glyph glyph-name="copyright" unicode="&#xa9;" horiz-adv-x="1695" 
d="M848 -27q-203 0 -374.5 100t-271.5 271.5t-100 374.5q0 152 59 290t159 237.5t238 158.5t290 59t290 -59t237.5 -158.5t158.5 -237.5t59 -290t-59 -290t-158.5 -238t-237.5 -159t-290 -59zM848 94q169 0 313 84t228 228t84 313t-84 313t-228 227.5t-313 83.5t-313 -83.5
t-228 -227.5t-84 -313t84 -313t228 -228t313 -84zM846 313q-172 0 -281.5 112t-109.5 294q0 177 109.5 291t279.5 114q124 0 215.5 -62.5t130.5 -178.5l-123 -41q-24 78 -80.5 122t-142.5 44q-113 0 -187.5 -82.5t-74.5 -206.5q0 -128 74.5 -208.5t189.5 -80.5
q87 0 141 41.5t78 110.5l121 -39q-42 -110 -128 -170t-212 -60z" />
    <glyph glyph-name="paragraph" unicode="&#xb6;" horiz-adv-x="1204" 
d="M1139 1434v-131h-176v-1733h-146l-2 1733h-194l2 -1733h-148v1044q-169 0 -289 120.5t-120 289.5t119.5 289.5t289.5 120.5h664z" />
    <glyph glyph-name="multiply" unicode="&#xd7;" 
d="M1085 1087l-368 -370l368 -369l-102 -104l-369 370l-368 -370l-105 104l369 369l-369 370l103 107l370 -373l371 373z" />
    <glyph glyph-name="divide" unicode="&#xf7;" 
d="M610 1030q-51 0 -84.5 34.5t-33.5 84.5q0 51 33.5 86t84.5 35t86 -35t35 -86q0 -50 -35 -84.5t-86 -34.5zM92 647v139h1045v-139h-1045zM612 199q-51 0 -84.5 34t-33.5 84q0 51 33.5 86t84.5 35t86 -35t35 -86q0 -50 -35 -84t-86 -34z" />
    <glyph glyph-name="endash" unicode="&#x2013;" 
d="M102 543v143h1024v-143h-1024z" />
    <glyph glyph-name="emdash" unicode="&#x2014;" horiz-adv-x="2252" 
d="M102 543v143h2048v-143h-2048z" />
    <glyph glyph-name="quoteleft" unicode="&#x2018;" horiz-adv-x="374" 
d="M297 1462q-80 -97 -80 -176q39 -13 64.5 -42t25.5 -68q0 -56 -36 -89.5t-83 -33.5q-51 0 -85.5 35.5t-34.5 101.5q0 76 41.5 173t115.5 163z" />
    <glyph glyph-name="quoteright" unicode="&#x2019;" horiz-adv-x="374" 
d="M78 1118q80 97 80 176q-39 13 -64.5 42.5t-25.5 68.5q0 56 35.5 89.5t82.5 33.5q51 0 86 -35.5t35 -101.5q0 -76 -41.5 -173t-115.5 -163z" />
    <glyph glyph-name="quotedblleft" unicode="&#x201c;" horiz-adv-x="714" 
d="M297 1464q-80 -97 -80 -176q39 -13 64.5 -42t25.5 -68q0 -56 -36 -89.5t-83 -33.5q-51 0 -85.5 35.5t-34.5 101.5q0 76 41.5 173t115.5 163zM637 1464q-80 -97 -80 -176q39 -13 64.5 -42t25.5 -68q0 -56 -36 -89.5t-83 -33.5q-51 0 -85.5 35.5t-34.5 101.5q0 76 41.5 173
t115.5 163z" />
    <glyph glyph-name="quotedblright" unicode="&#x201d;" horiz-adv-x="714" 
d="M78 1116q80 97 80 176q-39 13 -64.5 42.5t-25.5 68.5q0 56 35.5 89.5t82.5 33.5q51 0 86 -35.5t35 -101.5q0 -76 -41.5 -173t-115.5 -163zM418 1116q80 97 80 176q-39 13 -64.5 42.5t-25.5 68.5q0 56 35.5 89.5t82.5 33.5q51 0 86 -35.5t35 -101.5q0 -75 -42 -172.5
t-116 -163.5z" />
    <glyph glyph-name="bullet" unicode="&#x2022;" horiz-adv-x="483" 
d="M244 440q-74 0 -125 50.5t-51 123.5q0 72 51.5 123t124.5 51q71 0 121.5 -51t50.5 -123q0 -73 -50.5 -123.5t-121.5 -50.5z" />
    <glyph glyph-name="Euro" unicode="&#x20ac;" horiz-adv-x="1511" 
d="M1292 270l117 -92q-184 -207 -487 -207q-253 0 -435 136.5t-247 369.5h-199l37 133h137q-6 53 -6 107q0 55 6 108h-174l37 133h166q70 227 253 365.5t425 138.5q291 0 479 -205l-115 -94q-133 154 -364 154q-176 0 -312 -97.5t-198 -261.5h536l-39 -133h-532
q-8 -47 -8 -108q0 -55 6 -107h479l-39 -133h-409q58 -169 193.5 -265.5t322.5 -96.5q229 0 370 155z" />
    <glyph glyph-name="minus" unicode="&#x2212;" 
d="M102 645v143h1024v-143h-1024z" />
    </font>
</defs>
</svg>
