<?xml version="1.0" standalone="no"?>
<!DOCTYPE svg PUBLIC "-//W3C//DTD SVG 1.1//EN" "http://www.w3.org/Graphics/SVG/1.1/DTD/svg11.dtd" >
<svg xmlns="http://www.w3.org/2000/svg" xmlns:xlink="http://www.w3.org/1999/xlink" version="1.1">
<metadata>
Created by FontForge 20170731 at Fri May 28 20:07:32 2021
 By Aleksey,,,
Copyright 2017 OMSE LTD. All rights reserved.
</metadata>
<defs>
<font id="ModernEraTRIAL-ExtraBold" horiz-adv-x="1228" >
  <font-face 
    font-family="Modern Era TRIAL ExtraBold"
    font-weight="800"
    font-stretch="normal"
    units-per-em="2048"
    panose-1="2 0 0 0 0 0 0 0 0 0"
    ascent="1608"
    descent="-440"
    x-height="1032"
    cap-height="1434"
    bbox="-152 -430 2150 1583"
    underline-thickness="249"
    underline-position="-476"
    unicode-range="U+000D-2212"
  />
<missing-glyph horiz-adv-x="1695" 
d="M848 -29q-202 0 -373.5 100t-272 272t-100.5 374t100.5 374t272 271.5t373.5 99.5q152 0 290 -59t237.5 -158.5t158.5 -237.5t59 -290t-59 -290t-158.5 -238t-237.5 -159t-290 -59zM848 104q166 0 307.5 82t224 223.5t82.5 307.5t-82.5 307t-224 223t-307.5 82t-307 -82
t-223 -223t-82 -307t82 -307.5t223 -223.5t307 -82zM618 717q-52 0 -89 37t-37 88q0 53 37 90t89 37t88.5 -37t36.5 -90q0 -51 -36.5 -88t-88.5 -37zM1077 717q-52 0 -88.5 37t-36.5 88q0 53 36.5 90t88.5 37q53 0 90 -37.5t37 -89.5q0 -51 -37.5 -88t-89.5 -37z" />
    <glyph glyph-name=".notdef" horiz-adv-x="1695" 
d="M848 -29q-202 0 -373.5 100t-272 272t-100.5 374t100.5 374t272 271.5t373.5 99.5q152 0 290 -59t237.5 -158.5t158.5 -237.5t59 -290t-59 -290t-158.5 -238t-237.5 -159t-290 -59zM848 104q166 0 307.5 82t224 223.5t82.5 307.5t-82.5 307t-224 223t-307.5 82t-307 -82
t-223 -223t-82 -307t82 -307.5t223 -223.5t307 -82zM618 717q-52 0 -89 37t-37 88q0 53 37 90t89 37t88.5 -37t36.5 -90q0 -51 -36.5 -88t-88.5 -37zM1077 717q-52 0 -88.5 37t-36.5 88q0 53 36.5 90t88.5 37q53 0 90 -37.5t37 -89.5q0 -51 -37.5 -88t-89.5 -37z" />
    <glyph glyph-name=".null" horiz-adv-x="0" 
 />
    <glyph glyph-name="nonmarkingreturn" horiz-adv-x="682" 
 />
    <glyph glyph-name="CR" unicode="&#xd;" horiz-adv-x="573" 
 />
    <glyph glyph-name="space" unicode=" " horiz-adv-x="573" 
 />
    <glyph glyph-name="exclam" unicode="!" horiz-adv-x="626" 
d="M166 451v983h295v-983h-295zM313 -14q-71 0 -121.5 54t-50.5 120q0 63 50.5 116.5t121.5 53.5q68 0 120 -53t52 -121q0 -69 -53 -119.5t-119 -50.5z" />
    <glyph glyph-name="quotedbl" unicode="&#x22;" horiz-adv-x="862" 
d="M55 991v533h291v-533h-291zM516 991v533h291v-533h-291z" />
    <glyph glyph-name="numbersign" unicode="#" horiz-adv-x="1560" 
d="M1505 872h-284l-43 -313h264v-233h-295l-45 -326h-252l45 326h-336l-45 -326h-250l45 326h-254v233h285l43 313h-266v234h297l45 328h250l-45 -328h337l46 328h249l-45 -328h254v-234zM926 559l43 313h-336l-43 -313h336z" />
    <glyph glyph-name="dollar" unicode="$" horiz-adv-x="1159" 
d="M1090 446q0 -146 -94 -251t-251 -144v-153h-294v149q-148 31 -246 127t-135 248l280 80q34 -114 86.5 -159.5t151.5 -45.5q96 0 150.5 38.5t54.5 110.5q0 52 -45 86t-168 56q-238 42 -357 142t-119 269q0 149 95.5 254t251.5 140v143h294v-150q124 -35 206 -125t114 -227
l-281 -80q-26 103 -70 145t-126 42q-91 0 -139 -36.5t-48 -105.5q0 -48 50.5 -75t181.5 -54q233 -48 345 -150.5t112 -273.5z" />
    <glyph glyph-name="ampersand" unicode="&#x26;" horiz-adv-x="1175" 
d="M1155 874v-233h-125v-207q0 -134 -63 -240.5t-169 -164.5t-233 -58q-217 0 -356 128t-139 333q0 106 46 194t128 148q-107 110 -107 270q0 182 130 300t319 118q175 0 281.5 -83.5t140.5 -227.5l-254 -64q-15 58 -60.5 91.5t-105.5 33.5q-77 0 -128.5 -46.5t-51.5 -121.5
t50 -122.5t124 -47.5h176v111h272v-111h125zM758 436v205h-180q-89 0 -151 -58t-62 -147t57.5 -143.5t144.5 -54.5q79 0 135 55t56 143z" />
    <glyph glyph-name="quotesingle" unicode="'" horiz-adv-x="401" 
d="M55 991v533h291v-533h-291z" />
    <glyph glyph-name="parenleft" unicode="(" horiz-adv-x="602" 
d="M330 -350q-47 63 -91 155t-84 213.5t-64.5 277t-24.5 318.5t24.5 318t65.5 276t86.5 212.5t93.5 154.5l225 -148q-217 -295 -217 -815q0 -271 63 -477t162 -340z" />
    <glyph glyph-name="parenright" unicode=")" horiz-adv-x="602" 
d="M272 -348l-239 145q99 134 162 340t63 477q0 521 -217 816l225 147q48 -63 93.5 -154.5t86.5 -212.5t66 -276t25 -318q0 -162 -24.5 -318t-64.5 -277.5t-84.5 -213.5t-91.5 -155z" />
    <glyph glyph-name="asterisk" unicode="*" horiz-adv-x="940" 
d="M874 1155l-239 -76l149 -207l-163 -120l-150 206l-152 -206l-163 120l149 205l-239 78l59 193l244 -80v256h202v-254l242 78z" />
    <glyph glyph-name="plus" unicode="+" 
d="M481 205v379h-379v266h379v379h267v-379h378v-266h-378v-379h-267z" />
    <glyph glyph-name="comma" unicode="," horiz-adv-x="456" 
d="M88 -229q36 48 60.5 111t27.5 110q-121 45 -121 164q0 71 48.5 122.5t121.5 51.5q76 0 126 -49.5t50 -145.5q0 -101 -52 -228.5t-146 -219.5z" />
    <glyph glyph-name="hyphen" unicode="-" horiz-adv-x="800" 
d="M102 481v267h596v-267h-596z" />
    <glyph glyph-name="period" unicode="." horiz-adv-x="454" 
d="M227 -14q-71 0 -121.5 51t-50.5 121t50.5 121t121.5 51t121.5 -51t50.5 -121t-50.5 -121t-121.5 -51z" />
    <glyph glyph-name="slash" unicode="/" horiz-adv-x="958" 
d="M55 0l559 1434h289l-559 -1434h-289z" />
    <glyph glyph-name="zero" unicode="0" horiz-adv-x="1241" 
d="M625 -27q-137 0 -242.5 56.5t-171.5 158t-99.5 236.5t-33.5 297q0 160 33.5 293.5t99 235t170.5 158t240 56.5q108 0 197.5 -37t153 -103.5t107 -159.5t64 -204.5t20.5 -238.5t-20.5 -238.5t-63.5 -205.5t-106 -161.5t-151.5 -105t-196.5 -37.5zM625 248
q122 0 182.5 124.5t60.5 346.5q0 219 -61.5 345t-185.5 126q-86 0 -142.5 -60.5t-81 -163.5t-24.5 -247q0 -471 252 -471z" />
    <glyph glyph-name="one" unicode="1" horiz-adv-x="794" 
d="M344 0v1104q-54 -36 -144.5 -65t-160.5 -35v299q65 9 149.5 46t155.5 85h295v-1434h-295z" />
    <glyph glyph-name="two" unicode="2" horiz-adv-x="1157" 
d="M106 0v274l490 422q105 89 145.5 152t40.5 147q0 79 -56 136t-148 57q-107 0 -168 -68t-58 -182l-274 76q12 200 153 324t347 124q136 0 250 -59t181.5 -166t67.5 -238q0 -79 -18.5 -147t-57 -128t-84 -109.5t-112.5 -106.5l-273 -234h547v-274h-973z" />
    <glyph glyph-name="three" unicode="3" horiz-adv-x="1193" 
d="M588 -29q-113 0 -209.5 34.5t-161.5 93.5t-101.5 136.5t-37.5 163.5l272 80q3 -99 69.5 -166t168.5 -67t167.5 63t65.5 160q0 99 -64.5 161t-168.5 62q-49 0 -84 -14l-150 178l322 303h-547v275h893v-275l-242 -241q67 -12 125 -44t106.5 -85t76.5 -135.5t28 -184.5
q0 -217 -149 -357.5t-379 -140.5z" />
    <glyph glyph-name="four" unicode="4" horiz-adv-x="1181" 
d="M686 0l2 350h-637v215l615 869h315l2 -834h147v-250h-147l-2 -350h-295zM375 600h313l-2 428z" />
    <glyph glyph-name="five" unicode="5" horiz-adv-x="1183" 
d="M584 -29q-139 0 -255.5 56t-182.5 150.5t-68 205.5l272 82q3 -101 69 -160t165 -59q97 0 162 62.5t65 160.5q0 99 -65 161t-162 62q-66 0 -118 -24.5t-83 -63.5l-252 92l74 738h801v-277h-547l-27 -250q72 37 176 37q220 0 358.5 -127.5t139.5 -345.5
q-1 -150 -69.5 -264.5t-186.5 -175t-266 -60.5z" />
    <glyph glyph-name="six" unicode="6" horiz-adv-x="1208" 
d="M612 -29q-138 0 -241 48.5t-167 140t-95 217t-31 285.5q0 190 29.5 333.5t93.5 250t171 161.5t255 55q193 0 311.5 -99t157.5 -267l-258 -76q-27 87 -76 127.5t-135 40.5q-226 0 -242 -328q23 29 92 60.5t174 31.5q207 0 343 -133.5t136 -353.5q0 -219 -148 -356.5
t-370 -137.5zM612 244q97 0 160.5 63t63.5 160t-63 158t-161 61q-99 0 -162 -61.5t-63 -157.5t63.5 -159.5t161.5 -63.5z" />
    <glyph glyph-name="seven" unicode="7" horiz-adv-x="1052" 
d="M281 0q43 275 156 611.5t233 547.5h-619v275h950v-275q-136 -214 -260.5 -551t-165.5 -608h-294z" />
    <glyph glyph-name="eight" unicode="8" horiz-adv-x="1187" 
d="M944 768q78 -58 122 -144.5t44 -191.5q0 -133 -68.5 -239t-186 -164t-261.5 -58q-222 0 -369 129.5t-147 331.5q0 103 44 189.5t122 146.5q-117 108 -117 276q0 183 133.5 300.5t333.5 117.5q196 0 331.5 -118t135.5 -300q0 -162 -117 -276zM414 1044q0 -75 52 -122.5
t128 -47.5q75 0 127.5 47.5t52.5 122.5t-52 121.5t-128 46.5q-77 0 -128.5 -46.5t-51.5 -121.5zM594 238q92 0 156.5 55t64.5 143q0 90 -64.5 147.5t-156.5 57.5q-94 0 -157.5 -57t-63.5 -148q0 -89 63.5 -143.5t157.5 -54.5z" />
    <glyph glyph-name="nine" unicode="9" horiz-adv-x="1208" 
d="M596 1462q272 0 403 -181.5t131 -508.5q0 -190 -29.5 -333.5t-93 -250.5t-170.5 -162t-255 -55q-193 0 -311.5 99.5t-157.5 267.5l258 76q27 -87 76 -127.5t135 -40.5q225 0 241 327q-23 -29 -92 -60.5t-174 -31.5q-207 0 -343 134t-136 354q0 219 148 356t370 137z
M596 1190q-97 0 -160 -63t-63 -160t62.5 -158t160.5 -61q99 0 162 61.5t63 157.5t-63.5 159.5t-161.5 63.5z" />
    <glyph glyph-name="colon" unicode=":" horiz-adv-x="454" 
d="M227 592q-71 0 -121.5 51t-50.5 121t50.5 121t121.5 51t121.5 -51t50.5 -121t-50.5 -121t-121.5 -51zM227 -14q-71 0 -121.5 51t-50.5 121t50.5 121t121.5 51t121.5 -51t50.5 -121t-50.5 -121t-121.5 -51z" />
    <glyph glyph-name="semicolon" unicode=";" horiz-adv-x="473" 
d="M248 592q-72 0 -123 50.5t-51 119.5q0 72 51 123t123 51q69 0 119.5 -51t50.5 -123q0 -69 -50.5 -119.5t-119.5 -50.5zM88 -238q36 48 60.5 111.5t27.5 110.5q-121 45 -121 163q0 71 48.5 123t121.5 52q76 0 126 -49.5t50 -145.5q0 -101 -52 -229t-146 -220z" />
    <glyph glyph-name="equal" unicode="=" 
d="M102 848v266h1024v-266h-1024zM102 319v267h1024v-267h-1024z" />
    <glyph glyph-name="question" unicode="?" horiz-adv-x="1099" 
d="M545 1466q217 0 358 -133t141 -332q0 -148 -83 -262.5t-242 -163.5v-141h-293v326h74q127 0 193 66.5t69 162.5q0 86 -58.5 144.5t-154.5 58.5q-111 0 -169 -65.5t-58 -174.5l-267 72q12 198 147.5 320t342.5 122zM575 330q69 0 119.5 -51t50.5 -121t-50.5 -121
t-119.5 -51q-72 0 -123 50.5t-51 121.5t51 121.5t123 50.5z" />
    <glyph glyph-name="at" unicode="@" horiz-adv-x="1687" 
d="M848 1264q332 0 539.5 -203t207.5 -537q0 -175 -88.5 -273.5t-236.5 -98.5q-81 0 -143 28.5t-93 79.5q-95 -108 -229 -108q-96 0 -165 47.5t-100.5 120t-31.5 159.5q0 72 22.5 139.5t64.5 122.5t109 88t148 33q65 0 112 -25t72 -59l8 66h164l-34 -438q6 -66 92 -66
q59 0 96 54.5t37 129.5q0 253 -149.5 403t-401.5 150q-154 0 -281.5 -74.5t-200.5 -204t-73 -284.5t71.5 -283.5t199 -203t284.5 -74.5q89 0 170.5 26t138.5 68l109 -147q-75 -59 -189 -96t-229 -37q-208 0 -381.5 97.5t-274 269.5t-100.5 380q0 153 60 292t161 239.5
t241 159.5t294 59zM840 334q77 0 121.5 58t44.5 134q0 65 -35.5 109.5t-102.5 44.5q-79 0 -124.5 -58.5t-45.5 -134.5q0 -64 37 -108.5t105 -44.5z" />
    <glyph glyph-name="A" unicode="A" horiz-adv-x="1441" 
d="M1112 0l-104 283h-572l-104 -283h-303l538 1434h310l536 -1434h-301zM535 549h374l-188 506z" />
    <glyph glyph-name="B" unicode="B" horiz-adv-x="1255" 
d="M141 0v1434h537q223 0 341 -104t118 -281q0 -205 -185 -299v-5q43 -13 81.5 -37.5t73.5 -63t56 -97t21 -129.5q0 -194 -136 -306t-358 -112h-549zM436 850h232q91 0 136.5 43.5t45.5 122.5t-47.5 119.5t-134.5 40.5h-232v-326zM436 258h250q103 0 153 47.5t50 124.5
q0 81 -49.5 129.5t-151.5 48.5h-252v-350z" />
    <glyph glyph-name="C" unicode="C" horiz-adv-x="1519" 
d="M807 -27q-154 0 -285.5 52.5t-226.5 147.5t-149 235.5t-54 310.5q0 216 89.5 385.5t251.5 264.5t368 95q153 0 279 -47t223 -148.5t145 -250.5l-285 -92q-33 120 -121 192t-237 72q-182 0 -300 -135.5t-118 -337.5q0 -209 122 -340t304 -131q143 0 229 67.5t119 169.5
l281 -92q-167 -418 -635 -418z" />
    <glyph glyph-name="D" unicode="D" horiz-adv-x="1437" 
d="M141 0v1434h525q314 0 497 -197t183 -520q0 -165 -54.5 -301.5t-147.5 -226.5t-217 -139.5t-263 -49.5h-523zM436 266h221q106 0 185 39t123 105.5t65 143.5t21 165q0 448 -412 448h-203v-901z" />
    <glyph glyph-name="E" unicode="E" horiz-adv-x="1140" 
d="M141 0v1434h918v-267h-623v-317h535v-258h-535v-326h623v-266h-918z" />
    <glyph glyph-name="F" unicode="F" horiz-adv-x="1138" 
d="M141 0v1434h916v-267h-621v-352h539v-258h-539v-557h-295z" />
    <glyph glyph-name="G" unicode="G" horiz-adv-x="1597" 
d="M805 -29q-210 0 -373.5 97.5t-251.5 267t-88 381.5q0 208 88 377.5t250 268.5t367 99q137 0 247 -32t184.5 -90t123.5 -126.5t80 -152.5l-279 -94q-86 221 -340 221q-125 0 -223 -64.5t-150.5 -171.5t-52.5 -235q0 -201 122 -336t314 -135q76 0 138.5 20.5t102 51.5
t68 73.5t42 82t18.5 81.5h-289v250h582v-805h-197l-43 137q-18 -24 -50.5 -49t-85 -53t-132.5 -46t-172 -18z" />
    <glyph glyph-name="H" unicode="H" horiz-adv-x="1452" 
d="M141 0v1434h295v-570h580v570h295v-1434h-295v590h-580v-590h-295z" />
    <glyph glyph-name="I" unicode="I" horiz-adv-x="577" 
d="M141 0v1434h295v-1434h-295z" />
    <glyph glyph-name="J" unicode="J" horiz-adv-x="1099" 
d="M498 -29q-191 0 -319.5 109t-137.5 295v123l287 -58v-28q0 -72 44 -119t130 -47q88 0 129 55t41 150v983h295v-977q0 -243 -127 -364.5t-342 -121.5z" />
    <glyph glyph-name="K" unicode="K" horiz-adv-x="1390" 
d="M993 -2l-415 623l-146 -158v-463h-291v1434h291v-547h17l491 547h383l-541 -590l580 -846h-369z" />
    <glyph glyph-name="L" unicode="L" horiz-adv-x="1081" 
d="M141 0v1434h295v-1162h598v-272h-893z" />
    <glyph glyph-name="M" unicode="M" horiz-adv-x="1828" 
d="M1686 1434l-3 -1434h-292v883l-377 -883h-201l-375 874v-874h-295v1434h326l444 -1035l445 1035h328z" />
    <glyph glyph-name="N" unicode="N" horiz-adv-x="1503" 
d="M143 0v1434h303l619 -951v951h295v-1434h-301l-621 948v-948h-295z" />
    <glyph glyph-name="O" unicode="O" horiz-adv-x="1654" 
d="M827 -27q-138 0 -257.5 40.5t-206 111.5t-148.5 165t-92.5 203.5t-30.5 225.5q0 117 30.5 226t92 203.5t148 165t206 110.5t258.5 40q172 0 313.5 -61.5t232.5 -166t140.5 -237.5t49.5 -280q0 -116 -31 -225.5t-93 -203.5t-149 -165t-206 -111.5t-257 -40.5zM827 248
q204 0 322.5 133t118.5 338q0 206 -118 338.5t-323 132.5t-322.5 -132.5t-117.5 -338.5t117.5 -338.5t322.5 -132.5z" />
    <glyph glyph-name="P" unicode="P" horiz-adv-x="1239" 
d="M141 0v1434h539q76 0 145.5 -15t134 -50t111.5 -87.5t75 -133.5t28 -181q0 -96 -28 -176t-74.5 -133t-108.5 -90t-128.5 -53.5t-136.5 -16.5h-262v-498h-295zM436 764h223q60 0 104.5 18t69 48.5t35.5 65t11 73.5q0 81 -54.5 139.5t-167.5 58.5h-221v-403z" />
    <glyph glyph-name="Q" unicode="Q" horiz-adv-x="1654" 
d="M1563 719q0 -253 -138 -451l136 -135l-195 -188l-137 137q-175 -109 -402 -109q-138 0 -257.5 40.5t-206 111.5t-148.5 165t-92.5 203.5t-30.5 225.5q0 117 30.5 226t92 203.5t148 165t206 110.5t258.5 40q172 0 313.5 -61.5t232.5 -166t140.5 -237.5t49.5 -280zM827 248
q110 0 197 41l-141 141l194 188l140 -139q51 108 51 240q0 206 -118 338.5t-323 132.5t-322.5 -132.5t-117.5 -338.5t117.5 -338.5t322.5 -132.5z" />
    <glyph glyph-name="R" unicode="R" horiz-adv-x="1290" 
d="M141 0v1434h551q215 0 342 -123.5t127 -309.5q0 -162 -72 -268t-192 -153l328 -580h-324l-293 537h-172v-537h-295zM436 795h228q100 0 152 53.5t52 132.5q0 82 -52 134t-152 52h-228v-372z" />
    <glyph glyph-name="S" unicode="S" horiz-adv-x="1230" 
d="M623 -27q-214 0 -358 105.5t-195 300.5l276 80q36 -113 97.5 -166t179.5 -53q112 0 177.5 45t65.5 129q0 71 -58.5 111.5t-189.5 64.5q-260 46 -386 152.5t-126 287.5q0 189 142.5 311.5t374.5 122.5q196 0 329.5 -102t177.5 -287l-274 -78q-29 105 -82 153t-151 48
q-102 0 -162 -42t-60 -126q0 -65 63 -99.5t206 -64.5q255 -53 373 -160t118 -292q0 -197 -154 -319t-384 -122z" />
    <glyph glyph-name="T" unicode="T" horiz-adv-x="1187" 
d="M446 0v1159h-399v275h1094v-275h-400v-1159h-295z" />
    <glyph glyph-name="U" unicode="U" horiz-adv-x="1445" 
d="M725 -29q-94 0 -177.5 20t-159 66t-129.5 115.5t-86 174t-32 235.5v852h295v-838q0 -178 70.5 -264t218.5 -86q147 0 216 88.5t69 261.5v838h295v-854q0 -163 -46 -283.5t-127.5 -190t-183 -102.5t-223.5 -33z" />
    <glyph glyph-name="V" unicode="V" horiz-adv-x="1441" 
d="M1096 1434h317l-530 -1434h-322l-532 1434h317l375 -1043z" />
    <glyph glyph-name="W" unicode="W" horiz-adv-x="1984" 
d="M1653 1434h303l-404 -1434h-292l-271 1020l-264 -1020h-295l-401 1434h303l258 -1002l258 1002h293l258 -979z" />
    <glyph glyph-name="X" unicode="X" horiz-adv-x="1409" 
d="M1380 0h-346l-329 492l-328 -492h-348l483 727l-465 707h348l310 -471l311 471h348l-465 -703z" />
    <glyph glyph-name="Y" unicode="Y" horiz-adv-x="1363" 
d="M535 0v549l-506 885h323l328 -588l330 588h325l-506 -885v-549h-294z" />
    <glyph glyph-name="Z" unicode="Z" horiz-adv-x="1245" 
d="M84 0v258l704 909h-661v267h1032v-258l-704 -910h704v-266h-1075z" />
    <glyph glyph-name="backslash" unicode="\" horiz-adv-x="937" 
d="M883 0h-289l-559 1434h289z" />
    <glyph glyph-name="underscore" unicode="_" horiz-adv-x="1024" 
d="M0 -352v250h1024v-250h-1024z" />
    <glyph glyph-name="a" unicode="a" horiz-adv-x="1058" 
d="M418 -29q-89 0 -167 35t-130.5 110t-52.5 177q0 45 9 83t35.5 81t70.5 75.5t120 59.5t178 41l193 26v7q0 165 -158 165q-82 0 -125 -36t-55 -109l-254 62q48 161 152.5 237t293.5 76q67 0 129 -13t118.5 -42.5t98 -74t66.5 -111t25 -148.5v-672h-240l-35 86
q-86 -115 -272 -115zM502 203q74 0 123 42t49 111v111l-178 -27q-82 -11 -116 -43t-34 -86q0 -48 41.5 -78t114.5 -30z" />
    <glyph glyph-name="b" unicode="b" horiz-adv-x="1275" 
d="M700 -29q-111 0 -188.5 43.5t-122.5 100.5l-39 -115h-237v1434h290v-502q39 52 118.5 90.5t183.5 38.5q137 0 251.5 -69t182 -194.5t67.5 -281.5t-69.5 -281.5t-185 -194.5t-251.5 -69zM657 233q109 0 183.5 80t74.5 203q0 122 -75 202.5t-183 80.5q-110 0 -182 -79
t-72 -204q0 -124 72.5 -203.5t181.5 -79.5z" />
    <glyph glyph-name="c" unicode="c" horiz-adv-x="1153" 
d="M610 -29q-150 0 -273 68.5t-195 193.5t-72 283q0 239 154.5 392t385.5 153q170 0 296.5 -89.5t176.5 -242.5l-266 -88q-23 70 -78 110t-129 40q-109 0 -179.5 -76.5t-70.5 -198.5q0 -121 70.5 -197.5t179.5 -76.5q71 0 122.5 34t76.5 97l264 -88q-56 -147 -178 -230.5
t-285 -83.5z" />
    <glyph glyph-name="d" unicode="d" horiz-adv-x="1275" 
d="M575 -29q-137 0 -252.5 69t-184 194.5t-68.5 281.5t67.5 281.5t182 194.5t251.5 69q104 0 181.5 -38.5t119.5 -90.5v502h291v-1434h-239l-39 115q-42 -56 -120.5 -100t-189.5 -44zM618 233q109 0 181.5 79.5t72.5 203.5q0 125 -72 204t-182 79q-108 0 -183 -80.5
t-75 -202.5q0 -123 74.5 -203t183.5 -80z" />
    <glyph glyph-name="e" unicode="e" horiz-adv-x="1155" 
d="M1085 426h-741q10 -86 80.5 -151.5t173.5 -65.5q91 0 147.5 42t75.5 93l242 -72q-50 -137 -166.5 -219t-298.5 -82q-144 0 -264 67t-192 192.5t-72 285.5q0 156 70 281.5t190.5 194.5t265.5 69q225 0 357 -149t132 -388v-98zM834 625q-1 26 -14 58t-39 66t-74 57t-109 23
q-107 0 -171 -59t-81 -145h488z" />
    <glyph glyph-name="f" unicode="f" horiz-adv-x="806" 
d="M213 0v778h-172v254h172v111q0 153 89.5 238t219.5 85q177 0 273 -96l-117 -201q-38 33 -90 33q-84 0 -84 -98v-72h244v-254h-244v-778h-291z" />
    <glyph glyph-name="g" unicode="g" horiz-adv-x="1253" 
d="M600 -430q-201 0 -323 92t-164 244l270 61q16 -70 70.5 -110.5t146.5 -40.5q114 0 182 60t68 179v97q-32 -55 -109 -94.5t-180 -39.5q-208 0 -349.5 144.5t-141.5 376.5q0 153 66.5 273.5t177.5 184.5t245 64q108 0 184 -44t107 -97l53 112h238v-973
q0 -234 -148.5 -361.5t-392.5 -127.5zM604 281q107 0 176.5 69.5t69.5 188.5t-69.5 189.5t-176.5 70.5q-105 0 -174.5 -70.5t-69.5 -189.5t68.5 -188.5t175.5 -69.5z" />
    <glyph glyph-name="h" unicode="h" horiz-adv-x="1175" 
d="M113 0v1434h286v-504q110 131 289 131q189 0 282 -113.5t93 -349.5v-598h-289v563q0 121 -46.5 173t-133.5 52q-89 0 -142 -59t-53 -176v-553h-286z" />
    <glyph glyph-name="i" unicode="i" horiz-adv-x="526" 
d="M260 1159q-65 0 -111.5 47t-46.5 113q0 65 47 112.5t111 47.5q66 0 114 -47.5t48 -112.5q0 -66 -48 -113t-114 -47zM117 0v1032h291v-1032h-291z" />
    <glyph glyph-name="j" unicode="j" horiz-adv-x="542" 
d="M279 1159q-65 0 -111.5 47t-46.5 113q0 65 47 112.5t111 47.5q66 0 113.5 -47.5t47.5 -112.5q0 -66 -47.5 -113t-113.5 -47zM115 -430q-100 0 -166.5 29t-100.5 65l115 209q37 -33 88 -33q41 0 62.5 26.5t21.5 72.5v1093h291v-1136q0 -154 -90 -240t-221 -86z" />
    <glyph glyph-name="k" unicode="k" horiz-adv-x="1128" 
d="M776 0l-291 418l-82 -88v-330h-290v1434h290v-729l306 327h350l-383 -409l428 -623h-328z" />
    <glyph glyph-name="l" unicode="l" horiz-adv-x="516" 
d="M113 0v1434h290v-1434h-290z" />
    <glyph glyph-name="m" unicode="m" horiz-adv-x="1726" 
d="M113 0v1032h237l41 -112q43 58 124 99.5t183 41.5q192 0 271 -146q48 61 128 103.5t187 42.5q155 0 242.5 -94.5t87.5 -290.5v-676h-291v604q0 187 -149 187q-75 0 -119.5 -52.5t-44.5 -154.5v-584h-291v604q0 94 -39.5 140.5t-112.5 46.5q-75 0 -119.5 -52.5
t-44.5 -154.5v-584h-290z" />
    <glyph glyph-name="n" unicode="n" horiz-adv-x="1179" 
d="M113 0v1032h237l43 -117q112 146 297 146q189 0 283 -113.5t94 -349.5v-598h-291v567q0 224 -178 224q-90 0 -142.5 -59.5t-52.5 -176.5v-555h-290z" />
    <glyph glyph-name="o" unicode="o" horiz-adv-x="1218" 
d="M610 -29q-149 0 -272 68.5t-195.5 194t-72.5 282.5q0 118 43 220.5t115.5 173t172 111t209.5 40.5t208.5 -40.5t171.5 -111t116 -173t43 -220.5t-43 -220.5t-116 -173t-171.5 -111t-208.5 -40.5zM610 242q105 0 176.5 76.5t71.5 197.5q0 120 -72 197.5t-176 77.5
q-108 0 -179 -77t-71 -198q0 -122 71 -198t179 -76z" />
    <glyph glyph-name="p" unicode="p" horiz-adv-x="1275" 
d="M700 1061q136 0 251.5 -69t185 -194.5t69.5 -281.5t-67.5 -281.5t-182 -194.5t-251.5 -69q-104 0 -183 39t-119 90v-501h-290v1433h237l39 -112q45 55 122.5 98t188.5 43zM657 799q-109 0 -181.5 -79.5t-72.5 -203.5t72.5 -203.5t181.5 -79.5q108 0 183 80.5t75 202.5
q0 123 -74.5 203t-183.5 80z" />
    <glyph glyph-name="q" unicode="q" horiz-adv-x="1275" 
d="M575 1061q111 0 189 -43t121 -98l39 112h239v-1433h-291v501q-43 -52 -120.5 -90.5t-180.5 -38.5q-137 0 -251.5 69t-182 194.5t-67.5 281.5t68.5 281.5t184 194.5t252.5 69zM618 799q-109 0 -183.5 -80t-74.5 -203q0 -122 75 -202.5t183 -80.5q109 0 181.5 79.5
t72.5 203.5t-72.5 203.5t-181.5 79.5z" />
    <glyph glyph-name="r" unicode="r" horiz-adv-x="827" 
d="M113 0v1032h237l43 -112q34 59 97 100t151 41q104 0 174 -47l-102 -258q-40 32 -115 32q-86 0 -140.5 -59.5t-54.5 -173.5v-555h-290z" />
    <glyph glyph-name="s" unicode="s" horiz-adv-x="999" 
d="M504 -29q-169 0 -283.5 83t-150.5 222l245 78q38 -153 189 -153q74 0 116 27t42 73q0 73 -168 100q-73 13 -127.5 28t-108.5 41t-88.5 59.5t-56 84.5t-21.5 115t26.5 123t76 106t130 75t179.5 28q153 0 257 -77t138 -216l-240 -68q-34 131 -153 131q-67 0 -106.5 -24
t-39.5 -62q0 -39 42 -60.5t143 -41.5q93 -17 160.5 -41.5t120 -63t78.5 -95.5t26 -134q0 -143 -114.5 -240.5t-311.5 -97.5z" />
    <glyph glyph-name="t" unicode="t" horiz-adv-x="815" 
d="M522 -29q-131 0 -220 84.5t-89 239.5v483h-172v254h172v268h291v-268h246v-254h-246v-438q0 -98 86 -98q54 0 88 34l115 -208q-33 -37 -100.5 -67t-170.5 -30z" />
    <glyph glyph-name="u" unicode="u" horiz-adv-x="1179" 
d="M1067 1032v-1032h-238l-41 117q-112 -146 -296 -146q-190 0 -284.5 113.5t-94.5 349.5v598h290v-567q0 -223 179 -223q91 0 142.5 58.5t51.5 176.5v555h291z" />
    <glyph glyph-name="v" unicode="v" horiz-adv-x="1130" 
d="M807 1032h299l-389 -1032h-303l-389 1032h299l241 -698z" />
    <glyph glyph-name="w" unicode="w" horiz-adv-x="1638" 
d="M1323 1032h291l-322 -1032h-297l-176 653l-178 -653h-295l-321 1032h290l185 -694l190 694h260l189 -692z" />
    <glyph glyph-name="x" unicode="x" horiz-adv-x="1124" 
d="M1100 0h-320l-217 307l-221 -307h-317l372 518l-370 514h321l211 -301l215 301h316l-365 -510z" />
    <glyph glyph-name="y" unicode="y" horiz-adv-x="1191" 
d="M788 1032h291v-981q-3 -230 -141.5 -355.5t-368.5 -125.5q-187 0 -301.5 91.5t-154.5 238.5l268 53q27 -137 188 -137q100 0 159.5 60.5t59.5 180.5v93q-53 -62 -120 -97t-170 -35q-379 0 -379 461v553h291v-518q0 -121 46.5 -173t135.5 -52q91 0 143.5 58.5t52.5 174.5
v510z" />
    <glyph glyph-name="z" unicode="z" horiz-adv-x="987" 
d="M76 0v209l473 586h-459v237h811v-207l-473 -587h483v-238h-835z" />
    <glyph glyph-name="uni00A0" unicode="&#xa0;" horiz-adv-x="573" 
 />
    <glyph glyph-name="cent" unicode="&#xa2;" horiz-adv-x="1153" 
d="M610 438q71 0 122.5 34t76.5 97l264 -88q-43 -114 -128 -191t-200 -106v-161h-292v167q-170 47 -276.5 188.5t-106.5 334.5q0 195 105.5 335.5t277.5 188.5v176h292v-172q122 -31 211 -113.5t127 -201.5l-266 -88q-23 70 -78 109.5t-129 39.5q-110 0 -180 -76t-70 -198
q0 -121 70.5 -198t179.5 -77z" />
    <glyph glyph-name="sterling" unicode="&#xa3;" horiz-adv-x="1118" 
d="M479 573v-307h600v-266h-1036v266h141v307h-143v258h143v142q0 124 35.5 218.5t99 153t148 88t186.5 29.5q182 0 303.5 -100.5t139.5 -276.5l-273 -43q-7 61 -50.5 103.5t-123.5 42.5q-86 0 -128 -56t-42 -151v-150h449v-258h-449z" />
    <glyph glyph-name="yen" unicode="&#xa5;" horiz-adv-x="1363" 
d="M1335 1434l-372 -654h200v-233h-334v-131h334v-234h-334v-182h-294v182h-332v234h332v131h-332v233h198l-372 654h323l328 -588l330 588h325z" />
    <glyph glyph-name="copyright" unicode="&#xa9;" horiz-adv-x="1695" 
d="M848 -27q-203 0 -374.5 100t-271.5 271.5t-100 374.5q0 152 59 290t159 237.5t238 158.5t290 59t290 -59t237.5 -158.5t158.5 -237.5t59 -290t-59 -290t-158.5 -238t-237.5 -159t-290 -59zM848 145q156 0 288 77t208.5 209t76.5 288q0 117 -45.5 223t-122 182.5
t-182.5 122t-223 45.5q-156 0 -288 -76.5t-209 -208.5t-77 -288t77 -288t209 -209t288 -77zM844 322q-166 0 -272.5 108t-106.5 289q0 175 105 286t272 111q125 0 216.5 -58.5t129.5 -178.5l-160 -52q-37 134 -184 134q-93 0 -153 -69t-60 -173q0 -108 63 -175t156 -67
q73 0 117 34t59 85l160 -51q-90 -223 -342 -223z" />
    <glyph glyph-name="paragraph" unicode="&#xb6;" horiz-adv-x="1390" 
d="M1343 1434v-217h-204v-1618h-244l-2 1618h-195v-1618h-243v1015q-169 0 -288.5 120.5t-119.5 289.5t120 289.5t290 120.5h886z" />
    <glyph glyph-name="multiply" unicode="&#xd7;" 
d="M1108 1016l-299 -299l299 -299l-193 -193l-299 299l-301 -299l-190 193l299 299l-299 299l190 192l301 -299l299 299z" />
    <glyph glyph-name="divide" unicode="&#xf7;" 
d="M614 995q-70 0 -121 50.5t-51 121.5t51 121.5t121 50.5t121 -50.5t51 -121.5t-51 -121.5t-121 -50.5zM61 594v250h1106v-250h-1106zM614 117q-70 0 -121 50.5t-51 121.5t51 121.5t121 50.5t121 -50.5t51 -121.5t-51 -121.5t-121 -50.5z" />
    <glyph glyph-name="endash" unicode="&#x2013;" 
d="M102 479v271h1024v-271h-1024z" />
    <glyph glyph-name="emdash" unicode="&#x2014;" horiz-adv-x="2252" 
d="M102 481v267h2048v-267h-2048z" />
    <glyph glyph-name="quoteleft" unicode="&#x2018;" horiz-adv-x="456" 
d="M369 1499q-36 -48 -60.5 -111t-27.5 -110q120 -45 120 -164q0 -71 -48.5 -122.5t-121.5 -51.5q-76 0 -126 49.5t-50 145.5q0 101 52.5 228.5t146.5 219.5z" />
    <glyph glyph-name="quoteright" unicode="&#x2019;" horiz-adv-x="456" 
d="M88 1018q36 48 60.5 111t27.5 110q-121 45 -121 164q0 71 48.5 122.5t121.5 51.5q76 0 126 -49.5t50 -145.5q0 -101 -52 -228.5t-146 -219.5z" />
    <glyph glyph-name="quotedblleft" unicode="&#x201c;" horiz-adv-x="911" 
d="M369 1499q-36 -48 -60.5 -111t-27.5 -110q120 -45 120 -164q0 -71 -48.5 -122.5t-121.5 -51.5q-76 0 -126 49.5t-50 145.5q0 101 52.5 228.5t146.5 219.5zM823 1499q-36 -48 -60.5 -111t-27.5 -110q121 -45 121 -164q0 -71 -48.5 -122.5t-121.5 -51.5q-76 0 -126 49.5
t-50 145.5q0 101 52.5 228.5t146.5 219.5z" />
    <glyph glyph-name="quotedblright" unicode="&#x201d;" horiz-adv-x="911" 
d="M88 1016q36 48 60.5 111t27.5 110q-121 45 -121 164q0 71 48.5 122.5t121.5 51.5q76 0 126 -49.5t50 -145.5q0 -101 -52 -228.5t-146 -219.5zM543 1016q36 48 60.5 111t27.5 110q-121 45 -121 164q0 71 48.5 122.5t121.5 51.5q76 0 126 -49.5t50 -145.5
q0 -101 -52.5 -228.5t-146.5 -219.5z" />
    <glyph glyph-name="bullet" unicode="&#x2022;" horiz-adv-x="583" 
d="M293 379q-100 0 -169 68t-69 167q0 97 69.5 166.5t168.5 69.5q95 0 165 -70t70 -166q0 -99 -69.5 -167t-165.5 -68z" />
    <glyph glyph-name="Euro" unicode="&#x20ac;" horiz-adv-x="1474" 
d="M1188 365l215 -172q-188 -222 -496 -222q-238 0 -413 120t-246 341h-207l63 225h105q-2 20 -2 62q0 33 2 49h-168l63 225h146q71 215 246 342t411 127q313 0 492 -200l-215 -183q-98 109 -273 109q-107 0 -195 -52t-143 -143h426l-67 -225h-432q-2 -18 -2 -55
q0 -38 2 -56h399l-68 -225h-262q55 -90 146.5 -138t202.5 -48q84 0 154 31.5t116 87.5z" />
    <glyph glyph-name="minus" unicode="&#x2212;" 
d="M102 584v266h1024v-266h-1024z" />
    </font>
</defs>
</svg>
