<?xml version="1.0" encoding="UTF-8"?>
<svg width="14px" height="9px" viewBox="0 0 14 9" version="1.1" xmlns="http://www.w3.org/2000/svg" xmlns:xlink="http://www.w3.org/1999/xlink">
    <title>youtube</title>
    <g id="Symbols" stroke="none" stroke-width="1" fill="none" fill-rule="evenodd">
        <g id="Footer-/-Globus" transform="translate(-1350.000000, -259.000000)" fill="#FFFFFF" fill-rule="nonzero">
            <g id="Group" transform="translate(1204.000000, 207.000000)">
                <path d="M158.000857,60.7307898 C158.551568,60.5826579 158.985298,60.1642857 159.132515,59.6100039 C159.365098,58.7363541 159.395435,57.0373644 159.399392,56.6090133 L159.399392,56.4091824 C159.395435,55.9808358 159.365098,54.2818634 159.132515,53.4082136 C158.985298,52.8539089 158.551568,52.4173636 158.000857,52.2692316 C157.13146,52.0347583 153.98291,52.0045036 153.184856,52.0005998 L152.815113,52.0005998 C152.017063,52.0045036 148.868528,52.0347583 147.999111,52.2692316 C147.4484,52.4173865 147.01467,52.8539089 146.867453,53.4082136 C146.63487,54.2818634 146.604533,55.9808358 146.600576,56.4091824 L146.599982,56.4974717 C146.599982,56.5051348 146.599982,56.5090973 146.599982,56.5090973 L146.599982,56.5207231 L146.599982,56.5207231 L146.600576,56.6090133 C146.604533,57.0373644 146.63487,58.7363541 146.867453,59.6100039 C147.01467,60.1642857 147.4484,60.5826579 147.999111,60.7307898 C148.868528,60.9652632 152.017063,60.9955178 152.815113,60.9994217 L153.184855,60.9994217 C153.982905,60.9955178 157.13144,60.9652632 158.000857,60.7307898 Z M151.690874,58.412291 L151.690874,54.6059036 L155.036318,56.5091431 L151.690874,58.412291 Z" id="youtube"></path>
            </g>
        </g>
    </g>
</svg>