<?xml version="1.0" encoding="UTF-8"?>
<svg width="11px" height="12px" viewBox="0 0 11 12" version="1.1" xmlns="http://www.w3.org/2000/svg" xmlns:xlink="http://www.w3.org/1999/xlink">
    <title>times</title>
    <g id="Desktop" stroke="none" stroke-width="1" fill="none" fill-rule="evenodd">
        <g id="01.2-Home-Search-Dropdown" transform="translate(-1548.000000, -161.000000)" fill="#102257" fill-rule="nonzero">
            <path d="M1550.3728,172.212191 L1553.49999,169.085001 L1556.62718,172.212191 C1557.0109,172.595948 1557.6334,172.595948 1558.01716,172.212191 L1558.71216,171.517185 C1559.09592,171.133427 1559.09592,170.511267 1558.71216,170.127204 L1555.58497,167.00002 L1558.71216,163.872824 C1559.09592,163.489097 1559.09592,162.866906 1558.71216,162.482844 L1558.01716,161.787838 C1557.6334,161.40408 1557.01124,161.40408 1556.62718,161.787838 L1553.49999,164.915028 L1550.3728,161.787838 C1549.98907,161.40408 1549.36688,161.40408 1548.98282,161.787838 L1548.28781,162.482844 C1547.90405,162.866601 1547.90405,163.488762 1548.28781,163.872824 L1551.415,167.00002 L1548.28781,170.127204 C1547.90405,170.510931 1547.90405,171.133122 1548.28781,171.517185 L1548.98282,172.212191 C1549.36657,172.595948 1549.98907,172.595948 1550.3728,172.212191 Z" id="times"></path>
        </g>
    </g>
</svg>