<?xml version="1.0" encoding="UTF-8"?>
<svg width="14px" height="14px" viewBox="0 0 14 14" version="1.1" xmlns="http://www.w3.org/2000/svg" xmlns:xlink="http://www.w3.org/1999/xlink">
    <title></title>
    <g id="Symbols" stroke="none" stroke-width="1" fill="none" fill-rule="evenodd">
        <g id="Nav-/-Globus-v1" transform="translate(-1533.000000, -35.000000)" fill="#102257" fill-rule="nonzero">
            <path d="M1546.15157,48.5361292 L1546.72539,47.9623123 C1546.84473,47.8429717 1546.84473,47.6499885 1546.72539,47.5306727 L1543.64296,44.4482483 C1543.58457,44.3898549 1543.5084,44.3593813 1543.42714,44.3593813 L1543.09201,44.3593813 C1543.89181,43.4326257 1544.37676,42.2265739 1544.37676,40.9062645 C1544.37676,37.9888788 1542.01291,35.6250271 1539.09552,35.6250271 C1536.17814,35.6250271 1533.81429,37.9888788 1533.81429,40.9062645 C1533.81429,43.8236503 1536.17814,46.1875019 1539.09552,46.1875019 C1540.41583,46.1875019 1541.62188,45.7025521 1542.54864,44.9027493 L1542.54864,45.2378849 C1542.54864,45.3191397 1542.58164,45.3953114 1542.63751,45.4537047 L1545.71993,48.5361292 C1545.83925,48.6554698 1546.03223,48.6554698 1546.15157,48.5361292 Z M1539.09552,44.9687548 C1536.85099,44.9687548 1535.03303,43.1508003 1535.03303,40.9062645 C1535.03303,38.6617287 1536.85099,36.8437742 1539.09552,36.8437742 C1541.34006,36.8437742 1543.15801,38.6617287 1543.15801,40.9062645 C1543.15801,43.1508003 1541.34006,44.9687548 1539.09552,44.9687548 Z" id=""></path>
        </g>
    </g>
</svg>