<?xml version="1.0" encoding="UTF-8"?>
<svg width="11px" height="13px" viewBox="0 0 11 13" version="1.1" xmlns="http://www.w3.org/2000/svg" xmlns:xlink="http://www.w3.org/1999/xlink">
    <title>atom</title>
    <g id="Desktop" stroke="none" stroke-width="1" fill="none" fill-rule="evenodd">
        <g id="03.2-Gloves-Product-Interior" transform="translate(-960.000000, -308.000000)" fill="#102257" fill-rule="nonzero">
            <path d="M965.249987,320.499996 C966.129464,320.499996 966.916037,319.693144 967.449972,318.423128 C967.631795,318.446336 967.928082,318.466729 968.11137,318.468675 C969.132638,318.468675 969.929328,318.149981 970.293593,317.500004 C970.733159,316.715627 970.448614,315.610909 969.648674,314.499965 C970.448614,313.389021 970.733159,312.284394 970.293593,311.500025 C969.929237,310.849903 969.132821,310.531301 968.11137,310.531346 C967.928082,310.533292 967.631795,310.553685 967.449972,310.576894 C966.916037,309.306877 966.129464,308.500025 965.249987,308.500025 C964.370511,308.500025 963.583938,309.306832 963.050003,310.576848 C962.86818,310.553662 962.571893,310.533269 962.388605,310.531346 C961.367337,310.531392 960.570647,310.849995 960.206382,311.500025 C959.766816,312.284394 960.051361,313.389021 960.851301,314.499965 C960.051361,315.610909 959.766816,316.715627 960.206382,317.500004 C960.570738,318.150072 961.367154,318.468675 962.388605,318.468675 C962.571893,318.466729 962.86818,318.446336 963.050003,318.423128 C963.583938,319.693144 964.370511,320.499996 965.249987,320.499996 Z M965.249987,311.175785 C964.951801,311.052212 964.457349,310.881947 964.146322,310.79575 C964.496327,310.05033 964.912822,309.625022 965.249987,309.625022 C965.587153,309.625022 966.003694,310.050375 966.353699,310.795842 C966.042649,310.882016 965.548174,311.052235 965.249987,311.175785 Z M961.586697,313.624906 C961.140927,312.944808 960.984396,312.361664 961.152028,312.062517 C961.292447,311.812029 961.766346,311.656344 962.38888,311.656298 C962.480455,311.656298 962.58407,311.677447 962.67933,311.683626 C962.599016,311.998384 962.497988,312.515038 962.453859,312.836868 C962.201586,313.040137 961.813106,313.393187 961.586697,313.624906 Z M968.913233,313.624906 C968.686846,313.393187 968.298389,313.040137 968.046139,312.836868 C968.00201,312.515038 967.901005,311.998407 967.820691,311.683672 C967.916088,311.677492 968.01984,311.656298 968.111507,311.656298 C968.733767,311.656298 969.207528,311.811983 969.347924,312.062517 C969.515579,312.361664 969.359002,312.944808 968.913233,313.624906 Z M965.249278,316.750005 C964.007299,316.749776 962.999466,315.741783 962.999466,314.500011 C962.999466,313.258009 964.00746,312.250016 965.249461,312.250016 C966.491462,312.250016 967.499456,313.258009 967.499456,314.500011 C967.499364,315.742012 966.491279,316.750005 965.249278,316.750005 Z M965.249392,315.250013 C965.663393,315.250013 965.999394,314.914011 965.999394,314.500011 C965.998521,314.086697 965.662386,313.750699 965.249072,313.750013 C964.835255,313.750196 964.499394,314.086193 964.499394,314.500011 C964.499394,314.914011 964.835392,315.250013 965.249392,315.250013 Z M962.388605,317.343678 C961.766254,317.343678 961.292447,317.188038 961.152074,316.937505 C960.984396,316.638357 961.140973,316.055213 961.586742,315.375115 C961.813129,315.606835 962.201586,315.959884 962.453859,316.163154 C962.497988,316.484961 962.598993,317.001592 962.679284,317.316349 C962.583932,317.322529 962.480226,317.343678 962.388605,317.343678 Z M968.11137,317.343678 C968.019749,317.343678 967.916043,317.322529 967.820691,317.316349 C967.900982,317.001615 968.001987,316.484961 968.046116,316.163154 C968.298389,315.959884 968.686869,315.606858 968.913278,315.375115 C969.359048,316.055213 969.515579,316.638357 969.347947,316.937505 C969.207528,317.188038 968.733721,317.343678 968.11137,317.343678 Z M965.249987,319.374999 C964.912822,319.374999 964.496281,318.949646 964.146276,318.20418 C964.457326,318.118006 964.951801,317.947787 965.249987,317.824237 C965.548174,317.94781 966.042626,318.118029 966.353653,318.204226 C966.003648,318.949692 965.587153,319.374999 965.249987,319.374999 Z" id="atom"></path>
        </g>
    </g>
</svg>