<?xml version="1.0" encoding="UTF-8"?>
<svg width="14px" height="15px" viewBox="0 0 14 15" version="1.1" xmlns="http://www.w3.org/2000/svg" xmlns:xlink="http://www.w3.org/1999/xlink">
    <title>check-circle</title>
    <g id="Desktop" stroke="none" stroke-width="1" fill="none" fill-rule="evenodd">
        <g id="05.2-About----Careers" transform="translate(-437.000000, -1198.000000)" fill="#102257" fill-rule="nonzero">
            <g id="check-circle-Open-Po" transform="translate(437.218749, 1198.968779)">
                <path d="M6.78123383,13.5624677 C10.5264108,13.5624677 13.5624677,10.5264108 13.5624677,6.78123383 C13.5624677,3.03605691 10.5264108,0 6.78123383,0 C3.03605691,0 0,3.03605691 0,6.78123383 C0,10.5264108 3.03605691,13.5624677 6.78123383,13.5624677 Z M5.3781076,10.3718281 L2.53436438,7.52808493 C2.36354646,7.3572403 2.36354646,7.08019857 2.53436438,6.90935395 L3.15309536,6.29064967 C3.32393998,6.11980505 3.60098171,6.11980505 3.77182633,6.29064967 L5.68748644,8.20633648 L9.79064133,4.10318159 C9.96151266,3.93231027 10.2385544,3.93231027 10.4093723,4.10318159 L11.0281033,4.72188587 C11.1989212,4.89273049 11.1989212,5.16977222 11.0281033,5.34061684 L5.99686528,10.3718548 C5.82599395,10.5426728 5.54897893,10.5426728 5.3781076,10.3718281 Z" id="check-circle"></path>
            </g>
        </g>
    </g>
</svg>