<?xml version="1.0" encoding="UTF-8"?>
<svg width="14px" height="14px" viewBox="0 0 14 14" version="1.1" xmlns="http://www.w3.org/2000/svg" xmlns:xlink="http://www.w3.org/1999/xlink">
    <title>phone</title>
    <g id="Symbols" stroke="none" stroke-width="1" fill="none" fill-rule="evenodd">
        <g id="Nav-/-Globus" transform="translate(-559.000000, -100.000000)" fill="#FFFFFF" fill-rule="nonzero">
            <path d="M561.198071,113.624996 C567.601577,113.624996 572.814255,108.440238 572.814255,102.008813 C572.814255,101.638121 572.560349,101.318185 572.199798,101.23693 L569.640434,100.645335 C569.267188,100.559022 568.8838,100.75198 568.731457,101.104919 L567.550796,103.859795 C567.411148,104.182235 567.505098,104.563094 567.776757,104.786551 L569.145318,105.906265 C568.282039,107.663297 566.852555,109.09531 565.092994,109.958589 L563.973255,108.590052 C563.749823,108.318368 563.368965,108.224418 563.0465,108.364066 L560.294177,109.544727 C559.941239,109.697071 559.74828,110.077929 559.834593,110.451176 L560.423659,113.00801 C560.507443,113.37109 560.827379,113.624996 561.198071,113.624996 Z M561.213296,112.812498 L560.629313,110.283608 L563.356269,109.115642 L564.867008,110.96407 C567.497461,109.730074 568.921886,108.30059 570.150775,105.680279 L568.302346,104.16954 L569.470312,101.442608 L571.999228,102.026591 C571.994144,107.980679 567.167383,112.804886 561.213296,112.812498 Z" id="phone"></path>
        </g>
    </g>
</svg>