<?xml version="1.0" encoding="UTF-8"?>
<svg width="14px" height="10px" viewBox="0 0 14 10" version="1.1" xmlns="http://www.w3.org/2000/svg" xmlns:xlink="http://www.w3.org/1999/xlink">
    <title>envelope</title>
    <g id="Symbols" stroke="none" stroke-width="1" fill="none" fill-rule="evenodd">
        <g id="Footer-/-Globus" transform="translate(-1071.000000, -44.000000)" fill="#102257" fill-rule="nonzero">
            <g id="Group-2" transform="translate(495.000000, 30.000000)">
                <path d="M588.595508,24 C589.268606,24 589.814255,23.4543508 589.814255,22.7812529 L589.814255,15.4687703 C589.814255,14.7956724 589.268606,14.2500232 588.595508,14.2500232 L578.033033,14.2500232 C577.359935,14.2500232 576.814286,14.7956724 576.814286,15.4687703 L576.814286,22.7812529 C576.814286,23.4543508 577.359935,24 578.033033,24 L588.595508,24 Z M583.31427,20.3436595 C582.725006,20.353181 581.877695,19.5448982 581.450271,19.2086715 C579.510248,17.6895521 578.602411,16.9685245 578.033033,16.5048244 L578.033033,15.4687703 L588.595508,15.4687703 L588.595508,16.5048244 C588.026204,16.9684501 587.11859,17.6893289 585.17827,19.2086715 C584.750672,19.5450221 583.903634,20.3530818 583.31427,20.3436595 Z M588.595508,22.7812529 L578.033033,22.7812529 L578.033033,18.0687245 C578.614834,18.5321271 579.439903,19.1823883 580.69748,20.1671406 C581.252427,20.6039872 582.224311,21.5683575 583.31427,21.562481 C584.398874,21.5683575 585.358434,20.6179719 585.930837,20.1673389 C587.188389,19.1826115 588.013682,18.5321767 588.595508,18.0687245 L588.595508,22.7812529 Z" id="envelope"></path>
            </g>
        </g>
    </g>
</svg>