<?xml version="1.0" encoding="UTF-8"?>
<svg width="12px" height="12px" viewBox="0 0 12 12" version="1.1" xmlns="http://www.w3.org/2000/svg" xmlns:xlink="http://www.w3.org/1999/xlink">
    <title></title>
    <g id="Desktop" stroke="none" stroke-width="1" fill="none" fill-rule="evenodd">
        <g id="01-Home" transform="translate(-331.000000, -2097.000000)" fill="#102257" fill-rule="nonzero">
            <path d="M336.968618,2108.65763 L342.285759,2103.34048 C342.404727,2103.22149 342.404727,2103.02858 342.285759,2102.90956 L336.968593,2097.59242 C336.849599,2097.47343 336.65669,2097.47343 336.537697,2097.59242 L336.034994,2098.09515 C335.916025,2098.21412 335.916025,2098.40703 336.034994,2098.52605 L339.973829,2102.46486 L331.304687,2102.46486 C331.136425,2102.46486 331,2102.60128 331,2102.76954 L331,2103.48048 C331,2103.64874 331.136425,2103.78517 331.304687,2103.78517 L339.973829,2103.78517 L336.034994,2107.724 C335.916025,2107.843 335.916025,2108.0359 336.034994,2108.1549 L336.537697,2108.65763 C336.65669,2108.77659 336.849599,2108.77659 336.968618,2108.65763 Z" id=""></path>
        </g>
    </g>
</svg>