<?xml version="1.0" encoding="UTF-8"?>
<svg width="12px" height="11px" viewBox="0 0 12 11" version="1.1" xmlns="http://www.w3.org/2000/svg" xmlns:xlink="http://www.w3.org/1999/xlink">
    <title></title>
    <g id="Symbols" stroke="none" stroke-width="1" fill="none" fill-rule="evenodd">
        <g id="Footer-/-Globus" transform="translate(-1261.000000, -258.000000)" fill="#FFFFFF" fill-rule="nonzero">
            <g id="Group" transform="translate(1204.000000, 207.000000)">
                <path d="M60.7766328,61.3730994 C65.2994874,61.3730994 67.7740832,57.6269078 67.7740832,54.3756719 C67.7740832,54.2690819 67.7740832,54.1624461 67.7664615,54.0558561 C68.2461509,53.7055991 68.6649578,53.2715944 68.9999256,52.7843061 C68.5583221,52.9746438 68.0786326,53.1117208 67.5836997,53.1650043 C68.0938304,52.8604549 68.4821504,52.3807655 68.6649121,51.8096838 C68.1927986,52.0914138 67.6598257,52.2969949 67.1040103,52.4035849 C66.6547392,51.9238955 66.0151763,51.626945 65.3070404,51.626945 C63.944121,51.626945 62.8476652,52.7309996 62.8476652,54.0863202 C62.8476652,54.2766808 62.8705075,54.4670184 62.9085705,54.6497573 C60.8680023,54.5431444 59.04819,53.5685449 57.8375453,52.0761703 C57.6243195,52.4416479 57.5025318,52.860432 57.5025318,53.3172791 C57.5025318,54.1700679 57.9365136,54.9238655 58.5989418,55.3654919 C58.1954241,55.3502942 57.8146801,55.2360825 57.4872883,55.0533436 L57.4872883,55.0837849 C57.4872883,56.2792089 58.3324782,57.269029 59.4593752,57.4974754 C59.253817,57.550759 59.0329923,57.5812231 58.8121905,57.5812231 C58.6522711,57.5812231 58.5,57.5660025 58.3476988,57.5431601 C58.6598929,58.5177824 59.5659881,59.2258953 60.6472005,59.2487606 C59.8020105,59.9111888 58.7436177,60.2995088 57.5939012,60.2995088 C57.38832,60.2995088 57.1979823,60.2918871 57,60.2690676 C58.0888341,60.9695359 59.3832264,61.3730994 60.7766328,61.3730994 Z" id=""></path>
            </g>
        </g>
    </g>
</svg>