<?xml version="1.0" encoding="UTF-8"?>
<svg width="12px" height="12px" viewBox="0 0 12 12" version="1.1" xmlns="http://www.w3.org/2000/svg" xmlns:xlink="http://www.w3.org/1999/xlink">
    <title></title>
    <g id="Desktop" stroke="none" stroke-width="1" fill="none" fill-rule="evenodd">
        <g id="01-Home" transform="translate(-270.000000, -2097.000000)" fill="#102257" fill-rule="nonzero">
            <path d="M275.968618,2108.65763 L281.285759,2103.34048 C281.404727,2103.22149 281.404727,2103.02858 281.285759,2102.90956 L275.968593,2097.59242 C275.849599,2097.47343 275.65669,2097.47343 275.537697,2097.59242 L275.034994,2098.09515 C274.916025,2098.21412 274.916025,2098.40703 275.034994,2098.52605 L278.973829,2102.46486 L270.304687,2102.46486 C270.136425,2102.46486 270,2102.60128 270,2102.76954 L270,2103.48048 C270,2103.64874 270.136425,2103.78517 270.304687,2103.78517 L278.973829,2103.78517 L275.034994,2107.724 C274.916025,2107.843 274.916025,2108.0359 275.034994,2108.1549 L275.537697,2108.65763 C275.65669,2108.77659 275.849599,2108.77659 275.968618,2108.65763 Z" id="" transform="translate(275.687493, 2103.125015) rotate(-180.000000) translate(-275.687493, -2103.125015) "></path>
        </g>
    </g>
</svg>