<?xml version="1.0" encoding="UTF-8"?>
<svg width="14px" height="15px" viewBox="0 0 14 15" version="1.1" xmlns="http://www.w3.org/2000/svg" xmlns:xlink="http://www.w3.org/1999/xlink">
    <title>clock</title>
    <g id="Symbols" stroke="none" stroke-width="1" fill="none" fill-rule="evenodd">
        <g id="Blog-/-Exterior" transform="translate(-1.000000, -304.000000)" fill="#102257" fill-rule="nonzero">
            <g id="clock-2-Min-Read" transform="translate(1.218749, 304.968779)">
                <path d="M6.78123383,13.5624677 C10.5273187,13.5624677 13.5624677,10.5273187 13.5624677,6.78123383 C13.5624677,3.03514901 10.5273187,0 6.78123383,0 C3.03514901,0 0,3.03514901 0,6.78123383 C0,10.5273187 3.03514901,13.5624677 6.78123383,13.5624677 Z M6.78123383,12.2499708 C3.75975666,12.2499708 1.31249687,9.802711 1.31249687,6.78123383 C1.31249687,3.75975666 3.75975666,1.31249687 6.78123383,1.31249687 C9.802711,1.31249687 12.2499708,3.75975666 12.2499708,6.78123383 C12.2499708,9.802711 9.802711,12.2499708 6.78123383,12.2499708 Z M8.93043678,9.32419652 L9.44451941,8.6159844 C9.55114376,8.46834453 9.52107639,8.26326689 9.37340981,8.15661584 L7.54685701,6.82772344 L7.54685701,2.95311796 C7.54685701,2.77266032 7.39919043,2.62499374 7.21873279,2.62499374 L6.34373488,2.62499374 C6.16327724,2.62499374 6.01561066,2.77266032 6.01561066,2.95311796 L6.01561066,7.44295635 C6.01561066,7.54685701 6.06482395,7.64528359 6.14960539,7.70819543 L8.47106821,9.39527942 C8.61873479,9.50193047 8.82381243,9.46911271 8.93043678,9.32419652 Z" id="clock"></path>
            </g>
        </g>
    </g>
</svg>