<?xml version="1.0" encoding="UTF-8"?>
<svg width="12px" height="13px" viewBox="0 0 12 13" version="1.1" xmlns="http://www.w3.org/2000/svg" xmlns:xlink="http://www.w3.org/1999/xlink">
    <title>exclamation-circle</title>
    <g id="Desktop" stroke="none" stroke-width="1" fill="none" fill-rule="evenodd">
        <g id="03.2-Gloves-Product-Interior" transform="translate(-1105.000000, -308.000000)" fill="#102257" fill-rule="nonzero">
            <path d="M1110.99999,320.312497 C1114.20991,320.312497 1116.81247,317.710872 1116.81247,314.500011 C1116.81247,311.291026 1114.20991,308.687525 1110.99999,308.687525 C1107.79006,308.687525 1105.1875,311.291026 1105.1875,314.500011 C1105.1875,317.710872 1107.79006,320.312497 1110.99999,320.312497 Z M1110.99999,319.1875 C1108.40939,319.1875 1106.3125,317.091473 1106.3125,314.500011 C1106.3125,311.910288 1108.40948,309.812522 1110.99999,309.812522 C1113.58962,309.812522 1115.68747,311.909487 1115.68747,314.500011 C1115.68747,317.090558 1113.59145,319.1875 1110.99999,319.1875 Z M1111.48244,315.250009 C1111.63229,315.250009 1111.75587,315.132501 1111.76335,314.98279 L1111.92272,311.795298 C1111.93075,311.634669 1111.80267,311.500018 1111.64181,311.500018 L1110.35816,311.500018 C1110.1973,311.500018 1110.06922,311.634669 1110.07725,311.795298 L1110.23662,314.98279 C1110.24411,315.132501 1110.36768,315.250009 1110.51753,315.250009 L1111.48244,315.250009 Z M1110.99999,317.734378 C1111.54278,317.734378 1111.98436,317.292797 1111.98436,316.750005 C1111.98436,316.207213 1111.54278,315.765633 1110.99999,315.765633 C1110.45719,315.765633 1110.01561,316.207213 1110.01561,316.750005 C1110.01561,317.292797 1110.45719,317.734378 1110.99999,317.734378 Z" id="exclamation-circle"></path>
        </g>
    </g>
</svg>