<?xml version="1.0" encoding="UTF-8"?>
<svg width="14px" height="12px" viewBox="0 0 14 12" version="1.1" xmlns="http://www.w3.org/2000/svg" xmlns:xlink="http://www.w3.org/1999/xlink">
    <title>list</title>
    <g id="Symbols" stroke="none" stroke-width="1" fill="none" fill-rule="evenodd">
        <g id="Blog-/-Exterior" transform="translate(-123.000000, -306.000000)" fill="#102257" fill-rule="nonzero">
            <g id="list-Category" transform="translate(123.000000, 306.062526)">
                <path d="M2.18749478,2.62499374 C2.42899506,2.62499374 2.62499374,2.42899506 2.62499374,2.18749478 L2.62499374,0.437498957 C2.62499374,0.195998678 2.42899506,0 2.18749478,0 L0.437498957,0 C0.195998678,0 0,0.195998678 0,0.437498957 L0,2.18749478 C0,2.42899506 0.195998678,2.62499374 0.437498957,2.62499374 L2.18749478,2.62499374 Z M13.5624677,2.18749478 C13.8039679,2.18749478 13.9999666,1.99149611 13.9999666,1.74999583 L13.9999666,0.874997914 C13.9999666,0.633497635 13.8039679,0.437498957 13.5624677,0.437498957 L4.81248853,0.437498957 C4.57098825,0.437498957 4.37498957,0.633497635 4.37498957,0.874997914 L4.37498957,1.74999583 C4.37498957,1.99149611 4.57098825,2.18749478 4.81248853,2.18749478 L13.5624677,2.18749478 Z M2.18749478,6.99998331 C2.42899506,6.99998331 2.62499374,6.80398463 2.62499374,6.56248435 L2.62499374,4.81248853 C2.62499374,4.57098825 2.42899506,4.37498957 2.18749478,4.37498957 L0.437498957,4.37498957 C0.195998678,4.37498957 0,4.57098825 0,4.81248853 L0,6.56248435 C0,6.80398463 0.195998678,6.99998331 0.437498957,6.99998331 L2.18749478,6.99998331 Z M13.5624677,6.56248435 C13.8039679,6.56248435 13.9999666,6.36648568 13.9999666,6.1249854 L13.9999666,5.24998748 C13.9999666,5.0084872 13.8039679,4.81248853 13.5624677,4.81248853 L4.81248853,4.81248853 C4.57098825,4.81248853 4.37498957,5.0084872 4.37498957,5.24998748 L4.37498957,6.1249854 C4.37498957,6.36648568 4.57098825,6.56248435 4.81248853,6.56248435 L13.5624677,6.56248435 Z M2.18749478,11.3749729 C2.42899506,11.3749729 2.62499374,11.1789742 2.62499374,10.9374739 L2.62499374,9.1874781 C2.62499374,8.94597782 2.42899506,8.74997914 2.18749478,8.74997914 L0.437498957,8.74997914 C0.195998678,8.74997914 0,8.94597782 0,9.1874781 L0,10.9374739 C0,11.1789742 0.195998678,11.3749729 0.437498957,11.3749729 L2.18749478,11.3749729 Z M13.5624677,10.9374739 C13.8039679,10.9374739 13.9999666,10.7414752 13.9999666,10.499975 L13.9999666,9.62497705 C13.9999666,9.38347677 13.8039679,9.1874781 13.5624677,9.1874781 L4.81248853,9.1874781 C4.57098825,9.1874781 4.37498957,9.38347677 4.37498957,9.62497705 L4.37498957,10.499975 C4.37498957,10.7414752 4.57098825,10.9374739 4.81248853,10.9374739 L13.5624677,10.9374739 Z" id="list"></path>
            </g>
        </g>
    </g>
</svg>