<?xml version="1.0" encoding="UTF-8"?>
<svg width="14px" height="15px" viewBox="0 0 14 15" version="1.1" xmlns="http://www.w3.org/2000/svg" xmlns:xlink="http://www.w3.org/1999/xlink">
    <title>􏄸</title>
    <g id="Desktop" stroke="none" stroke-width="1" fill="none" fill-rule="evenodd">
        <g id="03.2-Gloves-Product-Interior" transform="translate(-941.000000, -614.000000)" fill="#102257" fill-rule="nonzero">
            <g id="􏄸-A-flexible,-robus" transform="translate(941.218749, 614.968779)">
                <path d="M6.78123383,13.5624677 C10.5273187,13.5624677 13.5624677,10.5273187 13.5624677,6.78123383 C13.5624677,3.03514901 10.5273187,0 6.78123383,0 C3.03514901,0 0,3.03514901 0,6.78123383 C0,10.5273187 3.03514901,13.5624677 6.78123383,13.5624677 Z M5.72714012,11.1439401 C5.57707029,11.1439401 5.36945589,11.0575565 5.26365933,10.9511458 L4.79881668,10.4863031 C4.69240596,10.3805066 4.60602234,10.1728922 4.60602234,10.0228223 C4.60602234,9.8727792 4.69240596,9.66513809 4.79881668,9.55934153 L7.57692438,6.78123383 L4.79881668,4.00312614 C4.69240596,3.89732958 4.60602234,3.68968847 4.60602234,3.53964534 C4.60602234,3.38957551 4.69240596,3.1819611 4.79881668,3.07616454 L5.26365933,2.6113219 C5.36945589,2.50491117 5.57707029,2.41852756 5.72714012,2.41852756 C5.87718325,2.41852756 6.08482436,2.50491117 6.19062092,2.6113219 L9.89569021,6.31639119 C10.0022345,6.42256159 10.0886982,6.63081686 10.0886982,6.78123383 C10.0886982,6.9316508 10.0022345,7.13990607 9.89569021,7.24607647 L6.19062092,10.9511458 C6.08482436,11.0575565 5.87718325,11.1439401 5.72714012,11.1439401 Z" id="􏄸"></path>
            </g>
        </g>
    </g>
</svg>