<?xml version="1.0" encoding="UTF-8"?>
<svg width="11px" height="11px" viewBox="0 0 11 11" version="1.1" xmlns="http://www.w3.org/2000/svg" xmlns:xlink="http://www.w3.org/1999/xlink">
    <title></title>
    <g id="Symbols" stroke="none" stroke-width="1" fill="none" fill-rule="evenodd">
        <g id="Footer-/-Globus" transform="translate(-1306.000000, -258.000000)" fill="#FFFFFF" fill-rule="nonzero">
            <g id="Group" transform="translate(1204.000000, 207.000000)">
                <path d="M109.667951,61.7125075 C110.509364,61.6726592 111.254671,61.4804676 111.868736,60.8640674 C112.482779,60.2500018 112.674971,59.5046956 112.717153,58.6632822 C112.766386,57.7960968 112.766386,55.1992326 112.717153,54.3320471 C112.677328,53.4906337 112.485136,52.7453276 111.868736,52.131262 C111.254671,51.5172193 110.509364,51.3250276 109.667951,51.2828448 C108.800766,51.2336125 106.201544,51.2336125 105.334358,51.2828448 C104.495303,51.3226702 103.749996,51.5148618 103.133596,52.1289274 C102.517196,52.742993 102.327339,53.4882992 102.285156,54.3297126 C102.263627,54.7091062 102.251517,55.420018 102.248826,56.1723696 L102.248826,56.8206252 C102.251517,57.5729768 102.263627,58.2838886 102.285156,58.6632822 C102.325004,59.5046956 102.517196,60.2500018 103.133596,60.8640674 C103.749996,61.478133 104.492968,61.6703017 105.334358,61.7125075 C106.201544,61.7617169 108.800766,61.7617169 109.667951,61.7125075 Z M107.502322,60.8031163 C106.738271,60.8031163 105.095315,60.8640674 104.406245,60.5921793 C103.94688,60.4093718 103.592961,60.0554756 103.407819,59.5937534 C103.133596,58.9023488 103.196882,57.2617277 103.196882,56.4976761 C103.196882,55.7336017 103.135931,54.0906461 103.407819,53.401576 C103.590626,52.9422113 103.944523,52.5882921 104.406245,52.4031501 C105.097649,52.1289274 106.738271,52.1922131 107.502322,52.1922131 C108.266396,52.1922131 109.909352,52.131262 110.598422,52.4031501 C111.057787,52.5859576 111.411706,52.9398538 111.596848,53.401576 C111.871071,54.0929806 111.807785,55.7336017 111.807785,56.4976761 C111.807785,57.2617277 111.871071,58.9046833 111.596848,59.5937534 C111.414041,60.0531181 111.060144,60.4070372 110.598422,60.5921793 C109.907018,60.866402 108.266396,60.8031163 107.502322,60.8031163 Z M110.305454,54.322663 C110.652324,54.322663 110.933573,54.0437712 110.933573,53.6945441 C110.933573,53.3476745 110.652324,53.0664252 110.305454,53.0664252 C109.958585,53.0664252 109.677335,53.3476745 109.677335,53.6945441 C109.677335,54.0414137 109.956227,54.322663 110.305454,54.322663 Z M107.502322,59.1906247 C108.992957,59.1906247 110.195294,57.9882884 110.195294,56.4976761 C110.195294,55.007041 108.992957,53.8047047 107.502322,53.8047047 C106.01171,53.8047047 104.809373,55.007041 104.809373,56.4976761 C104.809373,57.9882884 106.01171,59.1906247 107.502322,59.1906247 Z M107.502322,58.2484349 C106.539052,58.2484349 105.751563,57.4632805 105.751563,56.4976761 C105.751563,55.5320489 106.536718,54.7468945 107.502322,54.7468945 C108.467949,54.7468945 109.253104,55.5320489 109.253104,56.4976761 C109.253104,57.4632805 108.465615,58.2484349 107.502322,58.2484349 Z" id=""></path>
            </g>
        </g>
    </g>
</svg>