<?xml version="1.0" encoding="UTF-8"?>
<svg width="9px" height="10px" viewBox="0 0 9 10" version="1.1" xmlns="http://www.w3.org/2000/svg" xmlns:xlink="http://www.w3.org/1999/xlink">
    <title></title>
    <g id="Desktop" stroke="none" stroke-width="1" fill="none" fill-rule="evenodd">
        <g id="03.2-Gloves-Product-Interior" transform="translate(-298.000000, -157.000000)" fill="#5D5D5D" fill-rule="nonzero">
            <g id="Pagination-/-Narrow-Womens-Clothing-Copy" transform="translate(-1.000000, 124.000000)">
                <path d="M303.559239,42.5377947 L307.681334,38.4157381 C307.772848,38.3242046 307.772848,38.1758133 307.681334,38.0842607 L303.559239,33.9622231 C303.467725,33.8706897 303.319333,33.8706897 303.2278,33.9622231 L303.089689,34.1003149 C302.998175,34.1918292 302.998175,34.3402397 303.089689,34.4317731 L306.575894,37.9179785 L299.234374,37.9179785 C299.104942,37.9179785 299,38.0229206 299,38.1523529 L299,38.347665 C299,38.4770973 299.104942,38.5820394 299.234374,38.5820394 L306.575894,38.5820394 L303.089689,42.0682448 C302.998175,42.1597591 302.998175,42.3081696 303.089689,42.399703 L303.2278,42.5377947 C303.319333,42.6293091 303.467725,42.6293091 303.559239,42.5377947 Z" id=""></path>
            </g>
        </g>
    </g>
</svg>