<?xml version="1.0" encoding="UTF-8"?>
<svg width="8px" height="13px" viewBox="0 0 8 13" version="1.1" xmlns="http://www.w3.org/2000/svg" xmlns:xlink="http://www.w3.org/1999/xlink">
    <title>grip-vertical</title>
    <g id="Desktop" stroke="none" stroke-width="1" fill="none" fill-rule="evenodd">
        <g id="03.2-Gloves-Product-Interior" transform="translate(-1244.000000, -308.000000)" fill="#102257" fill-rule="nonzero">
            <path d="M1246.81249,311.875017 C1247.12327,311.875017 1247.37499,311.623064 1247.37499,311.312518 L1247.37499,309.062524 C1247.37499,308.751749 1247.12327,308.500025 1246.81249,308.500025 L1244.5625,308.500025 C1244.25195,308.500025 1244,308.751749 1244,309.062524 L1244,311.312518 C1244,311.623064 1244.25195,311.875017 1244.5625,311.875017 L1246.81249,311.875017 Z M1250.93748,311.875017 C1251.24826,311.875017 1251.49998,311.623064 1251.49998,311.312518 L1251.49998,309.062524 C1251.49998,308.751749 1251.24826,308.500025 1250.93748,308.500025 L1248.68749,308.500025 C1248.37694,308.500025 1248.12499,308.751749 1248.12499,309.062524 L1248.12499,311.312518 C1248.12499,311.623064 1248.37694,311.875017 1248.68749,311.875017 L1250.93748,311.875017 Z M1246.24999,310.75002 L1245.125,310.75002 L1245.125,309.625022 L1246.24999,309.625022 L1246.24999,310.75002 Z M1250.37498,310.75002 L1249.24999,310.75002 L1249.24999,309.625022 L1250.37498,309.625022 L1250.37498,310.75002 Z M1246.81249,316.187507 C1247.12327,316.187507 1247.37499,315.935554 1247.37499,315.625008 L1247.37499,313.375013 C1247.37499,313.064238 1247.12327,312.812515 1246.81249,312.812515 L1244.5625,312.812515 C1244.25195,312.812515 1244,313.064238 1244,313.375013 L1244,315.625008 C1244,315.935554 1244.25195,316.187507 1244.5625,316.187507 L1246.81249,316.187507 Z M1250.93748,316.187507 C1251.24826,316.187507 1251.49998,315.935554 1251.49998,315.625008 L1251.49998,313.375013 C1251.49998,313.064238 1251.24826,312.812515 1250.93748,312.812515 L1248.68749,312.812515 C1248.37694,312.812515 1248.12499,313.064238 1248.12499,313.375013 L1248.12499,315.625008 C1248.12499,315.935554 1248.37694,316.187507 1248.68749,316.187507 L1250.93748,316.187507 Z M1246.24999,315.062509 L1245.125,315.062509 L1245.125,313.937512 L1246.24999,313.937512 L1246.24999,315.062509 Z M1250.37498,315.062509 L1249.24999,315.062509 L1249.24999,313.937512 L1250.37498,313.937512 L1250.37498,315.062509 Z M1246.81249,320.499996 C1247.12327,320.499996 1247.37499,320.248044 1247.37499,319.937498 L1247.37499,317.687503 C1247.37499,317.376728 1247.12327,317.125004 1246.81249,317.125004 L1244.5625,317.125004 C1244.25195,317.125004 1244,317.376728 1244,317.687503 L1244,319.937498 C1244,320.248044 1244.25195,320.499996 1244.5625,320.499996 L1246.81249,320.499996 Z M1250.93748,320.499996 C1251.24826,320.499996 1251.49998,320.248044 1251.49998,319.937498 L1251.49998,317.687503 C1251.49998,317.376728 1251.24826,317.125004 1250.93748,317.125004 L1248.68749,317.125004 C1248.37694,317.125004 1248.12499,317.376728 1248.12499,317.687503 L1248.12499,319.937498 C1248.12499,320.248044 1248.37694,320.499996 1248.68749,320.499996 L1250.93748,320.499996 Z M1246.24999,319.374999 L1245.125,319.374999 L1245.125,318.250002 L1246.24999,318.250002 L1246.24999,319.374999 Z M1250.37498,319.374999 L1249.24999,319.374999 L1249.24999,318.250002 L1250.37498,318.250002 L1250.37498,319.374999 Z" id="grip-vertical"></path>
        </g>
    </g>
</svg>