<?xml version="1.0" encoding="UTF-8"?>
<svg width="87px" height="50px" viewBox="0 0 87 50" version="1.1" xmlns="http://www.w3.org/2000/svg" xmlns:xlink="http://www.w3.org/1999/xlink">
    <title>Globus Group (Solid)</title>
    <g id="Symbols" stroke="none" stroke-width="1" fill="none" fill-rule="evenodd">
        <g id="Nav-/-Globus-v1" transform="translate(-39.000000, -16.000000)" fill="#20274F">
            <g id="Globus-Group-(Solid)" transform="translate(39.874859, 16.000000)">
                <path d="M20.1786886,34 C17.7280373,34 16.7008829,32.9713031 17.2851697,29.3721692 L19.6009855,15 L23.1251408,15 L20.8318854,29.2696766 C20.6685203,30.3750496 20.6916074,30.5804216 22.3963624,30.5804216 L21.8595665,33.9483669 C21.3220683,33.9741835 20.9250236,34 20.1786886,34" id="Fill-1"></path>
                <path d="M31.9285466,26.7818181 C32.0814878,25.9370378 32.209789,25.2206981 32.209789,24.631836 C32.209789,23.3512825 31.7226679,22.6091391 30.1117325,22.6091391 C28.1662322,22.6091391 27.7065424,23.966237 27.2711076,26.4231668 C27.1173002,27.2172063 27.0404927,27.9337386 27.0404927,28.5235635 C27.0404927,29.8282839 27.5266512,30.6220345 29.0874405,30.6220345 C31.0577733,30.6220345 31.4932081,29.3154847 31.9285466,26.7818181 M23.1251408,28.7018781 C23.1251408,27.8569054 23.2281283,26.9356771 23.3810695,25.988934 C24.1748428,21.4575074 25.9917532,19 30.4441798,19 C34.7683052,19 36.1251408,21.1501746 36.1251408,24.2734736 C36.1251408,25.1436723 36.0228271,26.090608 35.843321,27.0629622 C35.0248114,31.7222515 33.3100222,34 28.8061981,34 C24.5327001,34 23.1251408,31.8760142 23.1251408,28.7018781" id="Fill-2"></path>
                <path d="M45.8026839,26.9013881 C45.9812509,26.0076026 46.0847736,25.2419399 46.0847736,24.628795 C46.0847736,23.3778219 45.6489392,22.6879379 44.2167471,22.6879379 C42.2462563,22.6879379 41.7609697,23.8374885 41.2744323,26.4412413 C41.1210725,27.2077684 41.0442002,27.92272 41.0442002,28.5098369 C41.0442002,29.8892208 41.5306413,30.6552678 43.2698417,30.6552678 C44.8814667,30.6552678 45.3671382,29.5571967 45.8026839,26.9013881 M36.1251408,33.9471758 L39.4656716,15 L43.3275681,15 L42.4001934,20.1088684 C43.1930656,19.3943971 44.421291,19.0877286 45.8542528,19.0877286 C49.2045009,19.0877286 50.1251408,21.0540374 50.1251408,23.6583664 C50.1251408,24.7056302 49.9722621,25.9055079 49.7671409,27.0290306 C49.0509487,31.0131277 47.7972274,34 44.1138979,34 C41.4028736,34 40.3793844,33.4633061 39.7910561,32.7234792 L38.9472885,33.9739721 L36.1251408,33.9471758" id="Fill-3"></path>
                <path d="M50.3827046,27.2173649 L51.7907472,19 L55.5857691,19 L54.1785773,27.2693691 C53.8511937,29.3039144 53.7005008,30.5041342 55.6114834,30.5041342 C57.3952183,30.5041342 57.5705855,29.6698087 57.9483577,27.5823761 L59.3807911,19 L63.1251408,19 L61.6179283,27.9998823 C60.8644638,32.4603786 59.531484,34 55.4854648,34 C50.3070745,34 49.627822,31.6782537 50.3827046,27.2173649" id="Fill-4"></path>
                <path d="M68.7938338,25.1904164 C67.5639649,24.5996522 66.8401978,24.2398802 66.8401978,23.5975268 C66.8401978,22.7755772 67.3680751,22.3772582 68.3049712,22.2789103 C69.1506818,22.1895469 70.4300902,22.303932 71.5195971,22.6795479 L72.1251408,19.6285383 C71.409721,19.2813255 70.2679526,19 68.4557673,19 C66.0683427,19 63.2699941,19.8731524 63.2699941,23.751425 C63.2699941,25.8578881 64.3797341,26.8341223 66.2369223,27.7583808 C68.0454783,28.6323061 68.4557673,28.8636847 68.4557673,29.6077674 C68.4557673,30.5839049 67.9009427,30.816153 67.1055881,30.816153 C65.4325854,30.816153 64.2311155,30.3276978 62.8626992,29.7951889 L62.1251408,33.1013429 C63.5982615,33.6247706 65.0685696,34 66.9848242,34 C69.4449249,34 71.9299768,33.0499469 71.9299768,29.4276881 C71.9299768,27.1678099 70.8442807,26.1659743 68.7938338,25.1904164" id="Fill-5"></path>
                <path d="M17.1251408,15.8373295 L16.4327332,19.6798729 C14.7236388,19.1214308 13.1046114,18.8427341 11.5755564,18.8427341 C10.0463118,18.8427341 8.76198133,19.1621436 7.72247011,19.8018206 C6.68333771,20.4413069 5.92255112,21.240212 5.43878441,22.1996798 C4.95568067,23.1585756 4.69807584,24.124527 4.66606466,25.0976294 C4.63897827,25.9173199 4.7742208,26.6871443 5.07131871,27.4079609 C5.36851133,28.12811 5.82310808,28.7067656 6.43482482,29.1431647 C7.04606803,29.5805173 7.77607464,29.7983831 8.62399228,29.7983831 C8.9880485,29.7983831 9.34594873,29.7646306 9.69703001,29.6969349 C10.0476377,29.6296205 10.3512705,29.5556319 10.6076441,29.4746831 C10.8636389,29.3939249 11.0877172,29.3167899 11.2809208,29.2450897 L11.6949827,26.7590353 L8.80715688,26.7590353 L9.34509636,23.4085731 L15.9774735,23.4085731 L14.5255104,32.4871433 C13.9314093,32.7391431 13.3172301,32.9735038 12.6840147,33.1895581 C12.0507994,33.4058031 11.3412496,33.5949697 10.5557443,33.7568674 C9.7699549,33.9190512 8.98520727,34 8.20008081,34 C7.08319343,34 6.04084098,33.8243725 5.07406523,33.4734988 C4.10643712,33.1228158 3.24677573,32.584301 2.49432341,31.8588125 C1.74139755,31.1341821 1.16879507,30.2424099 0.775853009,29.1839728 C0.382626824,28.1258217 0.0841082948,26.9033893 0.129757385,25.5160081 C0.161105618,24.5521543 0.255245028,23.3726276 0.602348584,22.246018 C1.23158625,20.2035138 2.58173858,17.8372141 5.84659558,16.181815 C7.3450601,15.4221926 9.35608245,15 11.7090941,15 C13.5795703,15 15.3840353,15.2794594 17.1251408,15.8373295" id="Fill-6"></path>
                <path d="M75.9758431,17.0956462 C75.9758431,16.8511453 75.8129523,16.8031326 75.510279,16.8031326 C75.4487702,16.8031326 75.3758205,16.8031326 75.3080815,16.8031326 L75.3080815,17.4360589 L75.5381449,17.4360589 C75.8187294,17.4360589 75.9758431,17.3615367 75.9758431,17.1114609 L75.9758431,17.0956462 Z M76.0430158,18.2924378 L75.594443,17.6330021 L75.3080815,17.6330021 L75.3080815,18.2924378 L75.050492,18.2924378 L75.050492,16.6064169 C75.2465726,16.6009557 75.3365137,16.5956083 75.510279,16.5956083 C75.9530747,16.5956083 76.2447602,16.7073346 76.2447602,17.0956462 L76.2447602,17.1114609 C76.2447602,17.3829263 76.0988608,17.531743 75.8691372,17.5904505 L76.3566768,18.2924378 L76.0430158,18.2924378 Z M75.6223089,16.2286863 C74.8542981,16.2286863 74.3776329,16.7234906 74.3776329,17.4998862 C74.3776329,18.2819706 74.8542981,18.7766611 75.6223089,18.7766611 C76.3905464,18.7766611 76.8672115,18.2819706 76.8672115,17.4998862 C76.8672115,16.7234906 76.3905464,16.2286863 75.6223089,16.2286863 Z M75.6223089,19 C74.7194997,19 74.1251408,18.3935831 74.1251408,17.4998862 C74.1251408,16.6009557 74.7194997,16 75.6223089,16 C76.5251182,16 77.1251408,16.6009557 77.1251408,17.4998862 C77.1251408,18.3935831 76.5251182,19 75.6223089,19 L75.6223089,19 Z" id="Fill-7"></path>
                <g id="Group-11" transform="translate(0.125141, 0.000000)">
                    <path d="M72.4657425,13.2076996 C72.4657425,13.2076996 76.8687152,-0.365969582 58.0367087,0.0161596958 C39.8809727,0.384505703 24.9229025,14.6324144 24.9229025,14.6324144 C24.9229025,14.6324144 35.3805085,6.92404943 53.6529116,6.3141635 C71.9255046,5.70427757 72.4657425,13.2076996 72.4657425,13.2076996" id="Fill-8"></path>
                    <path d="M0.397370611,36.5024715 C0.397370611,36.5024715 -3.83226268,50.1869772 15.6333914,49.9538973 C34.6362692,49.7263308 49.7563823,35.1212928 49.7563823,35.1212928 C49.7563823,35.1212928 38.6366502,42.8595057 20.3640572,43.4693916 C2.09155917,44.0792776 0.397370611,36.5024715 0.397370611,36.5024715" id="Fill-10"></path>
                </g>
                <path d="M52.1251408,43.3613305 C52.1251408,42.912289 52.1672667,42.5366524 52.2429646,42.1701288 C52.6553019,39.9345351 53.8754819,39 55.617453,39 C56.9974907,39 57.7717614,39.5405722 58.1251408,40.0445923 L57.2584323,40.8140916 C56.9974907,40.4934335 56.6020773,40.0720315 55.5585871,40.0720315 C54.3383151,40.0720315 53.5389345,40.7866524 53.235959,42.3167382 C53.1854631,42.6008441 53.1517991,42.9215021 53.1517991,43.2055079 C53.1517991,44.3416309 53.7071622,45.0104864 55.019964,45.0104864 C56.2907319,45.0104864 56.6272793,44.5156795 56.8797589,43.2055079 L56.9049609,43.0496853 L55.1209558,43.0496853 L55.2976455,42.0510587 L58.1251408,42.0510587 L57.9399891,43.0772246 C57.5361138,45.3220315 56.8797589,46 54.9610981,46 C52.9834794,46 52.1251408,45.0104864 52.1251408,43.3613305" id="Fill-12"></path>
                <path d="M61.6895221,42.9149052 C62.5551323,42.9149052 63.0559285,42.5586843 63.0559285,41.6760528 C63.0559285,41.1415886 62.6145897,40.906881 61.6726402,40.906881 L60.2808183,40.906881 L59.8139713,42.9149052 L61.6895221,42.9149052 Z M61.1633104,43.8136441 L59.6273438,43.8136441 L59.1266404,46 L58.1251408,46 L59.466039,40 L61.7575131,40 C63.5650728,40 64.1251408,40.6558006 64.1251408,41.4736485 C64.1251408,42.7043587 63.5565391,43.619382 62.1986664,43.7893945 L63.0304203,46 L61.9865306,46 L61.1633104,43.8136441 L61.1633104,43.8136441 Z" id="Fill-13"></path>
                <path d="M70.8919746,42.7424812 C70.9554019,42.4405424 70.9916744,42.1568059 70.9916744,41.8823706 C70.9916744,40.7935306 70.3842585,40.0706377 68.9152218,40.0706377 C67.5370646,40.0706377 66.6666234,40.7568259 66.3401708,42.2850224 C66.2766444,42.57776 66.2494896,42.8705976 66.2494896,43.1451329 C66.2494896,44.234073 66.847986,44.9660671 68.2987873,44.9660671 C69.6860622,44.9660671 70.5565034,44.2980812 70.8919746,42.7424812 Z M65.1251408,43.2549471 C65.1251408,42.9072024 65.1614133,42.5411553 65.243076,42.1294024 C65.7598107,39.6496835 67.3285472,39 68.9696306,39 C70.9645196,39 72.1251408,39.9517224 72.1251408,41.7268506 C72.1251408,42.0744953 72.0888683,42.4405424 72.0072056,42.8339929 C71.4722356,45.3320141 69.930753,46 68.2896697,46 C66.2766444,46 65.1251408,45.0392765 65.1251408,43.2549471 L65.1251408,43.2549471 Z" id="Fill-14"></path>
                <path d="M72.1251408,44.2890815 C72.1251408,44.0344138 72.1660278,43.7639163 72.2233768,43.5092485 L73.0010336,40 L73.9914456,40 L73.2302509,43.4694132 C73.181133,43.7002493 73.1401566,43.9071669 73.1401566,44.1060826 C73.1401566,44.7109185 73.4921241,45.100748 74.6463522,45.100748 C75.7350002,45.100748 76.1443168,44.6233329 76.3489304,43.6683289 L77.1593326,40 L78.1251408,40 L77.2657101,43.8594167 C77.0118891,45.0052476 76.4799117,46 74.5398852,46 C72.6080897,46 72.1251408,45.1883335 72.1251408,44.2890815" id="Fill-15"></path>
                <path d="M82.6441029,43.0526145 C83.5470867,43.0526145 84.061852,42.6396637 84.061852,41.6760528 C84.061852,41.1659267 83.6821192,40.906881 82.7284982,40.906881 L81.2685975,40.906881 L80.7707112,43.0526145 L82.6441029,43.0526145 Z M80.4584947,40 L82.8550451,40 C84.5681317,40 85.1251408,40.6314625 85.1251408,41.4978981 C85.1251408,42.9230474 84.3993411,43.9594955 82.677861,43.9594955 L80.5850415,43.9594955 L80.1209134,46 L79.1251408,46 L80.4584947,40 L80.4584947,40 Z" id="Fill-16"></path>
            </g>
        </g>
    </g>
</svg>