<?xml version="1.0" standalone="no"?>
<!DOCTYPE svg PUBLIC "-//W3C//DTD SVG 1.1//EN" "http://www.w3.org/Graphics/SVG/1.1/DTD/svg11.dtd" >
<svg xmlns="http://www.w3.org/2000/svg" xmlns:xlink="http://www.w3.org/1999/xlink" version="1.1">
<metadata>
Created by FontForge 20170731 at Fri May 28 20:07:31 2021
 By Aleksey,,,
Copyright 2017 OMSE LTD. All rights reserved.
</metadata>
<defs>
<font id="ModernEraTRIAL-LightItalic" horiz-adv-x="1228" >
  <font-face 
    font-family="Modern Era TRIAL Light Italic"
    font-weight="300"
    font-style="italic"
    font-stretch="normal"
    units-per-em="2048"
    panose-1="2 0 0 0 0 0 0 0 0 0"
    ascent="1608"
    descent="-440"
    x-height="993"
    cap-height="1434"
    bbox="-260 -469 2181 1589"
    underline-thickness="102"
    underline-position="-255"
    slope="-10"
    unicode-range="U+000D-2212"
  />
<missing-glyph horiz-adv-x="1720" 
d="M899 -29q-151 0 -289 59t-238 159t-159 238t-59 290t59 290t159 237.5t238 158.5t289 59q152 0 290 -59t238 -158.5t159 -237.5t59 -290q0 -203 -100 -374.5t-271.5 -271.5t-374.5 -100zM899 104q166 0 307.5 82t224 223.5t82.5 307.5t-82.5 307t-224 223t-307.5 82
t-307 -82t-223 -223t-82 -307t82 -307.5t223 -223.5t307 -82zM670 717q-52 0 -89.5 37t-37.5 88q0 52 37.5 89.5t89.5 37.5t88.5 -37t36.5 -90q0 -51 -36.5 -88t-88.5 -37zM1128 717q-52 0 -88 37t-36 88q0 53 36 90t88 37t89.5 -37.5t37.5 -89.5q0 -51 -37.5 -88t-89.5 -37
z" />
    <glyph glyph-name=".notdef" horiz-adv-x="1720" 
d="M899 -29q-151 0 -289 59t-238 159t-159 238t-59 290t59 290t159 237.5t238 158.5t289 59q152 0 290 -59t238 -158.5t159 -237.5t59 -290q0 -203 -100 -374.5t-271.5 -271.5t-374.5 -100zM899 104q166 0 307.5 82t224 223.5t82.5 307.5t-82.5 307t-224 223t-307.5 82
t-307 -82t-223 -223t-82 -307t82 -307.5t223 -223.5t307 -82zM670 717q-52 0 -89.5 37t-37.5 88q0 52 37.5 89.5t89.5 37.5t88.5 -37t36.5 -90q0 -51 -36.5 -88t-88.5 -37zM1128 717q-52 0 -88 37t-36 88q0 53 36 90t88 37t89.5 -37.5t37.5 -89.5q0 -51 -37.5 -88t-89.5 -37
z" />
    <glyph glyph-name=".null" horiz-adv-x="0" 
 />
    <glyph glyph-name="nonmarkingreturn" horiz-adv-x="682" 
 />
    <glyph glyph-name="CR" unicode="&#xd;" horiz-adv-x="573" 
 />
    <glyph glyph-name="space" unicode=" " horiz-adv-x="573" 
 />
    <glyph glyph-name="exclam" unicode="!" horiz-adv-x="555" 
d="M193 328l196 1106h115l-197 -1106h-114zM195 -14q-40 0 -66.5 26t-26.5 66q0 45 35 78.5t80 33.5q41 0 66.5 -26t25.5 -66q0 -46 -34 -79t-80 -33z" />
    <glyph glyph-name="quotedbl" unicode="&#x22;" horiz-adv-x="481" 
d="M180 1110l68 381h110l-67 -381h-111zM408 1110l67 381h111l-68 -381h-110z" />
    <glyph glyph-name="numbersign" unicode="#" horiz-adv-x="1554" 
d="M1559 926h-334l-131 -420h321l-18 -103h-334l-127 -403h-113l127 403h-467l-127 -403h-108l127 403h-320l19 103h332l131 420h-324l18 102h338l127 406h109l-127 -406h469l129 406h108l-127 -406h320zM983 506l133 420h-471l-131 -420h469z" />
    <glyph glyph-name="dollar" unicode="$" horiz-adv-x="1230" 
d="M733 778q190 -40 284.5 -119t94.5 -217q0 -197 -147.5 -326t-370.5 -141l-27 -147h-106l26 147q-371 27 -405 410l108 31q11 -162 88 -245.5t226 -92.5l106 610q-174 39 -268 114t-94 212q0 126 68.5 227t180.5 157t248 64l23 127h106l-22 -127q325 -32 354 -391
l-110 -29q-10 293 -262 318zM362 1020q0 -86 65.5 -134t203.5 -83l96 557q-158 -18 -261.5 -111t-103.5 -229zM610 80q169 17 278 115.5t109 236.5q0 37 -11 66.5t-39.5 61t-87.5 58.5t-146 48z" />
    <glyph glyph-name="ampersand" unicode="&#x26;" horiz-adv-x="1218" 
d="M1214 829l-18 -102h-158l-59 -330q-33 -192 -173.5 -310t-328.5 -118q-182 0 -290.5 97.5t-108.5 259.5q0 58 19 122.5t56 130.5t103.5 123.5t151.5 90.5q-119 80 -119 233q0 50 15.5 105.5t52.5 114.5t90 106t135.5 77.5t181.5 30.5q155 0 247.5 -81t94.5 -212l-115 -18
q0 99 -63.5 154t-169.5 55q-89 0 -159.5 -32t-111 -82.5t-61 -105t-20.5 -106.5q0 -96 68.5 -148.5t180.5 -52.5l289 -2l29 164h112l-28 -164h157zM868 406l58 321l-301 2q-120 -1 -219.5 -55t-156 -145.5t-56.5 -198.5q0 -120 82 -189t206 -69q140 0 250 91t137 243z" />
    <glyph glyph-name="quotesingle" unicode="'" horiz-adv-x="253" 
d="M180 1110l68 381h110l-67 -381h-111z" />
    <glyph glyph-name="parenleft" unicode="(" horiz-adv-x="522" 
d="M197 -340q-24 58 -36.5 93t-37.5 121.5t-38 189.5t-13 217q0 334 124.5 682.5t335.5 605.5l84 -68q-201 -245 -319.5 -574.5t-118.5 -645.5q0 -44 2.5 -88t6 -80t10.5 -75.5t12.5 -66.5t15 -62.5t14.5 -54t16 -50t14.5 -40.5t14.5 -36.5t11 -28.5z" />
    <glyph glyph-name="parenright" unicode=")" horiz-adv-x="522" 
d="M367 1569q24 -58 36.5 -93t37.5 -121.5t38 -189.5t13 -217q0 -334 -125 -682.5t-336 -605.5l-84 68q201 245 319.5 574.5t118.5 645.5q0 44 -2.5 88t-6 80t-10.5 75.5t-12.5 66.5t-15 62.5t-14.5 54t-16 50t-14.5 40.5t-14.5 36.5t-11 28.5z" />
    <glyph glyph-name="asterisk" unicode="*" horiz-adv-x="845" 
d="M889 1202l-273 -84l121 -219l-88 -55l-125 223l-205 -225l-71 61l203 223l-244 84l45 97l252 -86l49 270h100l-49 -270l264 75z" />
    <glyph glyph-name="plus" unicode="+" 
d="M508 205l82 461h-457l19 102h456l80 461h111l-80 -461h457l-19 -102h-457l-82 -461h-110z" />
    <glyph glyph-name="comma" unicode="," horiz-adv-x="348" 
d="M-45 -170q37 34 69 80.5t42 85.5q-28 6 -47 30.5t-19 53.5q0 49 33 79.5t76 30.5q40 0 67 -26t27 -72q0 -68 -55.5 -164t-137.5 -155z" />
    <glyph glyph-name="hyphen" unicode="-" horiz-adv-x="677" 
d="M115 563l18 103h473l-18 -103h-473z" />
    <glyph glyph-name="period" unicode="." horiz-adv-x="348" 
d="M92 -14q-42 0 -67 25.5t-25 64.5q0 47 34 80.5t81 33.5q39 0 64.5 -25.5t25.5 -62.5q0 -47 -34 -81.5t-79 -34.5z" />
    <glyph glyph-name="slash" unicode="/" horiz-adv-x="806" 
d="M-16 0l792 1434h125l-792 -1434h-125z" />
    <glyph glyph-name="zero" unicode="0" horiz-adv-x="1230" 
d="M539 -29q-107 0 -188.5 39.5t-131 111t-74 165.5t-24.5 209q0 75 10 159t33 178.5t57 183t87 170.5t118.5 142.5t155 96.5t192.5 36q85 0 154.5 -26t117.5 -72.5t80 -112.5t47 -143.5t15 -167.5q0 -74 -9.5 -157t-32.5 -178t-56.5 -184t-86 -171.5t-117.5 -144
t-154.5 -98t-192.5 -36.5zM543 74q94 0 175 44t137.5 117.5t99.5 163.5t68 188.5t37.5 185.5t12.5 161q0 124 -29.5 217t-100 151t-175.5 58q-80 0 -152 -33t-125 -88t-97.5 -128t-74 -152.5t-50 -162.5t-29.5 -156.5t-9 -135.5q0 -74 10.5 -137.5t34.5 -118t60 -93
t88.5 -60t118.5 -21.5z" />
    <glyph glyph-name="one" unicode="1" horiz-adv-x="655" 
d="M252 0l231 1311q-63 -36 -151 -66t-156 -41l21 111q141 26 309 119h115l-254 -1434h-115z" />
    <glyph glyph-name="two" unicode="2" horiz-adv-x="1132" 
d="M37 0l18 104l545 424q90 70 144 115.5t112.5 104.5t89 108.5t50.5 111t20 128.5q0 117 -80 190.5t-213 73.5q-95 0 -184 -42t-156 -125.5t-88 -193.5l-100 33q40 194 195.5 312t342.5 118q181 0 288 -98.5t107 -257.5q0 -94 -25 -171.5t-84.5 -155.5t-137.5 -149.5
t-205 -170.5l-459 -357h746l-19 -102h-907z" />
    <glyph glyph-name="three" unicode="3" horiz-adv-x="1175" 
d="M502 -29q-189 0 -306.5 108t-117.5 267q0 5 1 16.5t1 16.5l106 33q-2 -12 -2 -35q0 -131 88.5 -217t233.5 -86q131 0 236 64t159.5 161.5t54.5 204.5q0 130 -84.5 211.5t-238.5 81.5q-55 0 -131 -21l-56 74l535 481h-698l18 103h846l-19 -103l-483 -432q198 0 313 -107.5
t115 -277.5q0 -40 -9 -86t-30 -99t-51.5 -103.5t-77 -97t-103.5 -81t-134.5 -55.5t-165.5 -21z" />
    <glyph glyph-name="four" unicode="4" horiz-adv-x="1140" 
d="M649 0l72 399h-672l17 97l825 938h127l-166 -932h223l-16 -103h-223l-72 -399h-115zM197 500l540 2l135 764z" />
    <glyph glyph-name="five" unicode="5" horiz-adv-x="1187" 
d="M522 -29q-198 0 -321 107.5t-125 253.5v20l108 33v-18q1 -131 96 -212t242 -81q123 0 227.5 59.5t165 162t60.5 224.5q0 133 -86.5 216t-237.5 83q-98 0 -190 -40.5t-144 -90.5l-100 37l205 709h743l-18 -103h-651l-146 -504q49 36 135.5 65.5t180.5 29.5q193 0 306 -109
t113 -283q0 -149 -77 -278t-207 -205t-279 -76z" />
    <glyph glyph-name="six" unicode="6" horiz-adv-x="1191" 
d="M530 -29q-199 0 -309 116.5t-110 338.5q0 76 9 162.5t32 188.5t56.5 197.5t87 185t120 156t159 106.5t199.5 40q172 0 267.5 -94t115.5 -246l-110 -35q-4 54 -20 99.5t-46.5 86t-84 64t-124.5 23.5q-92 0 -165.5 -32t-125 -85t-93 -136t-68.5 -171t-52 -205
q71 78 175.5 131t222.5 53q188 0 306 -103.5t118 -276.5q0 -101 -38.5 -200t-107.5 -181t-177.5 -132.5t-236.5 -50.5zM530 74q104 0 190 40t140 105t83.5 144t29.5 161q0 134 -83.5 211.5t-230.5 77.5q-96 0 -179.5 -38.5t-138.5 -101t-86.5 -141t-31.5 -159.5
q0 -130 82.5 -214.5t224.5 -84.5z" />
    <glyph glyph-name="seven" unicode="7" horiz-adv-x="1046" 
d="M213 0q120 308 353 696.5t429 634.5h-782l18 103h916l-19 -103q-200 -242 -437 -631.5t-359 -699.5h-119z" />
    <glyph glyph-name="eight" unicode="8" horiz-adv-x="1155" 
d="M864 780q86 -46 133 -125t47 -180q0 -61 -18 -127t-60.5 -134.5t-104 -122t-157 -88t-210.5 -34.5q-194 0 -306 97t-112 260q0 57 18.5 120.5t54.5 128.5t99.5 122t144.5 91q-125 80 -125 238q0 50 15.5 105.5t52.5 114.5t90 106t135.5 77.5t181.5 30.5q161 0 258 -86.5
t97 -226.5q0 -115 -61.5 -213.5t-172.5 -153.5zM385 1030q0 -88 58 -139.5t155 -59.5h33h33q81 5 145.5 38t101 81t55.5 99t19 100q0 98 -68.5 153.5t-179.5 55.5q-89 0 -159.5 -32t-111 -82.5t-61 -105.5t-20.5 -108zM498 72q187 0 309.5 119t122.5 282q0 120 -84.5 187
t-218.5 67q-105 0 -191 -38t-138 -97.5t-80 -126.5t-28 -131q0 -122 88.5 -192t219.5 -70z" />
    <glyph glyph-name="nine" unicode="9" horiz-adv-x="1191" 
d="M739 1462q199 0 309.5 -116.5t110.5 -337.5q0 -76 -9 -163t-32 -188.5t-56.5 -197t-87 -185.5t-120 -156.5t-159 -106.5t-199.5 -40q-172 0 -267.5 94t-115.5 246l110 35q4 -54 20 -99.5t46.5 -86t84 -63.5t124.5 -23q92 0 165.5 32t125 84.5t93 136t68 171t51.5 204.5
q-71 -78 -175 -131t-222 -53q-188 0 -306 104t-118 277q0 80 23.5 160t71 152.5t113.5 128.5t157 89t194 33zM739 1360q-103 0 -189 -40t-140 -105t-83.5 -144.5t-29.5 -161.5q0 -134 83 -211t230 -77q96 0 180 38.5t139 101t86.5 141t31.5 159.5q0 130 -83 214.5t-225 84.5
z" />
    <glyph glyph-name="colon" unicode=":" horiz-adv-x="350" 
d="M201 614q-38 0 -63 25.5t-25 65.5q0 46 32.5 80t77.5 34q41 0 67.5 -25.5t26.5 -62.5q0 -49 -34 -83t-82 -34zM90 -14q-40 0 -65 26t-25 66q0 45 34 78.5t79 33.5q42 0 68 -26t26 -66q0 -46 -35 -79t-82 -33z" />
    <glyph glyph-name="semicolon" unicode=";" horiz-adv-x="348" 
d="M199 614q-38 0 -63 25.5t-25 65.5q0 46 32.5 80t77.5 34q41 0 67.5 -25.5t26.5 -62.5q0 -49 -34 -83t-82 -34zM-45 -170q37 34 69 80.5t42 85.5q-28 6 -47 30.5t-19 53.5q0 49 33 79.5t76 30.5q40 0 67 -26t27 -72q0 -68 -55.5 -164t-137.5 -155z" />
    <glyph glyph-name="equal" unicode="=" 
d="M170 877l18 102h1024l-18 -102h-1024zM96 457l17 102h1024l-17 -102h-1024z" />
    <glyph glyph-name="question" unicode="?" horiz-adv-x="1019" 
d="M1049 1090q0 -36 -9.5 -80.5t-30 -97t-57 -103.5t-85 -96t-120.5 -78.5t-157 -46.5l-47 -260h-115l55 315l4 31q100 0 181 31t130 77.5t82.5 104t46.5 107.5t13 91q0 124 -73.5 199.5t-198.5 75.5q-154 0 -262 -88t-136 -234l-96 35q38 174 174.5 281.5t319.5 107.5
q171 0 276 -103.5t105 -268.5zM455 190q41 0 66.5 -26t25.5 -66q0 -45 -34.5 -78.5t-80.5 -33.5q-39 0 -65.5 26.5t-26.5 65.5q0 45 35.5 78.5t79.5 33.5z" />
    <glyph glyph-name="at" unicode="@" horiz-adv-x="1748" 
d="M1001 1241q288 0 457.5 -164.5t169.5 -435.5q0 -77 -13.5 -149.5t-44 -141t-75.5 -119.5t-113 -81.5t-151 -30.5q-82 0 -130 31t-59 88q-126 -119 -284 -119q-124 0 -187 77t-63 189q0 54 17.5 117t54.5 127.5t87.5 116.5t124.5 85t158 33q147 0 211 -98l35 78h94
l-129 -484l-6 -26q-4 -20 -4 -31q0 -74 88 -74q76 0 132.5 39t86.5 102t44 129.5t14 135.5q0 225 -139.5 360t-381.5 135q-112 0 -212 -29t-175.5 -77.5t-138.5 -113t-105 -134.5t-71.5 -143t-43 -138t-13.5 -120q0 -223 148.5 -370.5t373.5 -147.5q90 0 180 28.5t156 65.5
l49 -101q-181 -102 -391 -102q-184 0 -328 80t-223.5 221.5t-79.5 317.5q0 120 40.5 244t119.5 236.5t184 200.5t245 140.5t291 52.5zM788 227q70 0 131 34.5t99.5 87.5t60 114t21.5 117q0 81 -44.5 128.5t-125.5 47.5q-69 0 -129 -34t-98.5 -86.5t-60 -114t-21.5 -118.5
q0 -81 44 -128.5t123 -47.5z" />
    <glyph glyph-name="A" unicode="A" horiz-adv-x="1306" 
d="M1042 0l-86 442h-616l-242 -442h-125l789 1434h112l283 -1434h-115zM397 545h539l-141 727z" />
    <glyph glyph-name="B" unicode="B" horiz-adv-x="1232" 
d="M86 0l254 1434h498q165 0 248 -84.5t83 -216.5q0 -119 -59.5 -225.5t-171.5 -168.5q30 -13 57.5 -32.5t55.5 -50.5t44.5 -77.5t16.5 -101.5q0 -49 -14.5 -107.5t-51.5 -125t-91 -120t-143 -89t-198 -35.5h-528zM338 780h383q68 0 125 22.5t95 58.5t64.5 82t38 93t11.5 92
q0 95 -61 149t-175 54h-383zM219 102h418q85 0 155 33t112.5 86t65.5 115t23 125q0 100 -70.5 158.5t-222.5 58.5h-378z" />
    <glyph glyph-name="C" unicode="C" horiz-adv-x="1585" 
d="M772 -29q-284 0 -449 164.5t-165 431.5q0 106 27.5 213.5t78 207t127.5 186t170 150.5t211 101t246 37q230 0 371 -123t176 -325l-111 -29q-32 186 -147.5 280.5t-294.5 94.5q-132 0 -251 -46.5t-207 -125.5t-153 -180.5t-98 -214t-33 -222.5q0 -226 134.5 -361.5
t367.5 -135.5q192 0 339.5 94t236.5 260l100 -45q-102 -192 -278.5 -302t-397.5 -110z" />
    <glyph glyph-name="D" unicode="D" horiz-adv-x="1454" 
d="M86 0l254 1434h416q142 0 252 -31.5t178 -83t112 -124t61 -147t17 -159.5q0 -71 -11.5 -148t-40 -165t-71 -168.5t-110 -156t-151.5 -130.5t-201.5 -88t-253.5 -33h-451zM219 102h324q116 0 216 28.5t172.5 76t130.5 113t95 136.5t62 149.5t35 149.5t10 138
q0 438 -525 438h-303z" />
    <glyph glyph-name="E" unicode="E" horiz-adv-x="1148" 
d="M86 0l254 1434h852l-18 -103h-738l-98 -555h655l-18 -102h-656l-100 -572h737l-18 -102h-852z" />
    <glyph glyph-name="F" unicode="F" horiz-adv-x="1148" 
d="M86 0l254 1434h852l-18 -103h-738l-104 -590h655l-18 -102h-656l-112 -639h-115z" />
    <glyph glyph-name="G" unicode="G" horiz-adv-x="1644" 
d="M778 -29q-282 0 -451 162.5t-169 433.5q0 129 39.5 258t116.5 243t180.5 202.5t242.5 140t291 51.5q198 0 338 -103t180 -290l-106 -29q-34 152 -140 236t-276 84q-135 0 -256.5 -47.5t-210.5 -127t-155 -181t-99 -212.5t-33 -219q0 -226 136.5 -362.5t369.5 -136.5
q128 0 239 47t190 127t131 182.5t71 216.5l-379 -4l16 102h490l-131 -745h-94l32 240q-24 -31 -57 -63.5t-86.5 -70.5t-113.5 -67t-141 -48.5t-165 -19.5z" />
    <glyph glyph-name="H" unicode="H" horiz-adv-x="1370" 
d="M86 0l254 1434h115l-115 -646h793l114 646h115l-254 -1434h-115l121 686h-792l-121 -686h-115z" />
    <glyph glyph-name="I" unicode="I" horiz-adv-x="462" 
d="M86 0l254 1434h115l-254 -1434h-115z" />
    <glyph glyph-name="J" unicode="J" horiz-adv-x="1013" 
d="M375 -29q-155 0 -241.5 80t-86.5 215q0 22 8 80l4 27l113 -19l-4 -20q-6 -34 -6 -64q0 -93 56.5 -144.5t158.5 -51.5q128 0 215 78.5t113 224.5l186 1057h115l-189 -1061q-33 -192 -150 -297t-292 -105z" />
    <glyph glyph-name="K" unicode="K" horiz-adv-x="1214" 
d="M1309 1434l-697 -603l453 -831h-129l-414 754l-223 -193l-98 -561h-115l254 1434h115l-125 -709l825 709h154z" />
    <glyph glyph-name="L" unicode="L" horiz-adv-x="1075" 
d="M86 0l254 1434h115l-236 -1332h715l-19 -102h-829z" />
    <glyph glyph-name="M" unicode="M" horiz-adv-x="1740" 
d="M1722 1434l-254 -1434h-110l219 1235l-743 -1235h-103l-303 1227l-221 -1227h-111l254 1434h142l315 -1276l766 1276h149z" />
    <glyph glyph-name="N" unicode="N" horiz-adv-x="1480" 
d="M96 0l254 1434h127l643 -1268l226 1268h116l-254 -1434h-127l-645 1266l-225 -1266h-115z" />
    <glyph glyph-name="O" unicode="O" horiz-adv-x="1708" 
d="M770 -27q-271 0 -440.5 163t-169.5 435q0 130 39.5 260t115.5 243t178.5 201t239.5 138.5t287 50.5q267 0 436.5 -166t169.5 -436q0 -110 -28.5 -219.5t-80 -207.5t-128.5 -183t-170 -147t-209 -97t-240 -35zM774 76q132 0 250 45t205.5 122t152 176.5t97 211t32.5 223.5
q0 225 -136.5 366.5t-358.5 141.5q-130 0 -249 -46.5t-207.5 -125t-154.5 -179t-99.5 -212t-33.5 -221.5q0 -227 137.5 -364.5t364.5 -137.5z" />
    <glyph glyph-name="P" unicode="P" horiz-adv-x="1204" 
d="M86 0l254 1434h426q200 0 307 -91t107 -249q0 -63 -16.5 -128t-58 -134t-103 -121.5t-161.5 -86.5t-223 -34h-313l-104 -590h-115zM324 692h305q208 0 323 107.5t115 292.5q0 239 -326 239h-305z" />
    <glyph glyph-name="Q" unicode="Q" horiz-adv-x="1783" 
d="M1626 862q0 -177 -70 -346.5t-196 -296.5l205 -205l-78 -75l-209 208q-225 -174 -508 -174q-271 0 -440.5 163t-169.5 435q0 130 39.5 260t115.5 243t178.5 201t239.5 138.5t287 50.5q267 0 436.5 -166t169.5 -436zM774 76q237 0 430 145l-184 185l78 75l186 -186
q108 113 167.5 261t59.5 298q0 225 -136.5 366.5t-358.5 141.5q-130 0 -249 -46.5t-207.5 -125t-154.5 -179t-99.5 -212t-33.5 -221.5q0 -227 137.5 -364.5t364.5 -137.5z" />
    <glyph glyph-name="R" unicode="R" horiz-adv-x="1255" 
d="M86 0l254 1434h442q200 0 300 -87t100 -235q0 -183 -119 -315t-293 -156l274 -641h-131l-268 633h-332l-112 -633h-115zM332 735h346q183 0 285 101.5t102 269.5q0 61 -23 105.5t-64.5 70t-92 37.5t-111.5 12h-338z" />
    <glyph glyph-name="S" unicode="S" horiz-adv-x="1230" 
d="M545 -27q-426 0 -463 412l108 31q10 -173 98.5 -256.5t260.5 -83.5q191 0 319.5 102t128.5 254q0 39 -12.5 70t-46 64t-101.5 61t-169 49q-97 18 -168 42.5t-130.5 63.5t-90.5 97t-31 135q0 133 76 237t199 158.5t268 54.5q382 0 415 -393l-110 -29q-5 150 -79 235
t-231 85q-178 0 -301 -96t-123 -246q0 -96 83 -146.5t262 -89.5q204 -40 304.5 -119.5t100.5 -222.5q0 -138 -76 -246t-205 -165.5t-286 -57.5z" />
    <glyph glyph-name="T" unicode="T" horiz-adv-x="1169" 
d="M438 0l236 1331h-455l19 103h1026l-19 -103h-457l-235 -1331h-115z" />
    <glyph glyph-name="U" unicode="U" horiz-adv-x="1359" 
d="M594 -29q-204 0 -318 103.5t-114 296.5q0 61 12 129l166 934h115l-166 -934q-13 -73 -13 -123q0 -159 87 -231t235 -72q84 0 157 23t138.5 72t112 135.5t67.5 203.5l164 926h115l-166 -942q-46 -256 -206 -388.5t-386 -132.5z" />
    <glyph glyph-name="V" unicode="V" horiz-adv-x="1298" 
d="M1280 1434h123l-785 -1434h-116l-275 1434h109l248 -1284z" />
    <glyph glyph-name="W" unicode="W" horiz-adv-x="1867" 
d="M1847 1434h125l-659 -1434h-119l-129 1253l-567 -1253h-119l-152 1434h115l129 -1246l559 1246h127l125 -1246z" />
    <glyph glyph-name="X" unicode="X" horiz-adv-x="1275" 
d="M1380 1434l-622 -721l366 -713h-127l-325 635l-551 -635h-148l635 727l-360 707h125l319 -627l543 627h145z" />
    <glyph glyph-name="Y" unicode="Y" horiz-adv-x="1185" 
d="M449 0l104 594l-326 840h113l281 -732l540 732h129l-622 -840l-105 -594h-114z" />
    <glyph glyph-name="Z" unicode="Z" horiz-adv-x="1273" 
d="M4 0l19 102l1161 1229h-875l19 103h1020l-19 -103l-1161 -1229h926l-19 -102h-1071z" />
    <glyph glyph-name="backslash" unicode="\" horiz-adv-x="774" 
d="M512 0l-285 1434h113l285 -1434h-113z" />
    <glyph glyph-name="underscore" unicode="_" horiz-adv-x="1024" 
d="M-123 -205l17 103h1024l-17 -103h-1024z" />
    <glyph glyph-name="a" unicode="a" horiz-adv-x="1196" 
d="M494 -27q-97 0 -174 37t-123 98.5t-69.5 137t-23.5 157.5q0 36 8 83.5t27 107.5t47.5 118.5t74.5 115t102.5 99.5t136 69t170.5 26q121 0 206.5 -51.5t133.5 -141.5l28 164h111l-174 -993h-94l14 160q-165 -187 -401 -187zM512 72q106 0 195 50t143.5 129t84.5 170.5
t30 180.5q0 146 -79.5 234t-221.5 88q-84 0 -158 -32t-126 -85t-90 -121t-56.5 -141.5t-18.5 -145.5q0 -147 79 -237t218 -90z" />
    <glyph glyph-name="b" unicode="b" horiz-adv-x="1208" 
d="M549 -27q-126 0 -212.5 52.5t-131.5 138.5l-45 -164h-94l253 1434h111l-106 -594q170 182 395 182q82 0 149.5 -23.5t112.5 -63t75.5 -93.5t44 -113.5t13.5 -124.5q0 -59 -15.5 -127t-45 -139t-77.5 -136t-108 -116.5t-143 -82t-176 -30.5zM553 72q84 0 158 33
t126.5 87.5t91 123.5t57 143t18.5 145q0 147 -79 233.5t-220 86.5q-105 0 -193 -48t-143 -125t-85 -168.5t-30 -183.5q0 -149 79.5 -238t219.5 -89z" />
    <glyph glyph-name="c" unicode="c" horiz-adv-x="1134" 
d="M510 -29q-106 0 -188 35.5t-130.5 96t-73 135.5t-24.5 161q0 77 23.5 161.5t72.5 167t117 148t166 106t209 40.5q88 0 157 -24t113 -66t71 -94t38 -115l-105 -29q-19 109 -90.5 169.5t-187.5 60.5q-87 0 -164 -32t-133 -85t-96.5 -121t-61 -142t-20.5 -145
q0 -148 84 -238.5t227 -90.5q121 0 222 69.5t159 186.5l96 -45q-73 -136 -197.5 -223t-283.5 -87z" />
    <glyph glyph-name="d" unicode="d" horiz-adv-x="1204" 
d="M481 -27q-97 0 -174 37t-122.5 98.5t-69 137t-23.5 157.5q0 36 7.5 83.5t27 107.5t48 118.5t74 115t102 99.5t136 69t170.5 26q121 0 206.5 -51.5t133.5 -141.5l109 605h111l-254 -1434h-95l15 160q-165 -187 -402 -187zM500 72q86 0 160.5 33t127 87t90.5 123.5
t56 142.5t18 144q0 146 -79.5 234t-221.5 88q-84 0 -158 -32t-126 -85t-89.5 -121t-56 -141.5t-18.5 -145.5q0 -147 79 -237t218 -90z" />
    <glyph glyph-name="e" unicode="e" horiz-adv-x="1159" 
d="M1051 473h-840q-6 -40 -6 -74q0 -148 83.5 -238.5t227.5 -90.5q122 0 223.5 61.5t145.5 153.5l96 -35q-61 -118 -180.5 -198.5t-284.5 -80.5q-198 0 -310 120.5t-112 303.5q0 104 39 213t109.5 202t182 152.5t243.5 59.5q176 0 288.5 -107t112.5 -288q0 -54 -8 -101z
M958 571q3 24 3 50q0 139 -81 221t-212 82q-155 0 -274 -100t-165 -253h729z" />
    <glyph glyph-name="f" unicode="f" horiz-adv-x="673" 
d="M139 0l158 891h-186l18 102h186l41 232q18 104 90 170.5t175 66.5q40 0 74 -7t53.5 -16t35 -21t20 -17t7.5 -10l-86 -70q-4 5 -13 13t-33 17t-52 9q-136 0 -164 -150l-37 -217h307l-18 -102h-307l-158 -891h-111z" />
    <glyph glyph-name="g" unicode="g" horiz-adv-x="1204" 
d="M418 -463q-93 0 -163.5 24t-115 68t-70 100.5t-34.5 127.5l108 20q22 -242 279 -242q185 0 291.5 93t134.5 249l37 199q-67 -85 -169.5 -139.5t-226.5 -54.5q-104 0 -183 34.5t-124.5 94t-67.5 131t-22 153.5q0 73 21.5 156t68 167t111 151.5t159 110t203.5 42.5
q242 0 342 -186l47 157h95l-181 -1020q-11 -61 -33 -118t-64.5 -116.5t-100.5 -103t-146.5 -71t-195.5 -27.5zM502 80q83 0 156.5 31.5t125.5 84.5t90.5 121t57 141.5t18.5 145.5q0 144 -78 232t-213 88q-86 0 -162 -33t-129 -87t-91.5 -123t-57 -142.5t-18.5 -143.5
q0 -144 80 -229.5t221 -85.5z" />
    <glyph glyph-name="h" unicode="h" horiz-adv-x="1101" 
d="M66 0l253 1434h111l-104 -580q147 168 374 168q128 0 207.5 -66.5t79.5 -197.5q0 -45 -8 -86l-119 -672h-110l114 643q8 44 8 88q0 106 -55 147.5t-153 41.5q-128 0 -244 -98t-144 -251l-100 -571h-110z" />
    <glyph glyph-name="i" unicode="i" horiz-adv-x="450" 
d="M356 1169q-41 0 -66.5 26.5t-25.5 66.5q0 45 34.5 78.5t80.5 33.5q40 0 65 -26t25 -66q0 -45 -34 -79t-79 -34zM82 0l176 993h111l-176 -993h-111z" />
    <glyph glyph-name="j" unicode="j" horiz-adv-x="464" 
d="M377 1169q-41 0 -66.5 26.5t-25.5 66.5q0 46 34 79t80 33q40 0 65 -26t25 -66q0 -46 -33.5 -79.5t-78.5 -33.5zM-96 -469q-26 0 -48.5 3.5t-38.5 9t-29.5 12t-22 13.5t-14 12.5l-8.5 8.5l-3 4l82 74q5 -14 28 -25.5t58 -11.5q64 0 105 40.5t53 111.5l213 1210h110
l-215 -1218q-19 -104 -93.5 -174t-176.5 -70z" />
    <glyph glyph-name="k" unicode="k" horiz-adv-x="962" 
d="M958 995l-452 -391l328 -604h-121l-289 532l-182 -157l-66 -375h-110l253 1434h111l-160 -897l533 458h155z" />
    <glyph glyph-name="l" unicode="l" horiz-adv-x="417" 
d="M66 0l253 1434h111l-254 -1434h-110z" />
    <glyph glyph-name="m" unicode="m" horiz-adv-x="1738" 
d="M66 0l176 993h94l-10 -139q144 168 356 168q106 0 176 -49t94 -135q160 184 391 184q123 0 202 -68t79 -200q0 -45 -8 -86l-119 -668h-111l111 623q10 68 10 106q0 107 -51 149t-145 42q-128 0 -236.5 -97t-136.5 -262l-100 -561h-111l111 623q10 62 10 100
q0 197 -197 197q-125 0 -236 -98t-139 -261l-100 -561h-110z" />
    <glyph glyph-name="n" unicode="n" horiz-adv-x="1101" 
d="M66 0l176 993h94l-8 -137q150 166 372 166q128 0 207.5 -66.5t79.5 -197.5q0 -45 -8 -86l-119 -672h-110l114 643q8 44 8 88q0 106 -55 147.5t-153 41.5q-128 0 -244 -98t-144 -251l-100 -571h-110z" />
    <glyph glyph-name="o" unicode="o" horiz-adv-x="1214" 
d="M520 -29q-108 0 -192 36.5t-134 98t-75 137t-25 160.5q0 75 24 158t74 165.5t119 148t168.5 106.5t212.5 41q107 0 190.5 -36.5t134 -98t76 -137t25.5 -160.5q0 -75 -23.5 -158t-73 -165.5t-118 -148t-168.5 -106.5t-215 -41zM524 70q110 0 204.5 49t155 126t94.5 168
t34 179q0 147 -87 239.5t-237 92.5q-88 0 -167 -32t-136 -85t-99 -121t-62.5 -141t-20.5 -144q0 -148 86 -239.5t235 -91.5z" />
    <glyph glyph-name="p" unicode="p" horiz-adv-x="1206" 
d="M723 1020q97 0 174 -37t122.5 -98.5t69 -137t23.5 -157.5q0 -36 -7.5 -83.5t-27 -107.5t-48 -118.5t-74 -115t-102 -99.5t-136 -69t-170.5 -26q-121 0 -206.5 51.5t-133.5 141.5l-109 -604h-110l254 1433h94l-14 -159q165 186 401 186zM705 922q-86 0 -161 -33
t-127.5 -87.5t-90.5 -124t-56 -142.5t-18 -144q0 -145 79.5 -233t221.5 -88q104 0 191.5 48.5t142 125.5t84.5 168t30 182q0 148 -78.5 238t-217.5 90z" />
    <glyph glyph-name="q" unicode="q" horiz-adv-x="1206" 
d="M657 1020q126 0 212.5 -52.5t131.5 -138.5l46 164h94l-254 -1433h-111l107 594q-171 -183 -396 -183q-82 0 -149.5 23.5t-112.5 63t-75.5 93.5t-44 113.5t-13.5 124.5q0 59 15.5 127t45 139t77.5 136t108 116.5t143 82t176 30.5zM653 922q-84 0 -158 -33t-126.5 -87.5
t-90.5 -124t-56.5 -143.5t-18.5 -145q0 -147 79 -233t220 -86q105 0 193 48t142.5 124.5t84.5 168t30 183.5q0 149 -79.5 238.5t-219.5 89.5z" />
    <glyph glyph-name="r" unicode="r" horiz-adv-x="755" 
d="M66 0l176 993h94l-6 -133q53 73 129.5 117.5t169.5 44.5q64 0 114.5 -16.5t73.5 -38.5l-65 -93q-16 16 -53.5 28.5t-88.5 12.5q-114 0 -210.5 -98t-123.5 -250l-100 -567h-110z" />
    <glyph glyph-name="s" unicode="s" horiz-adv-x="983" 
d="M428 -29q-320 0 -362 314l106 22q6 -37 12.5 -61.5t24.5 -60t44 -57.5t72 -38t107 -16q127 0 213 61.5t86 167.5q0 49 -45.5 86t-175.5 62q-70 12 -123.5 29t-100 44.5t-71.5 71t-25 100.5q0 102 58.5 178t148.5 112t195 36q156 0 236.5 -79.5t86.5 -221.5l-108 -19
q-2 98 -54.5 158t-164.5 60q-127 0 -208 -59t-81 -152q0 -27 13 -49t32.5 -36.5t53.5 -27.5t63 -20t74 -17q147 -26 228 -83.5t81 -166.5q0 -103 -62.5 -182t-156 -117.5t-197.5 -38.5z" />
    <glyph glyph-name="t" unicode="t" horiz-adv-x="712" 
d="M373 -29q-94 0 -145.5 49.5t-51.5 135.5q0 29 6 59l119 676h-190l18 102h190l46 260h110l-45 -260h305l-18 -102h-305l-121 -680q-4 -32 -4 -45q0 -50 26 -71t76 -21q35 0 68.5 14.5t54.5 32.5l57 -78q-24 -28 -76.5 -50t-119.5 -22z" />
    <glyph glyph-name="u" unicode="u" horiz-adv-x="1101" 
d="M1036 993l-176 -993h-94l8 137q-150 -166 -373 -166q-128 0 -207 67t-79 198q0 45 8 86l119 671h110l-114 -643q-9 -50 -9 -88q0 -106 55 -147t154 -41q128 0 243.5 97.5t143.5 250.5l101 571h110z" />
    <glyph glyph-name="v" unicode="v" horiz-adv-x="970" 
d="M901 993h117l-559 -993h-121l-209 993h111l178 -860z" />
    <glyph glyph-name="w" unicode="w" horiz-adv-x="1460" 
d="M1393 993h114l-481 -993h-108l-125 864l-426 -864h-109l-129 993h113l96 -837l407 837h132l118 -839z" />
    <glyph glyph-name="x" unicode="x" horiz-adv-x="933" 
d="M981 993l-449 -501l267 -492h-121l-223 418l-371 -418h-131l448 500l-266 493h121l223 -420l371 420h131z" />
    <glyph glyph-name="y" unicode="y" horiz-adv-x="1138" 
d="M963 993h110l-180 -1020q-11 -61 -31 -118t-59 -116.5t-91 -103t-130.5 -71t-173.5 -27.5q-173 0 -263 86t-104 234l111 20q9 -119 71 -178t189 -59q160 0 251 91t119 246l31 173v2q-150 -166 -373 -166q-128 0 -207 66.5t-79 197.5q0 45 8 86l117 657h110l-113 -628
q-8 -44 -8 -91q0 -105 55.5 -145.5t153.5 -40.5q123 0 236 90.5t147 235.5z" />
    <glyph glyph-name="z" unicode="z" horiz-adv-x="931" 
d="M4 0l19 104l745 787h-588l19 102h727l-19 -104l-745 -787h608l-20 -102h-746z" />
    <glyph glyph-name="uni00A0" unicode="&#xa0;" horiz-adv-x="573" 
 />
    <glyph glyph-name="cent" unicode="&#xa2;" horiz-adv-x="1132" 
d="M551 287q121 0 222 69.5t159 186.5l96 -45q-68 -127 -180.5 -212t-257.5 -96l-31 -172h-115l31 175q-88 11 -155.5 50t-108 97.5t-60.5 128t-20 147.5q0 73 21 153t65 159t105 143.5t149 109.5t188 56l33 180h115l-33 -180q143 -14 222.5 -95t101.5 -202l-105 -29
q-19 109 -90.5 169.5t-187.5 60.5q-87 0 -164 -32t-133 -85t-96.5 -121t-61 -142t-20.5 -145q0 -148 84 -238.5t227 -90.5z" />
    <glyph glyph-name="sterling" unicode="&#xa3;" horiz-adv-x="1030" 
d="M739 1360q-114 0 -207 -76.5t-118 -222.5l-52 -289h494l-18 -102h-494l-100 -568h696l-18 -102h-969l18 102h158l100 568h-157l18 102h158l51 289q33 190 156.5 295.5t285.5 105.5q74 0 132.5 -16.5t94 -42.5t59.5 -63t34.5 -72.5t13.5 -75.5l-104 -23q-3 80 -59.5 135.5
t-172.5 55.5z" />
    <glyph glyph-name="yen" unicode="&#xa5;" horiz-adv-x="1185" 
d="M1290 1434l-555 -750h277l-19 -102h-327l-29 -164h328l-19 -103h-328l-55 -315h-114l55 315h-330l19 103h329l29 164h-330l19 102h278l-291 750h113l281 -732l540 732h129z" />
    <glyph glyph-name="copyright" unicode="&#xa9;" horiz-adv-x="1720" 
d="M899 -27q-152 0 -290 59t-237.5 159t-158.5 238t-59 290t59 290t158.5 237.5t237.5 158.5t290 59t290 -59t238 -158.5t159 -237.5t59 -290q0 -203 -100 -374.5t-271.5 -271.5t-374.5 -100zM899 76q174 0 322 86.5t234.5 234.5t86.5 322t-86.5 322t-234.5 234.5t-322 86.5
t-322 -86.5t-234.5 -234.5t-86.5 -322t86.5 -322t234.5 -234.5t322 -86.5zM897 311q-174 0 -283.5 113.5t-109.5 294.5q0 177 110.5 292t280.5 115q125 0 215.5 -64t130.5 -179l-108 -35q-27 83 -88 128.5t-150 45.5q-121 0 -200 -86t-79 -217q0 -134 79.5 -218.5
t201.5 -84.5q176 0 233 159l107 -34q-41 -109 -127.5 -169.5t-212.5 -60.5z" />
    <glyph glyph-name="paragraph" unicode="&#xb6;" horiz-adv-x="1140" 
d="M1235 1434l-18 -103h-166l-314 -1771h-112l311 1771h-195l-311 -1771h-113l187 1054q-151 0 -248.5 97t-97.5 243q0 52 19 114.5t59.5 127t96 117.5t138 87t176.5 34h588z" />
    <glyph glyph-name="multiply" unicode="&#xd7;" 
d="M1225 1110l-498 -395l287 -391l-80 -64l-287 391l-508 -401l-57 76l508 403l-291 397l80 62l291 -395l497 395z" />
    <glyph glyph-name="divide" unicode="&#xf7;" horiz-adv-x="1230" 
d="M702 1040q-42 0 -62.5 25.5t-12.5 64.5q8 47 47 81t86 34q39 0 60.5 -25.5t15.5 -62.5q-9 -47 -49.5 -82t-84.5 -35zM133 666l19 102h1024l-19 -102h-1024zM561 225q-42 0 -63 25.5t-13 64.5q8 47 47 81t86 34q39 0 60.5 -25.5t15.5 -62.5q-9 -47 -49 -82t-84 -35z" />
    <glyph glyph-name="endash" unicode="&#x2013;" 
d="M115 563l18 103h1024l-18 -103h-1024z" />
    <glyph glyph-name="emdash" unicode="&#x2014;" horiz-adv-x="2252" 
d="M115 563l18 103h2048l-18 -103h-2048z" />
    <glyph glyph-name="quoteleft" unicode="&#x2018;" horiz-adv-x="348" 
d="M444 1452q-37 -34 -68.5 -80t-41.5 -86q28 -6 46.5 -30.5t18.5 -53.5q0 -49 -32.5 -79.5t-75.5 -30.5q-40 0 -67 26t-27 72q0 69 55 164.5t137 154.5z" />
    <glyph glyph-name="quoteright" unicode="&#x2019;" horiz-adv-x="350" 
d="M188 1149q37 34 69 80.5t42 85.5q-28 6 -47 30.5t-19 53.5q0 49 33 79.5t76 30.5q40 0 67 -26t27 -72q0 -69 -55 -164.5t-137 -154.5z" />
    <glyph glyph-name="quotedblleft" unicode="&#x201c;" horiz-adv-x="651" 
d="M444 1454q-37 -34 -68.5 -80t-41.5 -86q28 -6 46.5 -30.5t18.5 -53.5q0 -49 -32.5 -79.5t-75.5 -30.5q-40 0 -67 26t-27 72q0 69 55 164.5t137 154.5zM748 1454q-37 -34 -69 -80.5t-42 -85.5q28 -6 46.5 -30.5t18.5 -53.5q0 -49 -32.5 -79.5t-75.5 -30.5q-40 0 -67 26
t-27 72q0 69 55 164.5t137 154.5z" />
    <glyph glyph-name="quotedblright" unicode="&#x201d;" horiz-adv-x="651" 
d="M188 1147q37 34 69 80.5t42 85.5q-28 6 -47 30.5t-19 53.5q0 49 33 79.5t76 30.5q40 0 67 -26t27 -72q0 -69 -55 -164.5t-137 -154.5zM492 1147q37 34 68.5 80t41.5 86q-28 6 -46.5 30.5t-18.5 53.5q0 49 32.5 79.5t75.5 30.5q40 0 67 -26t27 -72q0 -69 -55 -164.5
t-137 -154.5z" />
    <glyph glyph-name="bullet" unicode="&#x2022;" horiz-adv-x="448" 
d="M227 461q-59 0 -97 37.5t-38 95.5q0 70 52.5 122t123.5 52q58 0 94.5 -37t36.5 -94q0 -72 -51.5 -124t-120.5 -52z" />
    <glyph glyph-name="Euro" unicode="&#x20ac;" horiz-adv-x="1527" 
d="M1094 1462q291 0 440 -209l-86 -61q-116 168 -361 168q-213 0 -377.5 -115t-260.5 -299h565l-47 -102h-564q-45 -118 -51 -250h508l-47 -102h-457q21 -194 148.5 -307t339.5 -113q145 0 248.5 45.5t189.5 124.5l76 -70q-215 -201 -514 -201q-258 0 -418 142.5t-182 378.5
h-203l47 102h152q6 135 47 250h-185l48 102h178q50 109 125 201t171 163.5t217 111.5t253 40z" />
    <glyph glyph-name="minus" unicode="&#x2212;" 
d="M133 666l19 102h1024l-19 -102h-1024z" />
    </font>
</defs>
</svg>
