<?xml version="1.0" standalone="no"?>
<!DOCTYPE svg PUBLIC "-//W3C//DTD SVG 1.1//EN" "http://www.w3.org/Graphics/SVG/1.1/DTD/svg11.dtd" >
<svg xmlns="http://www.w3.org/2000/svg" xmlns:xlink="http://www.w3.org/1999/xlink" version="1.1">
<metadata>
Created by FontForge 20170731 at Fri May 28 20:07:31 2021
 By Aleksey,,,
Copyright 2017 OMSE LTD. All rights reserved.
</metadata>
<defs>
<font id="ModernEraTRIAL-MediumItalic" horiz-adv-x="1228" >
  <font-face 
    font-family="Modern Era TRIAL Medium Italic"
    font-weight="500"
    font-style="italic"
    font-stretch="normal"
    units-per-em="2048"
    panose-1="2 0 0 0 0 0 0 0 0 0"
    ascent="1608"
    descent="-440"
    x-height="1014"
    cap-height="1434"
    bbox="-281 -449 2185 1593"
    underline-thickness="176"
    underline-position="-366"
    slope="-10"
    unicode-range="U+000D-2212"
  />
<missing-glyph horiz-adv-x="1720" 
d="M897 -29q-151 0 -289 59t-238 159t-159 238t-59 290t59 290t159 237.5t238 158.5t289 59q152 0 290 -59t237.5 -158.5t158.5 -237.5t59 -290t-59 -290t-158.5 -238t-237.5 -159t-290 -59zM897 104q166 0 307.5 82t224 223.5t82.5 307.5t-82.5 307t-224 223t-307.5 82
t-307 -82t-223 -223t-82 -307t82 -307.5t223 -223.5t307 -82zM668 717q-52 0 -89.5 37t-37.5 88q0 52 37.5 89.5t89.5 37.5t88.5 -37t36.5 -90q0 -51 -36.5 -88t-88.5 -37zM1126 717q-52 0 -88.5 37t-36.5 88q0 53 36.5 90t88.5 37t89.5 -37.5t37.5 -89.5q0 -51 -37.5 -88
t-89.5 -37z" />
    <glyph glyph-name=".notdef" horiz-adv-x="1720" 
d="M897 -29q-151 0 -289 59t-238 159t-159 238t-59 290t59 290t159 237.5t238 158.5t289 59q152 0 290 -59t237.5 -158.5t158.5 -237.5t59 -290t-59 -290t-158.5 -238t-237.5 -159t-290 -59zM897 104q166 0 307.5 82t224 223.5t82.5 307.5t-82.5 307t-224 223t-307.5 82
t-307 -82t-223 -223t-82 -307t82 -307.5t223 -223.5t307 -82zM668 717q-52 0 -89.5 37t-37.5 88q0 52 37.5 89.5t89.5 37.5t88.5 -37t36.5 -90q0 -51 -36.5 -88t-88.5 -37zM1126 717q-52 0 -88.5 37t-36.5 88q0 53 36.5 90t88.5 37t89.5 -37.5t37.5 -89.5q0 -51 -37.5 -88
t-89.5 -37z" />
    <glyph glyph-name=".null" horiz-adv-x="0" 
 />
    <glyph glyph-name="nonmarkingreturn" horiz-adv-x="682" 
 />
    <glyph glyph-name="CR" unicode="&#xd;" horiz-adv-x="573" 
 />
    <glyph glyph-name="space" unicode=" " horiz-adv-x="573" 
 />
    <glyph glyph-name="exclam" unicode="!" horiz-adv-x="591" 
d="M174 389l184 1045h205l-184 -1045h-205zM217 -14q-56 0 -91.5 37.5t-35.5 91.5q0 55 45 100t105 45q55 0 90 -37t35 -92q0 -58 -46 -101.5t-102 -43.5z" />
    <glyph glyph-name="quotedbl" unicode="&#x22;" horiz-adv-x="673" 
d="M160 1051l80 456h202l-80 -456h-202zM504 1051l80 456h202l-79 -456h-203z" />
    <glyph glyph-name="numbersign" unicode="#" horiz-adv-x="1558" 
d="M1563 899h-310l-114 -367h293l-29 -167h-316l-114 -365h-182l114 365h-401l-115 -365h-178l115 365h-287l29 167h309l115 367h-295l30 168h318l114 367h179l-115 -367h403l117 367h178l-114 -367h286zM958 532l117 367h-405l-115 -367h403z" />
    <glyph glyph-name="dollar" unicode="$" horiz-adv-x="1230" 
d="M782 811q177 -47 264 -128t87 -212q0 -196 -140.5 -330t-355.5 -161l-25 -140h-198l24 140q-167 23 -263.5 125.5t-111.5 275.5l199 55q11 -118 61.5 -184t147.5 -86l86 489q-165 42 -251.5 120.5t-86.5 207.5q0 128 64 232t172 166t243 79l23 133h199l-25 -139
q146 -27 229 -126.5t95 -254.5l-201 -53q-13 203 -156 246zM426 1024q-3 -61 38 -100t128 -66l72 412q-103 -24 -168.5 -88.5t-69.5 -157.5zM670 170q114 25 184 97.5t70 170.5q0 57 -40 99t-136 73z" />
    <glyph glyph-name="ampersand" unicode="&#x26;" horiz-adv-x="1198" 
d="M1217 852l-29 -168h-144l-47 -268q-35 -198 -179.5 -322.5t-336.5 -124.5q-188 0 -303 103t-115 272q0 76 28 155.5t94 159t159 127.5q-86 86 -86 220q0 54 17 113.5t56 120.5t94.5 109.5t140.5 79.5t186 31q165 0 260.5 -83t101.5 -218l-190 -41q-1 78 -53 122t-136 44
q-88 0 -154.5 -41.5t-97 -100.5t-30.5 -122q0 -78 54.5 -123t143.5 -45h232l24 137h193l-25 -137h142zM807 422l47 262h-240q-142 0 -243 -95t-101 -227q0 -96 65 -152t165 -56q109 0 197.5 73.5t109.5 194.5z" />
    <glyph glyph-name="quotesingle" unicode="'" horiz-adv-x="329" 
d="M160 1051l80 456h202l-80 -456h-202z" />
    <glyph glyph-name="parenleft" unicode="(" horiz-adv-x="583" 
d="M190 -342q-21 52 -30.5 78t-31 96t-32.5 128.5t-20.5 148.5t-9.5 184q0 337 119 674t331 604l154 -119q-196 -245 -305 -549.5t-109 -609.5q0 -127 20 -244.5t38 -171.5t48 -131q2 -6 4 -10t3 -8z" />
    <glyph glyph-name="parenright" unicode=")" horiz-adv-x="583" 
d="M430 1571q26 -67 39 -104.5t37.5 -124.5t36.5 -188.5t12 -217.5q0 -336 -119 -673.5t-332 -604.5l-153 119q196 245 305 549.5t109 609.5q0 127 -20 244.5t-38 171.5t-48 131q-5 12 -7 18z" />
    <glyph glyph-name="asterisk" unicode="*" horiz-adv-x="890" 
d="M938 1176l-262 -82l117 -209l-136 -84l-118 215l-199 -219l-109 94l193 213l-231 80l69 143l240 -82l47 262h151l-47 -262l254 76z" />
    <glyph glyph-name="plus" unicode="+" 
d="M467 205l74 420h-416l31 184h417l74 420h189l-72 -420h416l-31 -184h-418l-76 -420h-188z" />
    <glyph glyph-name="comma" unicode="," horiz-adv-x="401" 
d="M-41 -195q43 41 77.5 94.5t49.5 100.5q-39 7 -64.5 40t-25.5 73q0 63 42 105t103 42q55 0 91 -35t36 -92q0 -91 -65 -205.5t-166 -197.5z" />
    <glyph glyph-name="hyphen" unicode="-" horiz-adv-x="739" 
d="M106 522l31 185h535l-31 -185h-535z" />
    <glyph glyph-name="period" unicode="." horiz-adv-x="401" 
d="M123 -14q-56 0 -91.5 36t-35.5 89q0 61 44.5 105t104.5 44q54 0 89.5 -36t35.5 -89q0 -60 -44 -104.5t-103 -44.5z" />
    <glyph glyph-name="slash" unicode="/" horiz-adv-x="890" 
d="M-27 0l803 1434h215l-803 -1434h-215z" />
    <glyph glyph-name="zero" unicode="0" horiz-adv-x="1234" 
d="M545 -29q-110 0 -194 40t-136.5 112t-79 168.5t-26.5 214.5q0 77 10 161t34 178t58.5 181t88.5 167t120 139.5t156 94.5t194 35q145 0 244 -70t143.5 -186.5t44.5 -273.5q0 -75 -10 -158.5t-33 -178t-57.5 -182.5t-88 -169t-119 -141t-156 -96t-193.5 -36zM559 160
q93 0 170.5 57t125.5 143.5t81.5 193.5t47 200.5t13.5 171.5q0 160 -59 254t-184 94q-68 0 -128.5 -30t-104.5 -80t-80.5 -116t-60.5 -137t-40.5 -145.5t-23.5 -138.5t-7 -117q0 -162 61 -256t189 -94z" />
    <glyph glyph-name="one" unicode="1" horiz-adv-x="710" 
d="M240 0l215 1208q-61 -36 -149.5 -65t-153.5 -37l38 207q71 12 154.5 45.5t149.5 75.5h204l-254 -1434h-204z" />
    <glyph glyph-name="two" unicode="2" horiz-adv-x="1142" 
d="M25 0l34 190l553 422q181 138 255.5 236t74.5 211q0 93 -63 154t-170 61q-127 0 -226 -83.5t-123 -221.5l-182 55q29 131 112 231.5t198 153.5t243 53q185 0 300.5 -104t115.5 -268q0 -169 -93.5 -305t-310.5 -302l-387 -295h641l-32 -188h-940z" />
    <glyph glyph-name="three" unicode="3" horiz-adv-x="1181" 
d="M512 -29q-202 0 -324 110t-122 273q0 5 1 17t1 18l192 55q-2 -8 -2 -28q0 -112 70.5 -184t191.5 -72q105 0 190 50t130 129.5t45 168.5q0 105 -69.5 170t-192.5 65q-57 0 -109 -16l-94 127l454 391h-614l35 189h868l-35 -189l-393 -342q157 -8 257 -107t100 -261
q0 -43 -9 -91.5t-30 -103.5t-52 -107t-78 -100t-105 -83.5t-137 -57t-169 -21.5z" />
    <glyph glyph-name="four" unicode="4" horiz-adv-x="1165" 
d="M627 0l67 375h-659l26 155l797 904h227l-155 -883h186l-31 -176h-186l-68 -375h-204zM299 549l426 2l104 596z" />
    <glyph glyph-name="five" unicode="5" horiz-adv-x="1185" 
d="M510 -29q-198 0 -322.5 105.5t-126.5 255.5q0 5 1 18t1 19l199 55q-2 -10 -2 -29q0 -106 75 -170.5t193 -64.5q149 0 255 104t106 252q0 107 -69.5 173.5t-188.5 66.5q-82 0 -156.5 -32.5t-118.5 -76.5l-168 64l205 723h772l-32 -189h-601l-108 -377q40 26 107.5 46
t142.5 20q192 0 306 -111t114 -291q0 -154 -78.5 -283t-212.5 -203.5t-293 -74.5z" />
    <glyph glyph-name="six" unicode="6" horiz-adv-x="1202" 
d="M541 -29q-214 0 -327.5 123t-113.5 350q0 79 9.5 166.5t33 188t58 193.5t89.5 179.5t122.5 150t162 102t203.5 38.5q183 0 285.5 -97t116.5 -255l-191 -55q-25 219 -229 219q-87 0 -154 -34t-114 -101t-78.5 -149t-55.5 -193q51 53 137.5 95t194.5 42q187 0 304.5 -105.5
t117.5 -283.5q0 -106 -39 -207.5t-110 -184t-181 -132.5t-241 -50zM549 160q105 0 187.5 52.5t124.5 133t42 170.5q0 108 -67 171t-183 63q-152 0 -252 -106.5t-100 -246.5q0 -104 67 -170.5t181 -66.5z" />
    <glyph glyph-name="seven" unicode="7" horiz-adv-x="1046" 
d="M199 0q105 290 308 653.5t380 591.5h-699l33 189h934l-35 -189q-186 -227 -396.5 -590.5t-315.5 -654.5h-209z" />
    <glyph glyph-name="eight" unicode="8" horiz-adv-x="1167" 
d="M930 768q139 -104 139 -283q0 -62 -18.5 -129t-62.5 -137t-107 -125t-161.5 -90t-217.5 -35q-195 0 -315.5 104t-120.5 273q0 55 15.5 113.5t46 118.5t84 114.5t122.5 91.5q-94 88 -94 222q0 52 16.5 110.5t55.5 120t94.5 111t143 81t191.5 31.5q169 0 277 -93.5
t108 -242.5q0 -101 -50.5 -197.5t-145.5 -158.5zM442 1020q0 -70 46 -114t120 -52h27h35q81 6 141 47.5t87.5 97t27.5 113.5q0 80 -55.5 126t-145.5 46q-130 0 -206.5 -81.5t-76.5 -182.5zM518 154q147 0 246.5 94t99.5 225q0 98 -67.5 154.5t-175.5 56.5q-80 0 -147.5 -29
t-110.5 -75.5t-67 -102t-24 -110.5q0 -97 70 -155t176 -58z" />
    <glyph glyph-name="nine" unicode="9" horiz-adv-x="1202" 
d="M735 1462q214 0 327.5 -123t113.5 -350q0 -79 -9.5 -166.5t-33 -188t-58 -193.5t-89.5 -179.5t-122.5 -150t-162 -102t-203.5 -38.5q-183 0 -285.5 97t-116.5 256l191 55q25 -219 229 -219q87 0 154 34t114 101t78.5 149t55.5 193q-51 -53 -137.5 -95t-194.5 -42
q-187 0 -304.5 105.5t-117.5 283.5q0 106 39 207.5t110 183.5t181 132t241 50zM727 1274q-105 0 -187.5 -52.5t-124.5 -133t-42 -170.5q0 -108 67 -171t183 -63q152 0 252 106t100 246q0 104 -67 171t-181 67z" />
    <glyph glyph-name="colon" unicode=":" horiz-adv-x="403" 
d="M229 602q-54 0 -88.5 35.5t-34.5 89.5q0 61 43.5 105.5t102.5 44.5q57 0 93 -35t36 -88q0 -61 -46 -106.5t-106 -45.5zM123 -14q-55 0 -91 36t-36 89q0 61 44.5 105t104.5 44q55 0 91 -36.5t36 -90.5q0 -59 -45 -103t-104 -44z" />
    <glyph glyph-name="semicolon" unicode=";" horiz-adv-x="411" 
d="M238 602q-54 0 -88.5 35.5t-34.5 89.5q0 61 43 105.5t102 44.5q55 0 92 -35t37 -88q0 -61 -45.5 -106.5t-105.5 -45.5zM-41 -195q43 41 77.5 94.5t49.5 100.5q-39 7 -64.5 40t-25.5 73q0 63 42 105t103 42q55 0 91 -35t36 -92q0 -91 -65 -205.5t-166 -197.5z" />
    <glyph glyph-name="equal" unicode="=" 
d="M166 862l33 185h1024l-33 -185h-1024zM82 387l31 184h1024l-31 -184h-1024z" />
    <glyph glyph-name="question" unicode="?" horiz-adv-x="1060" 
d="M1092 1071q0 -44 -12 -96.5t-43.5 -117.5t-78 -120.5t-125 -103t-176.5 -68.5l-32 -184h-205l59 336h33q81 0 147.5 24.5t108 61.5t70 83.5t40 89t11.5 79.5q0 99 -59.5 160t-161.5 61q-131 0 -220.5 -77t-113.5 -204l-174 54q41 187 183.5 301t338.5 114
q181 0 295.5 -110.5t114.5 -282.5zM492 260q56 0 91 -36t35 -91q0 -60 -44.5 -103.5t-104.5 -43.5q-54 0 -89.5 36t-35.5 89q0 59 45 104t103 45z" />
    <glyph glyph-name="at" unicode="@" horiz-adv-x="1716" 
d="M979 1251q287 0 461 -168.5t174 -441.5q0 -77 -13 -148.5t-43 -137.5t-74 -114t-110.5 -77t-148.5 -29q-81 0 -134.5 29.5t-74.5 81.5q-119 -111 -260 -111q-120 0 -189 77t-69 194q0 58 18.5 120.5t55 122.5t86 108t118 77.5t144.5 29.5q73 0 122 -27.5t72 -68.5l31 76
h131l-123 -467v-4v-2l-2 -6q-2 -8 -2 -23q0 -57 76 -57q63 0 111 33.5t73.5 87.5t38 111.5t12.5 117.5q0 211 -130 341t-351 130q-107 0 -202 -27t-166.5 -72.5t-131.5 -106t-100 -126.5t-68 -135t-40.5 -130.5t-12.5 -113.5q0 -209 137 -350t350 -141q173 0 332 94l74 -125
q-78 -49 -188 -82t-224 -33q-138 0 -257 48t-202.5 131.5t-130.5 199.5t-47 248q0 90 27 188t76.5 194.5t127 184t172 154t217.5 106t257 39.5zM795 281q75 0 136.5 48t91.5 113.5t30 128.5q0 67 -38.5 107.5t-105.5 40.5q-70 0 -131 -45t-94 -112t-33 -134t39 -107t105 -40
z" />
    <glyph glyph-name="A" unicode="A" horiz-adv-x="1374" 
d="M1036 0l-71 362h-594l-199 -362h-217l790 1434h211l283 -1434h-203zM471 547h459l-121 616z" />
    <glyph glyph-name="B" unicode="B" horiz-adv-x="1245" 
d="M68 0l254 1434h518q173 0 267.5 -86t94.5 -224q0 -120 -60.5 -222t-174.5 -161q71 -28 123.5 -93t52.5 -167q0 -51 -14 -109t-52.5 -125.5t-96 -121t-155 -89.5t-219.5 -36h-538zM416 815h307q73 0 128.5 27t86 70t45 88.5t14.5 91.5q0 78 -49.5 119.5t-146.5 41.5h-307z
M305 180h334q72 0 130 25.5t93.5 67.5t54.5 92.5t19 103.5q0 81 -56 127.5t-178 46.5h-315z" />
    <glyph glyph-name="C" unicode="C" horiz-adv-x="1552" 
d="M752 -29q-283 0 -449 162.5t-166 433.5q0 129 37.5 257.5t112 243t175 202.5t236.5 140t287 52q236 0 382.5 -118.5t182.5 -327.5l-202 -60q-23 152 -118 235t-251 83q-116 0 -219.5 -42t-178.5 -111.5t-130.5 -159t-83 -186.5t-27.5 -191q0 -194 114 -309t306 -115
q171 0 296.5 82t194.5 215l185 -70q-102 -198 -279 -307t-405 -109z" />
    <glyph glyph-name="D" unicode="D" horiz-adv-x="1447" 
d="M68 0l254 1434h464q125 0 226 -29t169.5 -80t115.5 -121.5t68 -151.5t21 -173q0 -96 -21 -195.5t-63 -199t-111 -186t-158 -153.5t-211.5 -106t-264.5 -39h-489zM305 184h273q134 0 241.5 47.5t173.5 120.5t110 167.5t61.5 182.5t17.5 172q0 375 -434 375h-254z" />
    <glyph glyph-name="E" unicode="E" horiz-adv-x="1144" 
d="M68 0l254 1434h884l-32 -185h-680l-78 -436h596l-33 -180h-594l-80 -449h680l-33 -184h-884z" />
    <glyph glyph-name="F" unicode="F" horiz-adv-x="1144" 
d="M68 0l254 1434h884l-32 -185h-680l-84 -471h598l-33 -180h-596l-107 -598h-204z" />
    <glyph glyph-name="G" unicode="G" horiz-adv-x="1622" 
d="M750 -29q-184 0 -324 77.5t-214.5 214t-74.5 310.5q0 114 34 235t105.5 238t170.5 209.5t242 149.5t306 57q222 0 362 -109.5t177 -287.5l-197 -61q-28 126 -115 198t-241 72q-114 0 -217.5 -41.5t-179 -110.5t-131 -157t-83.5 -183.5t-28 -187.5q0 -195 116.5 -314.5
t317.5 -119.5q111 0 205.5 38.5t158.5 102.5t105.5 140.5t59.5 160.5l-334 -4l28 176h537l-137 -774h-146l7 186q-25 -31 -67 -64.5t-105 -69t-152.5 -58.5t-185.5 -23z" />
    <glyph glyph-name="H" unicode="H" horiz-adv-x="1411" 
d="M68 0l254 1434h204l-108 -609h686l108 609h205l-254 -1434h-205l113 637h-686l-113 -637h-204z" />
    <glyph glyph-name="I" unicode="I" horiz-adv-x="520" 
d="M68 0l254 1434h204l-254 -1434h-204z" />
    <glyph glyph-name="J" unicode="J" horiz-adv-x="1056" 
d="M391 -29q-163 0 -261.5 89t-98.5 235q0 35 6 76l12 63l195 -37l-6 -24q-5 -45 -5 -51q0 -74 47 -118t134 -44q109 0 178.5 67t91.5 187l178 1020h205l-180 -1020q-39 -220 -169.5 -331.5t-326.5 -111.5z" />
    <glyph glyph-name="K" unicode="K" horiz-adv-x="1294" 
d="M1397 1434l-674 -611l436 -823h-239l-355 680l-207 -188l-88 -492h-202l254 1434h202l-112 -635l714 635h271z" />
    <glyph glyph-name="L" unicode="L" horiz-adv-x="1079" 
d="M68 0l254 1434h204l-221 -1246h658l-33 -188h-862z" />
    <glyph glyph-name="M" unicode="M" horiz-adv-x="1785" 
d="M1786 1434l-256 -1434h-201l189 1069l-639 -1069h-152l-262 1055l-189 -1055h-202l254 1434h235l287 -1151l688 1151h248z" />
    <glyph glyph-name="N" unicode="N" horiz-adv-x="1492" 
d="M74 0l254 1434h215l544 -1115l199 1115h207l-254 -1434h-215l-547 1112l-198 -1112h-205z" />
    <glyph glyph-name="O" unicode="O" horiz-adv-x="1683" 
d="M764 -27q-189 0 -332 79.5t-218 217t-75 312.5q0 91 23.5 188.5t68.5 197t117.5 188.5t164.5 158t216.5 109.5t265.5 40.5q188 0 331 -80t218.5 -218t75.5 -312q0 -78 -17 -161.5t-52 -169.5t-85.5 -166t-122 -150t-156.5 -122t-194 -82t-229 -30zM778 162
q117 0 220.5 40.5t178 108.5t128.5 155.5t81 184t27 191.5q0 193 -116 313.5t-314 120.5q-117 0 -220.5 -41t-179 -109.5t-130.5 -156.5t-82 -184t-27 -191q0 -196 115.5 -314t318.5 -118z" />
    <glyph glyph-name="P" unicode="P" horiz-adv-x="1220" 
d="M68 0l254 1434h479q189 0 304.5 -91.5t115.5 -265.5q0 -78 -21 -153.5t-66.5 -144.5t-110.5 -120.5t-159 -82.5t-205 -31h-290l-97 -545h-204zM401 729h265q89 0 157.5 27t109 73.5t61 102.5t20.5 119q0 98 -67 148t-189 50h-264z" />
    <glyph glyph-name="Q" unicode="Q" horiz-adv-x="1753" 
d="M1620 854q0 -148 -61 -310t-175 -292l179 -178l-138 -131l-180 180q-212 -150 -481 -150q-189 0 -332 79.5t-218 217t-75 312.5q0 91 23.5 188.5t68.5 197t117.5 188.5t164.5 158t216.5 109.5t265.5 40.5q188 0 331 -80t218.5 -218t75.5 -312zM778 162q182 0 332 96
l-160 160l137 133l162 -164q79 97 121.5 217t42.5 238q0 193 -116 313.5t-314 120.5q-117 0 -220.5 -41t-179 -109.5t-130.5 -156.5t-82 -184t-27 -191q0 -196 115.5 -314t318.5 -118z" />
    <glyph glyph-name="R" unicode="R" horiz-adv-x="1271" 
d="M68 0l254 1434h491q195 0 300.5 -94.5t105.5 -247.5q0 -169 -106 -306t-271 -178l248 -608h-228l-233 584h-252l-105 -584h-204zM410 764h284q79 0 141 25.5t99.5 69t56.5 96t19 110.5q0 92 -63.5 138t-170.5 46h-282z" />
    <glyph glyph-name="S" unicode="S" horiz-adv-x="1230" 
d="M541 -27q-213 0 -337 104.5t-141 303.5l199 55q12 -141 84 -209.5t213 -68.5q156 0 260.5 79t104.5 201q0 70 -62 118t-213 79q-211 39 -320.5 120.5t-109.5 227.5q0 106 45 196.5t121 152.5t178.5 97t216.5 35q199 0 311.5 -103t127.5 -288l-201 -53q-16 260 -252 260
q-141 0 -237.5 -70t-102.5 -186q-3 -80 67 -122.5t224 -76.5q211 -44 313.5 -127.5t102.5 -226.5q0 -146 -80.5 -260.5t-215 -176t-296.5 -61.5z" />
    <glyph glyph-name="T" unicode="T" horiz-adv-x="1177" 
d="M397 0l219 1245h-426l33 189h1061l-35 -189h-428l-219 -1245h-205z" />
    <glyph glyph-name="U" unicode="U" horiz-adv-x="1402" 
d="M616 -29q-102 0 -186 26.5t-146.5 78.5t-97 136t-34.5 194q0 64 12 141l158 887h204l-157 -887q-13 -70 -13 -121q0 -266 281 -266q161 0 268.5 97t143.5 296l155 881h205l-158 -904q-26 -146 -86.5 -255.5t-146 -175t-186 -97t-216.5 -31.5z" />
    <glyph glyph-name="V" unicode="V" horiz-adv-x="1370" 
d="M1264 1434h225l-784 -1434h-220l-276 1434h209l221 -1164z" />
    <glyph glyph-name="W" unicode="W" horiz-adv-x="1918" 
d="M1823 1434h215l-658 -1434h-204l-109 1141l-508 -1141h-201l-149 1434h207l102 -1117l494 1117h211l104 -1115z" />
    <glyph glyph-name="X" unicode="X" horiz-adv-x="1341" 
d="M1460 1434l-610 -717l356 -717h-229l-283 565l-483 -565h-256l629 733l-348 701h229l272 -549l469 549h254z" />
    <glyph glyph-name="Y" unicode="Y" horiz-adv-x="1275" 
d="M446 0l101 571l-338 863h215l252 -660l487 660h232l-643 -863l-101 -571h-205z" />
    <glyph glyph-name="Z" unicode="Z" horiz-adv-x="1251" 
d="M-6 0l33 180l1009 1069h-764l33 185h1026l-33 -181l-1009 -1069h811l-33 -184h-1073z" />
    <glyph glyph-name="backslash" unicode="\" horiz-adv-x="847" 
d="M512 0l-295 1434h193l297 -1434h-195z" />
    <glyph glyph-name="underscore" unicode="_" horiz-adv-x="1024" 
d="M-137 -279l28 177h1024l-28 -177h-1024z" />
    <glyph glyph-name="a" unicode="a" horiz-adv-x="1234" 
d="M494 -27q-125 0 -219.5 60.5t-142.5 160t-48 220.5q0 71 21 152.5t68.5 166.5t113 153.5t165 112t214.5 43.5q112 0 191 -46.5t120 -118.5l24 137h201l-178 -1014h-166l-2 137q-148 -164 -362 -164zM541 154q116 0 205.5 69t132.5 167t43 200q0 123 -68.5 197.5
t-185.5 74.5q-111 0 -200 -65.5t-135 -164t-46 -204.5q0 -124 69 -199t185 -75z" />
    <glyph glyph-name="b" unicode="b" horiz-adv-x="1243" 
d="M582 -27q-120 0 -201 48.5t-117 119.5l-55 -141h-166l254 1434h201l-99 -547q151 155 355 155q190 0 300.5 -124t110.5 -310q0 -82 -24 -169t-73.5 -170.5t-117 -149.5t-163.5 -106t-205 -40zM580 154q70 0 132 26.5t107 70.5t78 100.5t49.5 117.5t16.5 121
q0 123 -69.5 197.5t-188.5 74.5q-87 0 -160.5 -39.5t-120 -103t-72.5 -140t-26 -153.5q0 -124 68 -198t186 -74z" />
    <glyph glyph-name="c" unicode="c" horiz-adv-x="1142" 
d="M520 -29q-204 0 -322 126.5t-118 318.5q0 86 25.5 174t77 169t122.5 144t170.5 101t212.5 38q169 0 274 -89.5t128 -227.5l-191 -57q-15 90 -74.5 140t-154.5 50q-88 0 -164 -39.5t-124.5 -102.5t-75.5 -138.5t-27 -149.5q0 -122 70.5 -197t189.5 -75q96 0 175.5 52
t125.5 142l172 -67q-73 -142 -201.5 -227t-290.5 -85z" />
    <glyph glyph-name="d" unicode="d" horiz-adv-x="1241" 
d="M485 -27q-124 0 -218 60.5t-141.5 160t-47.5 220.5q0 71 21 152.5t67.5 166.5t112 153.5t165 112t215.5 43.5q112 0 191.5 -47t120.5 -118l100 557h201l-254 -1434h-166l-2 137q-148 -164 -365 -164zM535 154q71 0 133 26.5t106.5 70.5t76.5 100.5t48 117.5t16 121
q0 123 -68.5 197.5t-187.5 74.5q-110 0 -198.5 -65.5t-134 -164t-45.5 -204.5q0 -124 68.5 -199t185.5 -75z" />
    <glyph glyph-name="e" unicode="e" horiz-adv-x="1159" 
d="M1061 444h-791q0 -8 -1 -22t-1 -21q0 -115 70 -188.5t192 -73.5q107 0 189.5 52.5t118.5 123.5l163 -55q-45 -83 -107.5 -145t-160.5 -103t-217 -41q-196 0 -316 122t-120 313q0 118 45 232.5t122 203.5t189 143.5t238 54.5q187 0 299 -110t112 -297q0 -44 -10 -109z
M907 602v25q2 101 -61 173t-184 72q-130 0 -226.5 -76t-134.5 -194h606z" />
    <glyph glyph-name="f" unicode="f" horiz-adv-x="739" 
d="M131 0l148 834h-181l33 180h178l31 170q23 129 109.5 204.5t203.5 75.5q54 0 97.5 -10t69.5 -26t38.5 -26.5t20.5 -21.5l-119 -135q-37 37 -92 37q-109 0 -133 -125l-25 -143h276l-30 -180h-277l-147 -834h-201z" />
    <glyph glyph-name="g" unicode="g" 
d="M434 -446q-97 0 -173 25.5t-124.5 71t-76 103.5t-33.5 127l188 41q16 -196 234 -196q150 0 242.5 76.5t117.5 213.5l27 148q-54 -71 -145.5 -117.5t-205.5 -46.5q-190 0 -297.5 119t-107.5 303q0 82 23.5 168t72 167t115 144.5t160 102t200.5 38.5q118 0 196 -48.5
t114 -116.5l59 137h166l-176 -998q-16 -97 -60 -179.5t-114 -146.5t-173 -100t-229 -36zM532 180q86 0 158 38t118 99t71.5 135t25.5 150q0 119 -67 189.5t-181 70.5q-87 0 -160 -39t-119 -101t-71.5 -136.5t-25.5 -149.5q0 -119 67 -187.5t184 -68.5z" />
    <glyph glyph-name="h" unicode="h" horiz-adv-x="1138" 
d="M43 0l254 1434h199l-97 -541q139 149 338 149q141 0 222 -72.5t81 -217.5q0 -52 -12 -117l-113 -635h-198l106 604q8 41 8 82q0 92 -47 130t-131 38q-108 0 -197.5 -79t-113.5 -214l-100 -561h-199z" />
    <glyph glyph-name="i" unicode="i" horiz-adv-x="487" 
d="M377 1165q-53 0 -88 34.5t-35 86.5q0 58 43.5 99.5t99.5 41.5q52 0 86.5 -34.5t34.5 -85.5q0 -55 -42.5 -98.5t-98.5 -43.5zM53 0l180 1014h201l-180 -1014h-201z" />
    <glyph glyph-name="j" unicode="j" horiz-adv-x="503" 
d="M393 1165q-53 0 -88 34.5t-35 86.5q0 58 44 99.5t100 41.5q52 0 86.5 -34.5t34.5 -85.5q0 -55 -43 -98.5t-99 -43.5zM-74 -449q-132 0 -204 75l-1.5 1.5l-1.5 1.5l117 142q22 -35 84 -35q53 0 86.5 33.5t42.5 91.5l203 1153h201l-207 -1180q-24 -128 -114 -205.5
t-206 -77.5z" />
    <glyph glyph-name="k" unicode="k" horiz-adv-x="1044" 
d="M1055 1014l-453 -402l322 -612h-224l-251 477l-144 -125l-61 -352h-201l254 1434h201l-144 -813l447 393h254z" />
    <glyph glyph-name="l" unicode="l" horiz-adv-x="466" 
d="M43 0l254 1434h201l-254 -1434h-201z" />
    <glyph glyph-name="m" unicode="m" horiz-adv-x="1732" 
d="M43 0l180 1014h166l4 -125q137 153 338 153q107 0 172.5 -46t89.5 -119q148 165 361 165q128 0 206 -69.5t78 -204.5q0 -52 -10 -96l-119 -672h-200l110 614q6 47 6 82q0 85 -41 121.5t-118 36.5q-102 0 -182.5 -74.5t-104.5 -208.5l-100 -571h-201l108 614q9 65 9 78
q0 162 -160 162q-101 0 -184 -75t-105 -208l-102 -571h-201z" />
    <glyph glyph-name="n" unicode="n" horiz-adv-x="1140" 
d="M43 0l180 1014h166l4 -125q140 153 344 153q143 0 223 -73t80 -219q0 -65 -10 -119l-112 -631h-201l108 606q6 44 6 80q0 92 -46 130t-130 38q-109 0 -198 -78.5t-113 -212.5l-100 -563h-201z" />
    <glyph glyph-name="o" unicode="o" horiz-adv-x="1216" 
d="M526 -29q-137 0 -240.5 60t-155.5 160t-52 223q0 84 26.5 172t79.5 169.5t125 145.5t171 102.5t210 38.5q137 0 240 -60.5t155 -161t52 -224.5q0 -84 -26 -172t-78.5 -169t-124.5 -144.5t-171.5 -101.5t-210.5 -38zM543 156q84 0 159.5 38t126 98.5t80 137t29.5 154.5
q0 121 -72 197.5t-192 76.5q-89 0 -165 -39.5t-125.5 -102t-77 -138t-27.5 -150.5q0 -123 71 -197.5t193 -74.5z" />
    <glyph glyph-name="p" unicode="p" horiz-adv-x="1241" 
d="M754 1040q125 0 219.5 -60.5t142 -159.5t47.5 -220q0 -71 -21 -152.5t-68 -167t-113 -154t-165.5 -112t-215.5 -43.5q-111 0 -191 46.5t-119 117.5l-100 -555h-201l254 1434h166l2 -137q151 163 363 163zM705 860q-87 0 -160.5 -40.5t-120 -105t-72.5 -141t-26 -151.5
q0 -123 68 -196.5t186 -73.5q111 0 200 65.5t135 164t46 204.5q0 123 -69.5 198.5t-186.5 75.5z" />
    <glyph glyph-name="q" unicode="q" horiz-adv-x="1243" 
d="M662 1040q118 0 198 -48.5t119 -119.5l53 142h166l-254 -1434h-201l99 547q-145 -156 -353 -156q-128 0 -222.5 59t-141.5 155.5t-47 217.5q0 82 24 169.5t73.5 171t117.5 149.5t164 106.5t205 40.5zM662 860q-86 0 -159.5 -40.5t-121 -104.5t-74 -140.5t-26.5 -150.5
q0 -124 69 -198t187 -74q87 0 160.5 39.5t120 102.5t72 139t25.5 153q0 124 -68 199t-185 75z" />
    <glyph glyph-name="r" unicode="r" horiz-adv-x="790" 
d="M43 0l180 1014h166l8 -123q48 65 120.5 108t162.5 43q59 0 106 -15.5t72 -37.5l-102 -174q-42 37 -127 37q-100 0 -181 -79t-104 -212l-100 -561h-201z" />
    <glyph glyph-name="s" unicode="s" horiz-adv-x="993" 
d="M430 -29q-166 0 -267 81t-116 229l184 51q6 -39 17.5 -69t34 -60t64 -46t99.5 -16q98 0 162 45.5t64 122.5q0 40 -39 69.5t-141 49.5q-74 13 -131 32.5t-105 49.5t-74 74.5t-26 101.5q0 107 60 189t157 123.5t213 41.5q154 0 244.5 -79.5t99.5 -217.5l-191 -43
q-2 74 -43 122t-131 48q-96 0 -155.5 -41t-59.5 -110q0 -49 47.5 -73t149.5 -44q156 -28 239.5 -90t83.5 -176q0 -110 -61 -194.5t-160.5 -127.5t-218.5 -43z" />
    <glyph glyph-name="t" unicode="t" horiz-adv-x="765" 
d="M406 -29q-109 0 -171.5 61.5t-62.5 164.5q0 29 6 63l103 574h-183l33 180h180l47 264h201l-47 -264h276l-32 -180h-275l-100 -560q-2 -12 -2 -36q0 -80 86 -80q56 0 108 41l72 -148q-31 -31 -93 -55.5t-146 -24.5z" />
    <glyph glyph-name="u" unicode="u" horiz-adv-x="1140" 
d="M1098 1014l-180 -1014h-166l-4 123q-142 -152 -345 -152q-143 0 -223 73t-80 220q0 40 11 119l112 631h201l-109 -606q-6 -47 -6 -82q0 -168 176 -168q109 0 198.5 78.5t113.5 214.5l100 563h201z" />
    <glyph glyph-name="v" unicode="v" horiz-adv-x="1050" 
d="M899 1014h209l-565 -1014h-213l-207 1014h203l147 -787z" />
    <glyph glyph-name="w" unicode="w" horiz-adv-x="1548" 
d="M1403 1014h203l-494 -1014h-201l-90 774l-364 -774h-201l-133 1014h201l77 -772l361 772h196l91 -772z" />
    <glyph glyph-name="x" unicode="x" horiz-adv-x="1028" 
d="M1081 1014l-452 -510l272 -504h-219l-193 360l-321 -360h-225l456 508l-272 506h219l191 -363l321 363h223z" />
    <glyph glyph-name="y" unicode="y" horiz-adv-x="1163" 
d="M920 1014h200l-176 -998q-17 -98 -58.5 -180t-106 -146t-158.5 -100t-209 -36q-180 0 -277 89t-110 236l190 35q9 -186 211 -186q130 0 211 76t106 214l23 123q-142 -139 -336 -139q-142 0 -222.5 73t-80.5 218q0 57 12 121l107 600h200l-102 -576q-8 -41 -8 -82
q0 -92 47 -130t131 -38q107 0 196.5 77.5t114.5 209.5z" />
    <glyph glyph-name="z" unicode="z" horiz-adv-x="960" 
d="M-6 0l29 158l659 684h-522l30 172h768l-26 -158l-660 -686h545l-33 -170h-790z" />
    <glyph glyph-name="uni00A0" unicode="&#xa0;" horiz-adv-x="573" 
 />
    <glyph glyph-name="cent" unicode="&#xa2;" horiz-adv-x="1140" 
d="M573 362q96 0 175.5 52.5t125.5 142.5l173 -68q-63 -123 -169 -204t-241 -101l-29 -164h-202l28 173q-151 35 -235 152.5t-84 277.5q0 98 34 197.5t96 187t160 151t216 82.5l30 174h203l-31 -176q126 -25 203.5 -108.5t97.5 -198.5l-190 -58q-15 90 -75 140.5t-154 50.5
q-88 0 -164 -39.5t-124.5 -102.5t-76 -138.5t-27.5 -149.5q0 -123 70.5 -198t189.5 -75z" />
    <glyph glyph-name="sterling" unicode="&#xa3;" horiz-adv-x="1075" 
d="M416 621l-78 -437h651l-35 -184h-1001l33 184h147l78 437h-150l33 180h150l39 217q37 217 170 330.5t319 113.5q178 0 270.5 -90t92.5 -233l-191 -33q0 71 -45.5 119.5t-142.5 48.5q-101 0 -175 -67t-94 -187l-38 -219h471l-33 -180h-471z" />
    <glyph glyph-name="yen" unicode="&#xa5;" horiz-adv-x="1275" 
d="M1395 1434l-523 -701h234l-31 -168h-325l-25 -147h326l-31 -168h-326l-43 -250h-205l43 250h-329l28 168h332l25 147h-330l29 168h239l-274 701h215l252 -660l487 660h232z" />
    <glyph glyph-name="copyright" unicode="&#xa9;" horiz-adv-x="1720" 
d="M897 -27q-152 0 -290 59t-237.5 159t-158.5 238t-59 290t59 290t158.5 237.5t237.5 158.5t290 59t290 -59t237.5 -158.5t158.5 -237.5t59 -290t-59 -290t-158.5 -238t-237.5 -159t-290 -59zM897 111q165 0 305 81.5t221.5 221.5t81.5 305t-81.5 305t-221.5 221.5
t-305 81.5t-305 -81.5t-221.5 -221.5t-81.5 -305t81.5 -305t221.5 -221.5t305 -81.5zM895 315q-170 0 -278.5 111.5t-108.5 292.5q0 177 108 290t277 113q124 0 215.5 -61.5t130.5 -179.5l-135 -43q-21 71 -74 112t-137 41q-107 0 -176.5 -77.5t-69.5 -194.5
q0 -121 71.5 -197t178.5 -76q82 0 133 39t72 101l133 -43q-89 -228 -340 -228z" />
    <glyph glyph-name="paragraph" unicode="&#xb6;" horiz-adv-x="1265" 
d="M1370 1434l-29 -160h-184l-301 -1694h-178l299 1694h-195l-299 -1694h-178l182 1034q-151 0 -247.5 97t-96.5 243q0 52 19 114.5t59.5 127t96.5 117.5t138 87t175 34h739z" />
    <glyph glyph-name="multiply" unicode="&#xd7;" 
d="M1212 1061l-430 -348l267 -351l-146 -118l-266 350l-440 -358l-109 137l442 360l-264 348l146 119l264 -348l428 348z" />
    <glyph glyph-name="divide" unicode="&#xf7;" horiz-adv-x="1230" 
d="M694 1018q-56 0 -84.5 35.5t-19.5 89.5q10 61 62 105t112 44q54 0 83.5 -36t20.5 -89q-10 -60 -62.5 -104.5t-111.5 -44.5zM104 629l31 176h1065l-31 -176h-1065zM547 172q-56 0 -85 36t-20 89q10 61 62 105t112 44q54 0 84 -35.5t21 -88.5q-10 -60 -62.5 -105
t-111.5 -45z" />
    <glyph glyph-name="endash" unicode="&#x2013;" 
d="M106 522l31 185h1024l-31 -185h-1024z" />
    <glyph glyph-name="emdash" unicode="&#x2014;" horiz-adv-x="2252" 
d="M106 522l31 185h2048l-31 -185h-2048z" />
    <glyph glyph-name="quoteleft" unicode="&#x2018;" horiz-adv-x="401" 
d="M489 1468q-94 -91 -127 -194q39 -7 65 -40t26 -73q0 -62 -42.5 -104.5t-103.5 -42.5q-55 0 -91 35t-36 92q0 91 65.5 205.5t166.5 197.5z" />
    <glyph glyph-name="quoteright" unicode="&#x2019;" horiz-adv-x="403" 
d="M186 1090q94 91 127 194q-39 7 -64.5 40t-25.5 73q0 62 42.5 104.5t103.5 42.5q55 0 91 -35t36 -92q0 -91 -65.5 -205.5t-166.5 -197.5z" />
    <glyph glyph-name="quotedblleft" unicode="&#x201c;" horiz-adv-x="780" 
d="M489 1470q-94 -91 -127 -194q39 -7 65 -40t26 -73q0 -62 -42.5 -104.5t-103.5 -42.5q-55 0 -91 35t-36 92q0 91 65.5 205.5t166.5 197.5zM868 1470q-94 -91 -127 -194q39 -7 64.5 -40t25.5 -73q0 -63 -42.5 -105t-102.5 -42q-55 0 -91 35t-36 92q0 91 65.5 205.5
t166.5 197.5z" />
    <glyph glyph-name="quotedblright" unicode="&#x201d;" horiz-adv-x="780" 
d="M186 1087q43 41 77.5 94.5t49.5 100.5q-39 7 -64.5 40t-25.5 73q0 62 42.5 104.5t103.5 42.5q55 0 91 -35t36 -92q0 -91 -65.5 -205.5t-166.5 -197.5zM565 1087q43 41 77.5 94.5t49.5 100.5q-39 7 -64.5 40t-25.5 73q0 62 42.5 104.5t103.5 42.5q55 0 90.5 -34.5
t35.5 -92.5q0 -91 -65 -205.5t-166 -197.5z" />
    <glyph glyph-name="bullet" unicode="&#x2022;" horiz-adv-x="516" 
d="M258 420q-77 0 -126.5 49t-49.5 123q0 88 65.5 152.5t153.5 64.5q73 0 122.5 -50t49.5 -122q0 -89 -65 -153t-150 -64z" />
    <glyph glyph-name="Euro" unicode="&#x20ac;" horiz-adv-x="1507" 
d="M1067 1274q-162 0 -293.5 -83t-218.5 -220h496l-76 -164h-498q-33 -99 -39 -180h459l-78 -164h-373q31 -145 136 -225t266 -80q217 0 373 149l135 -129q-217 -207 -518 -207q-249 0 -408 131.5t-188 360.5h-207l76 164h127q5 75 30 180h-174l76 164h160
q104 218 298 354.5t447 136.5q303 0 457 -209l-162 -114q-92 135 -303 135z" />
    <glyph glyph-name="minus" unicode="&#x2212;" 
d="M125 625l31 184h1024l-31 -184h-1024z" />
    </font>
</defs>
</svg>
