<?xml version="1.0" standalone="no"?>
<!DOCTYPE svg PUBLIC "-//W3C//DTD SVG 1.1//EN" "http://www.w3.org/Graphics/SVG/1.1/DTD/svg11.dtd" >
<svg xmlns="http://www.w3.org/2000/svg" xmlns:xlink="http://www.w3.org/1999/xlink" version="1.1">
<metadata>
Created by FontForge 20170731 at Fri May 28 20:07:31 2021
 By Aleksey,,,
Copyright 2017 OMSE LTD. All rights reserved.
</metadata>
<defs>
<font id="ModernEraTRIAL-Italic" horiz-adv-x="1230" >
  <font-face 
    font-family="Modern Era TRIAL Italic"
    font-weight="400"
    font-style="italic"
    font-stretch="normal"
    units-per-em="2048"
    panose-1="2 0 0 0 0 0 0 0 0 0"
    ascent="1608"
    descent="-440"
    x-height="1004"
    cap-height="1434"
    bbox="-270 -459 2183 1591"
    underline-thickness="139"
    underline-position="-310"
    slope="-10"
    unicode-range="U+000D-2212"
  />
<missing-glyph horiz-adv-x="1720" 
d="M897 -29q-151 0 -289 59t-238 159t-159 238t-59 290t59 290t159 237.5t238 158.5t289 59q152 0 290 -59t237.5 -158.5t158.5 -237.5t59 -290t-59 -290t-158.5 -238t-237.5 -159t-290 -59zM897 104q166 0 307.5 82t224 223.5t82.5 307.5t-82.5 307t-224 223t-307.5 82
t-307 -82t-223 -223t-82 -307t82 -307.5t223 -223.5t307 -82zM668 717q-52 0 -89.5 37t-37.5 88q0 52 37.5 89.5t89.5 37.5t88.5 -37t36.5 -90q0 -51 -36.5 -88t-88.5 -37zM1126 717q-52 0 -88.5 37t-36.5 88q0 53 36.5 90t88.5 37t89.5 -37.5t37.5 -89.5q0 -51 -37.5 -88
t-89.5 -37z" />
    <glyph glyph-name=".notdef" horiz-adv-x="1720" 
d="M897 -29q-151 0 -289 59t-238 159t-159 238t-59 290t59 290t159 237.5t238 158.5t289 59q152 0 290 -59t237.5 -158.5t158.5 -237.5t59 -290t-59 -290t-158.5 -238t-237.5 -159t-290 -59zM897 104q166 0 307.5 82t224 223.5t82.5 307.5t-82.5 307t-224 223t-307.5 82
t-307 -82t-223 -223t-82 -307t82 -307.5t223 -223.5t307 -82zM668 717q-52 0 -89.5 37t-37.5 88q0 52 37.5 89.5t89.5 37.5t88.5 -37t36.5 -90q0 -51 -36.5 -88t-88.5 -37zM1126 717q-52 0 -88.5 37t-36.5 88q0 53 36.5 90t88.5 37t89.5 -37.5t37.5 -89.5q0 -51 -37.5 -88
t-89.5 -37z" />
    <glyph glyph-name=".null" horiz-adv-x="0" 
 />
    <glyph glyph-name="nonmarkingreturn" horiz-adv-x="682" 
 />
    <glyph glyph-name="CR" unicode="&#xd;" horiz-adv-x="573" 
 />
    <glyph glyph-name="space" unicode=" " horiz-adv-x="573" 
 />
    <glyph glyph-name="exclam" unicode="!" horiz-adv-x="573" 
d="M182 358l193 1076h160l-193 -1076h-160zM205 -14q-47 0 -78 32t-31 78q0 50 39.5 89.5t91.5 39.5q49 0 80 -31.5t31 -78.5q0 -52 -40.5 -90.5t-92.5 -38.5z" />
    <glyph glyph-name="quotedbl" unicode="&#x22;" horiz-adv-x="577" 
d="M170 1081l74 418h157l-75 -418h-156zM455 1081l73 418h158l-76 -418h-155z" />
    <glyph glyph-name="numbersign" unicode="#" horiz-adv-x="1556" 
d="M1561 913h-320l-125 -393h307l-22 -135h-326l-121 -385h-147l121 385h-434l-121 -385h-144l121 385h-303l25 135h319l125 393h-311l24 136h328l121 385h143l-121 -385h439l121 385h143l-121 -385h303zM971 520l125 393h-437l-124 -393h436z" />
    <glyph glyph-name="dollar" unicode="$" 
d="M758 795q184 -42 274 -122.5t90 -215.5q0 -197 -144 -328t-364 -152l-24 -143h-154l25 143q-175 19 -273.5 121t-113.5 285l153 43q18 -276 258 -305l97 551q-169 40 -259 116.5t-90 210.5q0 189 140 315.5t348 147.5l22 129h154l-23 -133q156 -21 240 -121t98 -264
l-155 -41q-10 245 -209 283zM395 1022q-3 -73 49.5 -116.5t165.5 -76.5l84 486q-131 -21 -214.5 -100t-84.5 -193zM641 123q141 22 230.5 107t89.5 204q0 68 -50.5 118.5t-179.5 86.5z" />
    <glyph glyph-name="ampersand" unicode="&#x26;" horiz-adv-x="1208" 
d="M1217 840l-25 -135h-150l-53 -299q-35 -195 -177.5 -316t-332.5 -121q-186 0 -297.5 100t-111.5 265q0 57 17.5 119.5t53 125.5t96 119t138.5 90q-103 86 -103 228q0 52 16.5 109.5t54.5 117.5t92 108t138.5 78.5t184.5 30.5q160 0 254.5 -82t97.5 -215l-152 -28
q-1 89 -59 137.5t-154 48.5q-77 0 -140 -28t-99.5 -73t-56 -95t-19.5 -99q0 -87 61 -135.5t162 -48.5h260l27 149h154l-27 -151h150zM838 414l51 293h-271q-162 -1 -274.5 -107t-112.5 -254q0 -109 74 -171t184 -62q125 0 225 82.5t124 218.5z" />
    <glyph glyph-name="quotesingle" unicode="'" horiz-adv-x="290" 
d="M170 1081l74 418h157l-75 -418h-156z" />
    <glyph glyph-name="parenleft" unicode="(" horiz-adv-x="552" 
d="M193 -340q-57 148 -80 240q-45 183 -45 387q0 337 122 679t334 603l119 -92q-199 -245 -312.5 -562t-113.5 -628q0 -98 10.5 -186.5t30 -162.5t33 -113t34.5 -94q2 -4 2.5 -6.5t2 -5.5t2.5 -6z" />
    <glyph glyph-name="parenright" unicode=")" horiz-adv-x="552" 
d="M399 1569q57 -148 80 -240q45 -184 45 -387q0 -337 -122 -679t-334 -603l-119 92q199 245 312.5 562t113.5 628q0 98 -10.5 186.5t-30 162.5t-33 113t-34.5 94q-2 4 -2.5 6.5t-2 5.5t-2.5 6z" />
    <glyph glyph-name="asterisk" unicode="*" horiz-adv-x="868" 
d="M913 1188l-266 -82l119 -213l-113 -70l-121 219l-202 -223l-90 78l198 217l-237 82l57 121l246 -84l47 266h127l-47 -264l256 74z" />
    <glyph glyph-name="plus" unicode="+" horiz-adv-x="1228" 
d="M487 205l78 440h-436l25 143h438l76 441h149l-76 -441h437l-25 -143h-438l-78 -440h-150z" />
    <glyph glyph-name="comma" unicode="," horiz-adv-x="374" 
d="M-43 -182q41 38 74 87.5t45 92.5q-33 7 -55.5 35.5t-22.5 62.5q0 56 37.5 92.5t89.5 36.5q48 0 79.5 -30t31.5 -82q0 -81 -60 -186.5t-153 -176.5z" />
    <glyph glyph-name="hyphen" unicode="-" horiz-adv-x="708" 
d="M111 543l24 143h504l-25 -143h-503z" />
    <glyph glyph-name="period" unicode="." horiz-adv-x="374" 
d="M106 -14q-48 0 -78 30.5t-30 75.5q0 55 38.5 94t92.5 39q47 0 78 -30.5t31 -75.5q0 -54 -39.5 -93.5t-92.5 -39.5z" />
    <glyph glyph-name="slash" unicode="/" horiz-adv-x="849" 
d="M-20 0l796 1434h170l-796 -1434h-170z" />
    <glyph glyph-name="zero" unicode="0" horiz-adv-x="1232" 
d="M543 -29q-109 0 -192 39.5t-134 112t-76.5 167.5t-25.5 212q0 76 10 160t33 178t57.5 182t88 168.5t119 140.5t155.5 95.5t194 35.5q108 0 190.5 -40t133 -111.5t75.5 -166t25 -208.5q0 -74 -10 -157.5t-33 -178t-57 -183t-87 -170.5t-118.5 -142.5t-155 -97
t-192.5 -36.5zM551 117q103 0 188 60t138.5 151.5t90.5 204.5t52.5 213t15.5 184q0 175 -67.5 281t-206.5 106q-74 0 -140 -31.5t-115 -84t-89.5 -122t-67.5 -144.5t-45.5 -153.5t-26.5 -147t-8 -126.5q0 -116 27 -201t91.5 -137.5t162.5 -52.5z" />
    <glyph glyph-name="one" unicode="1" horiz-adv-x="684" 
d="M246 0l223 1260q-63 -36 -151 -66t-154 -39l31 160q144 24 305 119h159l-253 -1434h-160z" />
    <glyph glyph-name="two" unicode="2" horiz-adv-x="1138" 
d="M31 0l26 147l549 422q203 156 288 264t85 244q0 105 -71.5 172.5t-192.5 67.5q-137 0 -248.5 -91t-138.5 -241l-142 43q42 196 198 315t349 119q182 0 294 -101.5t112 -262.5q0 -90 -24 -166.5t-80 -152t-132 -146t-194 -162.5l-422 -326h694l-27 -145h-923z" />
    <glyph glyph-name="three" unicode="3" horiz-adv-x="1177" 
d="M506 -29q-195 0 -314.5 109t-119.5 270q0 5 1 17t1 18l149 43q-2 -10 -2 -31q0 -123 79.5 -201.5t213.5 -78.5q118 0 212.5 57t144 145.5t49.5 186.5q0 119 -76.5 191.5t-214.5 72.5q-53 0 -121 -18l-74 100l494 436h-656l25 146h858l-27 -146l-438 -387
q178 -3 285.5 -107t107.5 -270q0 -60 -18 -128.5t-61.5 -145t-107 -138t-165.5 -101.5t-225 -40z" />
    <glyph glyph-name="four" unicode="4" horiz-adv-x="1153" 
d="M639 0l70 387h-668l22 127l811 920h179l-162 -908h205l-25 -139h-203l-69 -387h-160zM248 524l483 2l121 680z" />
    <glyph glyph-name="five" unicode="5" horiz-adv-x="1185" 
d="M516 -29q-198 0 -322 107t-124 254v28l153 46q-2 -8 -2 -25q1 -119 86 -191.5t217 -72.5q168 0 288 117t120 284q0 120 -78 194t-213 74q-90 0 -173.5 -36t-129.5 -82l-135 51l205 715h757l-26 -146h-625l-127 -440q43 31 120.5 55.5t162.5 24.5q192 0 306 -110t114 -286
q0 -114 -46.5 -218t-124 -179t-183 -119.5t-220.5 -44.5z" />
    <glyph glyph-name="six" unicode="6" horiz-adv-x="1196" 
d="M537 -29q-207 0 -320 120t-113 343q0 78 9.5 165t32.5 188t57.5 195.5t89 182.5t121.5 153.5t160.5 104.5t201.5 39q177 0 276 -95t117 -251l-151 -45q-10 108 -69.5 177t-182.5 69q-81 0 -146.5 -27.5t-112 -74.5t-84.5 -119.5t-62.5 -150.5t-47.5 -181q62 66 157.5 114
t207.5 48q188 0 305 -105t117 -280q0 -82 -23.5 -163.5t-72 -154.5t-114.5 -129.5t-157.5 -89.5t-195.5 -33zM541 117q121 0 213.5 60.5t138 151t45.5 191.5q0 122 -75.5 192t-207.5 70q-86 0 -161 -34t-125 -90t-78.5 -127t-28.5 -146q0 -117 75 -192.5t204 -75.5z" />
    <glyph glyph-name="seven" unicode="7" horiz-adv-x="1046" 
d="M205 0q113 298 331.5 675t403.5 613h-739l26 146h924l-27 -146q-192 -233 -416 -610.5t-339 -677.5h-164z" />
    <glyph glyph-name="eight" unicode="8" horiz-adv-x="1161" 
d="M897 774q77 -48 118.5 -123t41.5 -170q0 -62 -18.5 -128.5t-61.5 -136t-105.5 -124t-159.5 -89t-214 -34.5q-194 0 -310 100.5t-116 266.5q0 56 16.5 116.5t49.5 123t91 118t133 90.5q-108 85 -108 232q0 51 16 108t54 117.5t92.5 108.5t139.5 79t187 31q164 0 266.5 -90
t102.5 -235q0 -106 -56 -204.5t-159 -156.5zM731 1321q-77 0 -140 -28t-100.5 -73t-57 -95t-19.5 -99q0 -88 61.5 -136t161.5 -48q78 0 141.5 27.5t101 71t57 92.5t19.5 97q0 89 -62.5 140t-162.5 51zM508 113q167 0 278 107t111 253q0 110 -76 172t-196 62
q-92 0 -169.5 -34t-125 -87t-73.5 -115t-26 -121q0 -110 78.5 -173.5t198.5 -63.5z" />
    <glyph glyph-name="nine" unicode="9" horiz-adv-x="1196" 
d="M737 1462q206 0 319 -120t113 -343q0 -59 -5.5 -125t-19 -142.5t-33.5 -151.5t-50.5 -150.5t-68 -142.5t-88.5 -125.5t-110.5 -100.5t-135 -66t-160.5 -24q-177 0 -276.5 95.5t-117.5 250.5l152 45q10 -108 69.5 -176.5t182.5 -68.5q81 0 146.5 27.5t112 74.5t84.5 119.5
t62.5 150.5t47.5 181q-62 -66 -157.5 -114t-207.5 -48q-188 0 -305 105t-117 280q0 103 38.5 203.5t108 182.5t178.5 132.5t238 50.5zM733 1317q-120 0 -213 -60.5t-138.5 -151.5t-45.5 -192q0 -122 75 -192t207 -70q115 0 206.5 58.5t139.5 148.5t48 191q0 117 -75 192.5
t-204 75.5z" />
    <glyph glyph-name="colon" unicode=":" horiz-adv-x="376" 
d="M215 608q-46 0 -76 31t-30 78q0 53 38.5 92t90.5 39q49 0 79.5 -31t30.5 -76q0 -55 -39.5 -94t-93.5 -39zM106 -14q-47 0 -77.5 31t-30.5 77q0 54 39 92.5t92 38.5q49 0 80 -31t31 -77q0 -54 -40 -92.5t-94 -38.5z" />
    <glyph glyph-name="semicolon" unicode=";" horiz-adv-x="378" 
d="M219 608q-46 0 -76 31t-30 78q0 53 38 92t91 39q47 0 78.5 -31t31.5 -76q0 -55 -39.5 -94t-93.5 -39zM-43 -182q41 38 74 87.5t45 92.5q-33 7 -55.5 35.5t-22.5 62.5q0 56 37.5 92.5t89.5 36.5q48 0 79.5 -30t31.5 -82q0 -81 -60 -186.5t-153 -176.5z" />
    <glyph glyph-name="equal" unicode="=" horiz-adv-x="1228" 
d="M168 870l25 144h1024l-25 -144h-1024zM90 422l23 143h1024l-23 -143h-1024z" />
    <glyph glyph-name="question" unicode="?" horiz-adv-x="1040" 
d="M1071 1079q0 -44 -12.5 -97.5t-45 -118.5t-81 -120.5t-129 -102t-180.5 -65.5l-39 -221h-160l59 340h17q90 0 164 28t119 70t75.5 94.5t42.5 98.5t12 86q0 111 -65.5 178.5t-179.5 67.5q-143 0 -241.5 -82.5t-123.5 -218.5l-137 45q41 181 180.5 291t327.5 110
q178 0 287.5 -106.5t109.5 -276.5zM473 225q49 0 80 -31t31 -77q0 -53 -40 -92t-93 -39q-46 0 -77.5 31t-31.5 77q0 53 39.5 92t91.5 39z" />
    <glyph glyph-name="at" unicode="@" horiz-adv-x="1732" 
d="M989 1247q288 0 459.5 -167t171.5 -439q0 -77 -13 -149t-43.5 -139t-75 -116.5t-111.5 -79.5t-150 -30q-81 0 -132.5 30.5t-66.5 84.5q-119 -115 -272 -115q-121 0 -186.5 77t-65.5 191q0 71 29 150.5t81.5 151.5t137.5 119.5t184 47.5q141 0 203 -96l32 76h111
l-131 -504q-2 -6 -2 -16q0 -68 82 -68q57 0 102 24.5t73.5 63t47 90t26 101t7.5 100.5q0 218 -134.5 350.5t-365.5 132.5q-109 0 -207 -28t-171 -75t-135 -109.5t-103 -130.5t-70 -139t-42 -134t-13 -117q0 -217 143 -361.5t363 -144.5q175 0 333 96l62 -114
q-76 -44 -182.5 -75.5t-219.5 -31.5q-138 0 -256 47.5t-201 129.5t-130 197.5t-47 248.5q0 114 39 235t116 234t181 203t245.5 144t296.5 54zM793 254q64 0 119 31.5t90 79.5t55 103.5t20 106.5q0 74 -42 118t-115 44q-81 0 -147.5 -51.5t-101 -124.5t-34.5 -145
q0 -74 41.5 -118t114.5 -44z" />
    <glyph glyph-name="A" unicode="A" horiz-adv-x="1341" 
d="M1038 0l-77 401h-607l-219 -401h-170l789 1434h161l283 -1434h-160zM434 545h500l-131 674z" />
    <glyph glyph-name="B" unicode="B" horiz-adv-x="1239" 
d="M78 0l254 1434h506q170 0 259 -85t89 -221q0 -119 -60 -223.5t-174 -165.5q69 -27 121.5 -91.5t52.5 -168.5q0 -50 -14 -108t-51.5 -125t-93 -120.5t-148.5 -89.5t-209 -36h-532zM377 799h346q78 0 139 30t95.5 77.5t51.5 100t17 103.5q0 87 -55 134.5t-160 47.5h-346z
M262 141h377q78 0 142 29.5t103 76.5t60 103.5t21 114.5q0 90 -63.5 143.5t-199.5 53.5h-348z" />
    <glyph glyph-name="C" unicode="C" horiz-adv-x="1568" 
d="M762 -29q-284 0 -449.5 163.5t-165.5 432.5q0 128 38 256.5t113 243t176.5 203t238 140.5t288.5 52q232 0 377 -121t181 -327l-158 -43q-28 169 -133.5 257.5t-272.5 88.5q-154 0 -287 -67.5t-219.5 -175t-135 -237.5t-48.5 -259q0 -210 124 -335.5t337 -125.5
q182 0 318 87.5t216 237.5l142 -57q-103 -195 -279 -304.5t-401 -109.5z" />
    <glyph glyph-name="D" unicode="D" horiz-adv-x="1452" 
d="M78 0l254 1434h440q111 0 203 -21t158 -59t114.5 -88t77 -113t42 -129t13.5 -139q0 -77 -13 -157.5t-43.5 -168t-75 -167.5t-112.5 -152t-151 -125t-196 -84t-242 -31h-469zM262 143h297q107 0 199 26.5t158.5 71t120 106t88 128.5t57 140.5t32 140t9.5 129.5
q0 69 -14 126.5t-48.5 110t-88 89t-137.5 58t-192 21.5h-278z" />
    <glyph glyph-name="E" unicode="E" horiz-adv-x="1146" 
d="M78 0l254 1434h868l-26 -144h-709l-88 -495h624l-24 -142h-625l-90 -510h709l-25 -143h-868z" />
    <glyph glyph-name="F" unicode="F" horiz-adv-x="1146" 
d="M78 0l254 1434h866l-24 -144h-709l-94 -530h626l-24 -142h-627l-108 -618h-160z" />
    <glyph glyph-name="G" unicode="G" horiz-adv-x="1632" 
d="M764 -29q-280 0 -448.5 165.5t-168.5 434.5q0 100 26.5 204.5t76 204t125.5 187t169 153.5t214 104t254 38q210 0 349.5 -106t178.5 -289l-151 -45q-32 139 -128.5 217t-256.5 78q-125 0 -237.5 -44t-195 -118.5t-143 -169t-91 -198t-30.5 -203.5q0 -210 126 -338.5
t343 -128.5q119 0 222 42.5t174 115t118 162t66 188.5l-357 -4l23 139h512l-133 -760h-119l18 213q-27 -36 -72 -73.5t-111.5 -77.5t-159.5 -65.5t-193 -25.5z" />
    <glyph glyph-name="H" unicode="H" horiz-adv-x="1390" 
d="M78 0l254 1434h160l-113 -627h739l113 627h160l-254 -1434h-160l117 662h-740l-116 -662h-160z" />
    <glyph glyph-name="I" unicode="I" horiz-adv-x="491" 
d="M78 0l254 1434h160l-254 -1434h-160z" />
    <glyph glyph-name="J" unicode="J" horiz-adv-x="1036" 
d="M383 -29q-159 0 -251.5 84.5t-92.5 225.5q0 23 8 77l6 45l154 -26l-4 -25q-4 -18 -4 -55q0 -85 50.5 -132.5t145.5 -47.5q118 0 196 73t103 205l183 1039h159l-184 -1041q-36 -207 -159 -314.5t-310 -107.5z" />
    <glyph glyph-name="K" unicode="K" horiz-adv-x="1253" 
d="M1354 1434l-684 -607l442 -827h-184l-383 717l-217 -191l-92 -526h-158l254 1434h157l-118 -674l770 674h213z" />
    <glyph glyph-name="L" unicode="L" horiz-adv-x="1077" 
d="M78 0l254 1434h160l-230 -1289h686l-26 -145h-844z" />
    <glyph glyph-name="M" unicode="M" horiz-adv-x="1763" 
d="M1753 1434l-254 -1434h-156l205 1153l-692 -1153h-127l-283 1141l-204 -1141h-156l254 1434h186l301 -1215l727 1215h199z" />
    <glyph glyph-name="N" unicode="N" horiz-adv-x="1486" 
d="M86 0l254 1434h170l594 -1192l213 1192h160l-254 -1434h-170l-596 1190l-211 -1190h-160z" />
    <glyph glyph-name="O" unicode="O" horiz-adv-x="1695" 
d="M766 -27q-277 0 -446.5 166.5t-169.5 435.5q0 99 26 203t74 203t123.5 186.5t168 153.5t213 104.5t253.5 38.5q275 0 444.5 -169t169.5 -437q0 -121 -36 -245t-109 -239t-173.5 -204.5t-240 -143t-297.5 -53.5zM776 119q154 0 286.5 65.5t218 170.5t133.5 234t48 259
q0 209 -126.5 340t-336.5 131q-153 0 -286.5 -67t-220 -173t-136 -235.5t-49.5 -257.5q0 -212 126.5 -339.5t342.5 -127.5z" />
    <glyph glyph-name="P" unicode="P" horiz-adv-x="1212" 
d="M78 0l254 1434h450q195 0 306.5 -91.5t111.5 -257.5q0 -70 -19 -140.5t-62.5 -139t-106.5 -121t-159.5 -85t-213.5 -32.5h-301l-100 -567h-160zM362 711h285q191 0 292 100t101 260q0 113 -77.5 166t-212.5 53h-285z" />
    <glyph glyph-name="Q" unicode="Q" horiz-adv-x="1769" 
d="M1622 858q0 -162 -65 -327t-185 -293l193 -193l-109 -104l-194 194q-220 -162 -496 -162q-277 0 -446.5 166.5t-169.5 435.5q0 99 26 203t74 203t123.5 186.5t168 153.5t213 104.5t253.5 38.5q275 0 444.5 -169t169.5 -437zM776 119q211 0 381 121l-172 172l109 104
l174 -174q93 103 143.5 237t50.5 269q0 209 -126.5 340t-336.5 131q-153 0 -286.5 -67t-220 -173t-136 -235.5t-49.5 -257.5q0 -212 126.5 -339.5t342.5 -127.5z" />
    <glyph glyph-name="R" unicode="R" horiz-adv-x="1263" 
d="M78 0l254 1434h467q197 0 299 -90.5t102 -241.5q0 -177 -112.5 -310.5t-282.5 -166.5l262 -625h-180l-250 608h-293l-106 -608h-160zM371 750h315q168 0 259 95t91 240q0 105 -72 155t-190 50h-309z" />
    <glyph glyph-name="S" unicode="S" 
d="M543 -27q-213 0 -332.5 103t-136.5 307l153 43q11 -157 90.5 -233t237.5 -76q172 0 289 90.5t117 226.5q0 37 -13 66.5t-45.5 58.5t-94 53t-151.5 43q-100 19 -173.5 45t-132 66t-88.5 98.5t-30 134.5q0 103 44.5 191t120.5 147.5t176.5 93t211.5 33.5
q198 0 304.5 -102.5t121.5 -288.5l-155 -41q-13 289 -281 289q-160 0 -270 -83.5t-111 -215.5q-3 -88 73 -134t245 -83q207 -41 308 -123t101 -225q0 -142 -78.5 -253.5t-210 -171t-290.5 -59.5z" />
    <glyph glyph-name="T" unicode="T" horiz-adv-x="1173" 
d="M418 0l227 1288h-440l26 146h1043l-27 -146h-442l-227 -1288h-160z" />
    <glyph glyph-name="U" unicode="U" horiz-adv-x="1382" 
d="M604 -29q-207 0 -327.5 106t-120.5 310q0 69 14 135l162 912h160l-162 -910q-13 -73 -13 -123q0 -284 299 -284q170 0 288.5 100t156.5 313l160 904h159l-161 -924q-25 -138 -83 -243t-140 -168.5t-180.5 -95.5t-211.5 -32z" />
    <glyph glyph-name="V" unicode="V" horiz-adv-x="1333" 
d="M1272 1434h174l-784 -1434h-168l-275 1434h158l233 -1223z" />
    <glyph glyph-name="W" unicode="W" horiz-adv-x="1894" 
d="M1835 1434h170l-657 -1434h-162l-121 1198l-537 -1198h-159l-150 1434h160l115 -1182l526 1182h170l115 -1180z" />
    <glyph glyph-name="X" unicode="X" horiz-adv-x="1308" 
d="M1419 1434l-614 -719l360 -715h-178l-303 598l-518 -598h-201l629 731l-352 703h178l295 -588l506 588h198z" />
    <glyph glyph-name="Y" unicode="Y" 
d="M446 0l103 582l-330 852h164l266 -697l514 697h178l-632 -852l-103 -582h-160z" />
    <glyph glyph-name="Z" unicode="Z" horiz-adv-x="1263" 
d="M0 0l25 141l1085 1149h-819l24 144h1024l-26 -142l-1086 -1149h871l-27 -143h-1071z" />
    <glyph glyph-name="backslash" unicode="\" horiz-adv-x="811" 
d="M512 0l-289 1434h152l291 -1434h-154z" />
    <glyph glyph-name="underscore" unicode="_" horiz-adv-x="1024" 
d="M-131 -242l25 140h1024l-25 -140h-1024z" />
    <glyph glyph-name="a" unicode="a" horiz-adv-x="1214" 
d="M494 -27q-96 0 -173.5 36t-126 97t-74.5 138.5t-26 163.5q0 51 13.5 113.5t40.5 134t74.5 137.5t108 120t148 86.5t189.5 32.5q116 0 198 -49t127 -129l27 150h156l-177 -1004h-131l6 147q-155 -174 -380 -174zM526 113q78 0 146.5 29.5t117.5 79t84.5 112.5t52.5 130
t17 132q0 134 -74 215.5t-204 81.5q-94 0 -174 -43.5t-132 -113t-81 -154t-29 -168.5q0 -135 74.5 -218t201.5 -83z" />
    <glyph glyph-name="b" unicode="b" horiz-adv-x="1226" 
d="M565 -27q-122 0 -206 50.5t-126 128.5l-49 -152h-129l254 1434h156l-103 -572q159 170 373 170q100 0 178.5 -34.5t127 -94.5t73.5 -135.5t25 -161.5q0 -77 -22.5 -162t-70.5 -169t-114 -151t-161.5 -109t-205.5 -42zM567 113q76 0 144 29.5t117 79t84.5 112.5t53 130
t17.5 132q0 135 -74.5 216t-203.5 81q-96 0 -176.5 -44t-131 -114t-78.5 -153.5t-28 -167.5q0 -137 73.5 -219t202.5 -82z" />
    <glyph glyph-name="c" unicode="c" horiz-adv-x="1138" 
d="M514 -29q-104 0 -187 35.5t-135 96t-79 138.5t-27 167q0 81 24.5 167t75 167.5t120 146t168 104t210.5 39.5q170 0 269 -86.5t122 -222.5l-147 -41q-17 98 -83.5 153.5t-170.5 55.5q-98 0 -181.5 -44t-137 -114t-83.5 -153.5t-30 -165.5q0 -135 76.5 -218t207.5 -83
q107 0 197.5 61t142.5 164l135 -57q-73 -139 -199.5 -224.5t-287.5 -85.5z" />
    <glyph glyph-name="d" unicode="d" horiz-adv-x="1222" 
d="M483 -27q-96 0 -173.5 36t-125.5 97.5t-74 138.5t-26 163q0 51 13.5 113.5t40.5 134t74 137.5t108 120t149 86.5t190 32.5q115 0 198 -49.5t126 -128.5l104 580h156l-254 -1434h-129l6 147q-159 -174 -383 -174zM518 113q77 0 145.5 29.5t117 79t84 112.5t52.5 130
t17 132q0 134 -74.5 215.5t-204.5 81.5q-75 0 -142 -28.5t-116 -76.5t-84.5 -110t-53 -129.5t-17.5 -134.5q0 -136 73.5 -218.5t202.5 -82.5z" />
    <glyph glyph-name="e" unicode="e" horiz-adv-x="1159" 
d="M1057 459h-815q-6 -30 -6 -60q0 -131 77.5 -213t210.5 -82q114 0 205.5 56.5t132.5 138.5l129 -43q-65 -123 -185.5 -204t-289.5 -81q-197 0 -313.5 121t-116.5 307q0 112 42.5 224.5t116.5 203.5t186 148t241 57q180 0 292.5 -109t112.5 -292q0 -58 -8 -105zM932 588
q2 12 2 35q0 122 -72 199t-198 77q-142 0 -249.5 -88t-150.5 -223h668z" />
    <glyph glyph-name="f" unicode="f" horiz-adv-x="706" 
d="M135 0l152 862h-183l25 142h184l35 200q20 116 100 187t189 71q51 0 92 -10t64.5 -25t34.5 -25t16 -18l-103 -100q-28 37 -94 37q-123 0 -147 -137l-31 -180h291l-25 -142h-293l-151 -862h-156z" />
    <glyph glyph-name="g" unicode="g" horiz-adv-x="1216" 
d="M426 -455q-185 0 -282 88.5t-113 235.5l149 31q16 -219 256 -219q166 0 266 85t127 232l31 172q-61 -78 -157.5 -129t-215.5 -51q-100 0 -178.5 34t-126 92.5t-72 132.5t-24.5 159q0 78 22.5 162.5t70 167t112.5 148t159.5 106t202.5 40.5q124 0 204.5 -49t121.5 -127
l53 148h131l-178 -1010q-12 -69 -38.5 -131.5t-72.5 -121.5t-107.5 -102t-149 -68.5t-191.5 -25.5zM518 129q75 0 142 28.5t115 76t83 108.5t52.5 128.5t17.5 133.5q0 131 -72.5 210t-196.5 79q-97 0 -178.5 -44.5t-133 -114.5t-79.5 -153t-28 -165q0 -132 74 -209.5
t204 -77.5z" />
    <glyph glyph-name="h" unicode="h" horiz-adv-x="1120" 
d="M55 0l254 1434h154l-101 -562q144 160 357 160q135 0 215 -70t80 -208q0 -39 -10 -101l-115 -653h-156l111 623q8 44 8 86q0 99 -51 138.5t-142 39.5q-119 0 -221 -88t-129 -232l-100 -567h-154z" />
    <glyph glyph-name="i" unicode="i" horiz-adv-x="468" 
d="M365 1167q-47 0 -77 31t-30 76q0 52 38.5 89.5t90.5 37.5q46 0 75.5 -30.5t29.5 -76.5q0 -51 -37.5 -89t-89.5 -38zM68 0l178 1004h155l-178 -1004h-155z" />
    <glyph glyph-name="j" unicode="j" horiz-adv-x="483" 
d="M383 1167q-47 0 -77 31t-30 76q0 52 39 89.5t91 37.5q45 0 74.5 -30.5t29.5 -76.5q0 -51 -37.5 -89t-89.5 -38zM-84 -459q-21 0 -41 2t-35.5 6t-29 8.5t-24.5 10.5t-19 11.5t-15 11.5t-10.5 9.5l-7.5 7.5l-4 5l100 106q5 -13 27.5 -23.5t56.5 -10.5q59 0 95.5 36.5
t47.5 100.5l209 1182h156l-213 -1199q-20 -117 -102 -190.5t-191 -73.5z" />
    <glyph glyph-name="k" unicode="k" horiz-adv-x="1003" 
d="M1006 1006l-453 -398l326 -608h-172l-271 506l-160 -141l-65 -365h-156l254 1434h156l-152 -856l488 428h205z" />
    <glyph glyph-name="l" unicode="l" horiz-adv-x="442" 
d="M55 0l254 1434h156l-254 -1434h-156z" />
    <glyph glyph-name="m" unicode="m" horiz-adv-x="1736" 
d="M55 0l176 1004h131l-4 -132q142 160 349 160q106 0 174.5 -47.5t91.5 -126.5q154 174 377 174q125 0 202.5 -68t77.5 -202q0 -48 -8 -92l-119 -670h-155l110 618q8 70 8 95q0 95 -46.5 134.5t-131.5 39.5q-115 0 -210 -85.5t-120 -234.5l-100 -567h-156l109 618
q10 55 10 91q0 178 -178 178q-113 0 -210 -86t-122 -234l-100 -567h-156z" />
    <glyph glyph-name="n" unicode="n" horiz-adv-x="1122" 
d="M55 0l176 1004h131l-2 -132q144 160 359 160q136 0 215.5 -70t79.5 -208q0 -57 -10 -103l-115 -651h-156l111 625q8 41 8 84q0 99 -51 138.5t-142 39.5q-118 0 -220.5 -87.5t-129.5 -232.5l-98 -567h-156z" />
    <glyph glyph-name="o" unicode="o" horiz-adv-x="1216" 
d="M522 -29q-106 0 -190.5 35.5t-137 97t-80.5 139.5t-28 167q0 79 25 164.5t76.5 167t122 146.5t169.5 104.5t211 39.5q105 0 190 -35.5t138 -97t81.5 -139.5t28.5 -166q0 -80 -24.5 -165.5t-76 -167t-122 -146.5t-170.5 -104.5t-213 -39.5zM532 113q97 0 182.5 43.5
t141 112t87.5 152.5t32 167q0 134 -80 218.5t-215 84.5q-98 0 -183 -44t-139.5 -114t-85 -153t-30.5 -164q0 -136 78 -219.5t212 -83.5z" />
    <glyph glyph-name="p" unicode="p" horiz-adv-x="1224" 
d="M739 1030q95 0 172 -36t125.5 -97t74.5 -139t26 -164q0 -43 -9 -94.5t-30.5 -112t-52 -118.5t-78 -112.5t-104.5 -95.5t-134.5 -65.5t-165.5 -24.5q-116 0 -198 49.5t-127 129.5l-105 -580h-156l254 1434h131l-6 -150q154 176 383 176zM705 891q-78 0 -146.5 -29.5
t-117 -79t-83.5 -112.5t-52 -130t-17 -132q0 -134 74 -215.5t204 -81.5q94 0 174 43.5t131 113t80 153.5t29 169q0 136 -73.5 218.5t-202.5 82.5z" />
    <glyph glyph-name="q" unicode="q" horiz-adv-x="1224" 
d="M659 1030q122 0 206 -50.5t124 -129.5l51 154h129l-254 -1434h-155l102 569q-161 -168 -375 -168q-99 0 -177.5 34.5t-126.5 94t-73.5 135.5t-25.5 162q0 77 22.5 162t70.5 169t114 151t162 109t206 42zM657 891q-95 0 -175.5 -45.5t-131.5 -117t-79.5 -156t-28.5 -166.5
q0 -134 74 -214.5t204 -80.5q96 0 176.5 44t131 114t78.5 153.5t28 167.5q0 137 -74 219t-203 82z" />
    <glyph glyph-name="r" unicode="r" horiz-adv-x="772" 
d="M55 0l176 1004h131v-130q116 158 293 158q61 0 109.5 -16t73.5 -37l-84 -133q-44 39 -133 39q-107 0 -196.5 -89.5t-115.5 -232.5l-98 -563h-156z" />
    <glyph glyph-name="s" unicode="s" horiz-adv-x="987" 
d="M430 -29q-161 0 -258 79t-117 233l148 36q5 -33 12 -58t23.5 -55t40.5 -50t65 -33.5t94 -13.5q113 0 188.5 53t75.5 145q0 44 -43 76t-159 55q-72 13 -127 31t-102 47t-72 73.5t-25 102.5q0 105 59 183.5t151.5 117.5t203.5 39q157 0 242.5 -79.5t91.5 -219.5l-148 -33
q-3 87 -50 141t-146 54q-111 0 -182.5 -50.5t-71.5 -131.5q0 -54 53 -81.5t164 -51.5q151 -27 234 -86.5t83 -169.5q0 -106 -62.5 -188.5t-159 -123.5t-206.5 -41z" />
    <glyph glyph-name="t" unicode="t" horiz-adv-x="739" 
d="M389 -29q-102 0 -158.5 55t-56.5 150q0 32 6 62l111 624h-187l25 142h186l45 262h156l-45 -262h291l-25 -142h-291l-110 -618q-4 -32 -4 -41q0 -86 94 -86q68 0 117 43l63 -113q-27 -29 -84.5 -52.5t-132.5 -23.5z" />
    <glyph glyph-name="u" unicode="u" horiz-adv-x="1122" 
d="M1067 1004l-178 -1004h-129l2 131q-144 -160 -361 -160q-135 0 -215 70t-80 209q0 34 11 102l114 652h156l-111 -625q-8 -41 -8 -84q0 -99 51.5 -138.5t143.5 -39.5q119 0 221 87.5t127 231.5l100 568h156z" />
    <glyph glyph-name="v" unicode="v" horiz-adv-x="1009" 
d="M901 1004h162l-563 -1004h-166l-209 1004h158l163 -826z" />
    <glyph glyph-name="w" unicode="w" horiz-adv-x="1503" 
d="M1397 1004h159l-487 -1004h-156l-106 819l-395 -819h-154l-133 1004h158l86 -805l385 805h164l104 -807z" />
    <glyph glyph-name="x" unicode="x" horiz-adv-x="980" 
d="M1032 1004l-452 -506l270 -498h-170l-209 389l-346 -389h-176l450 504l-268 500h170l207 -392l346 392h178z" />
    <glyph glyph-name="y" unicode="y" horiz-adv-x="1150" 
d="M940 1004h156l-178 -1010q-15 -88 -50.5 -164.5t-95 -142t-152.5 -104t-210 -38.5q-177 0 -270 87.5t-107 234.5l149 29q8 -105 64.5 -158t171.5 -53q145 0 231.5 83.5t112.5 229.5l26 149q-144 -153 -352 -153q-136 0 -215.5 69t-79.5 209q0 48 9 103l112 629h156
l-109 -603q-6 -46 -6 -86q0 -99 51 -137.5t142 -38.5q115 0 215.5 83t128.5 220z" />
    <glyph glyph-name="z" unicode="z" horiz-adv-x="946" 
d="M0 0l23 131l702 735h-555l25 138h747l-22 -132l-703 -735h576l-25 -137h-768z" />
    <glyph glyph-name="uni00A0" unicode="&#xa0;" horiz-adv-x="573" 
 />
    <glyph glyph-name="cent" unicode="&#xa2;" horiz-adv-x="1136" 
d="M563 326q107 0 197.5 61t142.5 164l135 -57q-66 -125 -175.5 -207t-250.5 -99l-28 -168h-160l31 173q-161 30 -246.5 148t-85.5 280q0 75 21 155t65 157t104 140.5t145.5 108t182.5 57.5l31 178h159l-32 -178q135 -19 214 -101.5t99 -201.5l-147 -41q-17 98 -83.5 153.5
t-170.5 55.5q-98 0 -181.5 -44t-137 -114t-83.5 -153.5t-30 -165.5q0 -135 76.5 -218t207.5 -83z" />
    <glyph glyph-name="sterling" unicode="&#xa3;" horiz-adv-x="1052" 
d="M381 645l-90 -502h674l-27 -143h-985l24 143h154l90 502h-155l26 141h154l45 252q24 137 93 234.5t164.5 143.5t209.5 46q91 0 159.5 -24.5t107.5 -67.5t59 -94t22 -111l-150 -26q-2 75 -51.5 126.5t-156.5 51.5q-108 0 -191.5 -72t-105.5 -205l-45 -254h483l-27 -141
h-481z" />
    <glyph glyph-name="yen" unicode="&#xa5;" 
d="M1341 1434l-538 -725h256l-25 -136h-327l-27 -155h328l-25 -135h-328l-49 -283h-160l50 283h-330l24 135h330l27 155h-330l25 136h258l-281 725h164l266 -697l514 697h178z" />
    <glyph glyph-name="copyright" unicode="&#xa9;" horiz-adv-x="1720" 
d="M899 -27q-152 0 -290 59t-237.5 159t-158.5 238t-59 290t59 290t158.5 237.5t237.5 158.5t290 59t290 -59t238 -158.5t159 -237.5t59 -290q0 -203 -100 -374.5t-271.5 -271.5t-374.5 -100zM899 94q169 0 313 84t228 228t84 313t-84 313t-228 227.5t-313 83.5
q-127 0 -243.5 -49.5t-200.5 -133t-133.5 -199t-49.5 -242.5q0 -169 84 -313t228.5 -228t314.5 -84zM895 313q-171 0 -280 112t-109 294q0 177 109 291t278 114q124 0 215.5 -62.5t130.5 -178.5l-121 -41q-24 78 -81 122t-142 44q-115 0 -188.5 -82.5t-73.5 -206.5
q0 -128 74.5 -208.5t189.5 -80.5q87 0 141 41.5t78 110.5l121 -39q-42 -110 -128 -170t-214 -60z" />
    <glyph glyph-name="paragraph" unicode="&#xb6;" horiz-adv-x="1204" 
d="M1303 1434l-23 -131h-176l-307 -1733h-146l305 1733h-194l-305 -1733h-146l185 1044q-151 0 -247.5 97t-96.5 243q0 52 18.5 114.5t59 127t96 117.5t137.5 87t176 34h664z" />
    <glyph glyph-name="multiply" unicode="&#xd7;" horiz-adv-x="1228" 
d="M1219 1085l-465 -372l276 -369l-110 -92l-279 371l-473 -379l-82 104l475 383l-278 373l112 90l279 -373l463 373z" />
    <glyph glyph-name="divide" unicode="&#xf7;" 
d="M696 1030q-48 0 -73 31t-17 76q9 55 54.5 94t99.5 39q47 0 72.5 -31t17.5 -76q-9 -54 -55 -93.5t-99 -39.5zM119 647l24 139h1045l-25 -139h-1044zM553 199q-48 0 -73 30.5t-17 75.5q9 55 54 94t99 39q47 0 73 -30.5t18 -75.5q-9 -54 -55 -93.5t-99 -39.5z" />
    <glyph glyph-name="endash" unicode="&#x2013;" horiz-adv-x="1228" 
d="M111 543l24 143h1024l-24 -143h-1024z" />
    <glyph glyph-name="emdash" unicode="&#x2014;" horiz-adv-x="2252" 
d="M111 543l24 143h2048l-24 -143h-2048z" />
    <glyph glyph-name="quoteleft" unicode="&#x2018;" horiz-adv-x="374" 
d="M467 1460q-41 -38 -74 -87.5t-45 -92.5q33 -7 55.5 -35.5t22.5 -62.5q0 -56 -37.5 -92.5t-89.5 -36.5q-48 0 -79.5 30t-31.5 82q0 81 60 186.5t153 176.5z" />
    <glyph glyph-name="quoteright" unicode="&#x2019;" horiz-adv-x="376" 
d="M186 1120q41 38 74 87.5t45 92.5q-33 7 -55.5 36t-22.5 63q0 56 37.5 92.5t89.5 36.5q48 0 79.5 -30.5t31.5 -82.5q0 -80 -60 -185t-153 -177z" />
    <glyph glyph-name="quotedblleft" unicode="&#x201c;" horiz-adv-x="716" 
d="M467 1462q-41 -38 -74 -87.5t-45 -92.5q33 -7 55.5 -35.5t22.5 -62.5q0 -56 -37.5 -92.5t-89.5 -36.5q-48 0 -79.5 30t-31.5 82q0 81 60 186.5t153 176.5zM807 1462q-41 -38 -74 -87.5t-45 -92.5q33 -7 55.5 -35.5t22.5 -62.5q0 -56 -37.5 -92.5t-89.5 -36.5
q-48 0 -79.5 30t-31.5 82q0 81 60 186.5t153 176.5z" />
    <glyph glyph-name="quotedblright" unicode="&#x201d;" horiz-adv-x="716" 
d="M188 1118q41 38 74 87.5t45 92.5q-33 7 -55.5 36t-22.5 63q0 56 37.5 92.5t89.5 36.5q48 0 79.5 -30.5t31.5 -82.5q0 -80 -60 -185t-153 -177zM528 1118q41 38 74 87.5t45 92.5q-33 7 -55.5 36t-22.5 63q0 56 37.5 92.5t89.5 36.5q48 0 79.5 -30.5t31.5 -82.5
q0 -80 -60 -185t-153 -177z" />
    <glyph glyph-name="bullet" unicode="&#x2022;" horiz-adv-x="481" 
d="M242 440q-67 0 -110.5 43.5t-43.5 108.5q0 79 59.5 137.5t137.5 58.5q66 0 108.5 -43t42.5 -108q0 -81 -58.5 -139t-135.5 -58z" />
    <glyph glyph-name="Euro" unicode="&#x20ac;" horiz-adv-x="1517" 
d="M1085 1462q298 0 447 -209l-123 -88q-103 152 -332 152q-188 0 -336 -99t-239 -260h530l-61 -133h-531q-37 -106 -43 -215h482l-64 -133h-414q26 -170 142.5 -266t302.5 -96q235 0 405 159l107 -98q-219 -205 -516 -205q-254 0 -413.5 137t-186.5 369h-203l59 133h142
q6 112 39 215h-181l62 133h170q104 222 301.5 363t453.5 141z" />
    <glyph glyph-name="minus" unicode="&#x2212;" horiz-adv-x="1228" 
d="M129 645l25 143h1024l-25 -143h-1024z" />
    </font>
</defs>
</svg>
