<?xml version="1.0" standalone="no"?>
<!DOCTYPE svg PUBLIC "-//W3C//DTD SVG 1.1//EN" "http://www.w3.org/Graphics/SVG/1.1/DTD/svg11.dtd" >
<svg xmlns="http://www.w3.org/2000/svg" xmlns:xlink="http://www.w3.org/1999/xlink" version="1.1">
<metadata>
Created by FontForge 20170731 at Fri May 28 20:07:30 2021
 By Aleksey,,,
Copyright 2017 OMSE LTD. All rights reserved.
</metadata>
<defs>
<font id="ModernEraTRIAL-Black" horiz-adv-x="1228" >
  <font-face 
    font-family="Modern Era TRIAL Black"
    font-weight="900"
    font-stretch="normal"
    units-per-em="2048"
    panose-1="2 0 0 0 0 0 0 0 0 0"
    ascent="1608"
    descent="-440"
    x-height="1042"
    cap-height="1434"
    bbox="-164 -422 2150 1602"
    underline-thickness="286"
    underline-position="-532"
    unicode-range="U+000D-2212"
  />
<missing-glyph horiz-adv-x="1695" 
d="M848 -29q-202 0 -373.5 100t-272 272t-100.5 374t100.5 374t272 271.5t373.5 99.5q152 0 290 -59t237.5 -158.5t158.5 -237.5t59 -290t-59 -290t-158.5 -238t-237.5 -159t-290 -59zM848 104q166 0 307.5 82t224 223.5t82.5 307.5t-82.5 307t-224 223t-307.5 82t-307 -82
t-223 -223t-82 -307t82 -307.5t223 -223.5t307 -82zM618 717q-52 0 -89 37t-37 88q0 53 37 90t89 37t88.5 -37t36.5 -90q0 -51 -36.5 -88t-88.5 -37zM1077 717q-52 0 -88.5 37t-36.5 88q0 53 36.5 90t88.5 37q53 0 90 -37.5t37 -89.5q0 -51 -37.5 -88t-89.5 -37z" />
    <glyph glyph-name=".notdef" horiz-adv-x="1695" 
d="M848 -29q-202 0 -373.5 100t-272 272t-100.5 374t100.5 374t272 271.5t373.5 99.5q152 0 290 -59t237.5 -158.5t158.5 -237.5t59 -290t-59 -290t-158.5 -238t-237.5 -159t-290 -59zM848 104q166 0 307.5 82t224 223.5t82.5 307.5t-82.5 307t-224 223t-307.5 82t-307 -82
t-223 -223t-82 -307t82 -307.5t223 -223.5t307 -82zM618 717q-52 0 -89 37t-37 88q0 53 37 90t89 37t88.5 -37t36.5 -90q0 -51 -36.5 -88t-88.5 -37zM1077 717q-52 0 -88.5 37t-36.5 88q0 53 36.5 90t88.5 37q53 0 90 -37.5t37 -89.5q0 -51 -37.5 -88t-89.5 -37z" />
    <glyph glyph-name=".null" horiz-adv-x="0" 
 />
    <glyph glyph-name="nonmarkingreturn" horiz-adv-x="682" 
 />
    <glyph glyph-name="CR" unicode="&#xd;" horiz-adv-x="573" 
 />
    <glyph glyph-name="space" unicode=" " horiz-adv-x="573" 
 />
    <glyph glyph-name="exclam" unicode="!" horiz-adv-x="645" 
d="M152 481v953h340v-953h-340zM322 -14q-79 0 -134 60t-55 132q0 68 55.5 127.5t133.5 59.5q76 0 133 -59.5t57 -133.5q0 -75 -59 -130.5t-131 -55.5z" />
    <glyph glyph-name="quotedbl" unicode="&#x22;" horiz-adv-x="958" 
d="M51 963v569h336v-569h-336zM571 963v569h336v-569h-336z" />
    <glyph glyph-name="numbersign" unicode="#" horiz-adv-x="1562" 
d="M1511 860h-272l-39 -287h250v-266h-287l-41 -307h-286l41 307h-304l-41 -307h-286l41 307h-236v266h273l38 287h-249v266h286l41 308h287l-41 -308h303l41 308h287l-41 -308h235v-266zM913 573l39 287h-303l-39 -287h303z" />
    <glyph glyph-name="dollar" unicode="$" horiz-adv-x="1163" 
d="M1102 455q0 -145 -90 -252t-242 -150v-155h-340v149q-144 36 -240.5 134.5t-128.5 246.5l324 92q32 -106 74.5 -145t128.5 -39q83 0 127.5 31t44.5 88q0 44 -40 68.5t-142 41.5q-246 44 -365 148.5t-119 277.5q0 148 91 255.5t245 146.5v143h340v-152q121 -40 200 -131.5
t107 -224.5l-323 -92q-25 95 -60 130.5t-104 35.5q-154 0 -154 -111q0 -33 42.5 -54t158.5 -46q239 -49 352 -155t113 -281z" />
    <glyph glyph-name="ampersand" unicode="&#x26;" horiz-adv-x="1165" 
d="M1155 885v-267h-117v-176q0 -136 -65.5 -245t-173 -167.5t-234.5 -58.5q-221 0 -362.5 129.5t-141.5 339.5q0 204 160 328q-98 112 -98 266q0 185 134.5 306.5t324.5 121.5q180 0 287.5 -84t142.5 -231l-289 -74q-13 47 -52 75t-87 28q-64 0 -107 -40t-43 -104
t41.5 -105.5t102.5 -41.5h149v98h311v-98h117zM727 444v174h-149q-75 0 -126 -49.5t-51 -124.5q0 -73 47.5 -119t118.5 -46q66 0 113 46.5t47 118.5z" />
    <glyph glyph-name="quotesingle" unicode="'" horiz-adv-x="438" 
d="M51 963v569h336v-569h-336z" />
    <glyph glyph-name="parenleft" unicode="(" horiz-adv-x="632" 
d="M326 -350q-45 58 -89.5 149.5t-85 213.5t-65.5 280t-25 321q0 214 45 417.5t103.5 333.5t122.5 210l258 -170q-209 -279 -209 -791q0 -505 221 -800z" />
    <glyph glyph-name="parenright" unicode=")" horiz-adv-x="632" 
d="M307 -348l-276 164q221 295 221 800q0 512 -209 791l258 170q103 -128 186.5 -388t83.5 -573q0 -214 -44 -418.5t-101 -335t-119 -210.5z" />
    <glyph glyph-name="asterisk" unicode="*" horiz-adv-x="964" 
d="M903 1143l-235 -76l147 -203l-186 -135l-148 203l-145 -203l-186 135l147 201l-236 78l68 217l240 -78v250h227v-250l238 78z" />
    <glyph glyph-name="plus" unicode="+" 
d="M461 205v358h-359v307h359v359h307v-359h358v-307h-358v-358h-307z" />
    <glyph glyph-name="comma" unicode="," horiz-adv-x="485" 
d="M92 -244q37 52 62 119.5t28 116.5q-131 50 -131 180q0 77 52.5 135t136.5 58q83 0 138.5 -54.5t55.5 -158.5q0 -109 -57 -248t-158 -240z" />
    <glyph glyph-name="hyphen" unicode="-" horiz-adv-x="831" 
d="M102 461v307h627v-307h-627z" />
    <glyph glyph-name="period" unicode="." horiz-adv-x="481" 
d="M240 -14q-77 0 -133 56t-56 132q0 78 56 134.5t133 56.5q78 0 134 -56.5t56 -134.5q0 -77 -56 -132.5t-134 -55.5z" />
    <glyph glyph-name="slash" unicode="/" horiz-adv-x="997" 
d="M51 0l565 1434h330l-565 -1434h-330z" />
    <glyph glyph-name="zero" unicode="0" horiz-adv-x="1243" 
d="M627 -27q-137 0 -244 56t-174.5 157t-102 235.5t-34.5 297.5q0 162 34 296.5t101 235.5t173 157t243 56q136 0 241.5 -56t172 -157t100.5 -235.5t34 -296.5q0 -159 -34 -293.5t-100 -236t-171 -159t-239 -57.5zM627 291q102 0 153 110.5t51 317.5q0 205 -51.5 316.5
t-156.5 111.5q-211 0 -211 -428q0 -214 51.5 -321t163.5 -107z" />
    <glyph glyph-name="one" unicode="1" horiz-adv-x="827" 
d="M344 0v1053q-52 -36 -144.5 -65.5t-162.5 -35.5v348q64 9 151 47t156 87h340v-1434h-340z" />
    <glyph glyph-name="two" unicode="2" horiz-adv-x="1161" 
d="M102 0v317l494 420q95 81 124.5 131t29.5 117q0 64 -47 112t-125 48q-96 0 -145 -60t-46 -161l-315 86q13 202 154 327t352 125q137 0 254 -60.5t187.5 -169t70.5 -241.5q0 -147 -61.5 -254.5t-190.5 -216.5l-242 -203h494v-317h-988z" />
    <glyph glyph-name="three" unicode="3" horiz-adv-x="1196" 
d="M588 -29q-154 0 -273 60.5t-181 159t-62 215.5l313 90q2 -87 57.5 -147t145.5 -60q87 0 141.5 53t54.5 135q0 84 -54.5 136.5t-141.5 52.5q-42 0 -74 -13l-170 205l289 258h-506v318h903v-318l-201 -194q43 -13 82 -33.5t79 -57t69 -84t47 -117.5t18 -153
q0 -221 -150.5 -363.5t-385.5 -142.5z" />
    <glyph glyph-name="four" unicode="4" horiz-adv-x="1193" 
d="M676 0l2 338h-631v246l602 850h367l2 -809h129v-287h-129l-2 -338h-340zM422 625h256l-2 344z" />
    <glyph glyph-name="five" unicode="5" horiz-adv-x="1181" 
d="M580 -29q-213 0 -360.5 122.5t-147.5 297.5l313 92q-1 -91 54 -142.5t141 -51.5q79 0 134 51t56 135q-1 84 -56 134t-134 50q-113 0 -172 -75l-289 106l71 744h818v-320h-523l-18 -186q55 22 143 22q145 0 257 -55t177 -163t66 -255q-1 -154 -70 -270t-188 -176t-272 -60
z" />
    <glyph glyph-name="six" unicode="6" horiz-adv-x="1214" 
d="M614 -29q-115 0 -205.5 33t-153.5 93t-104 148t-60 194.5t-19 234.5q0 187 31 329.5t96 246.5t173 158t257 54q200 0 321.5 -100t159.5 -272l-297 -86q-27 78 -69 109.5t-115 31.5q-93 0 -144 -65.5t-59 -186.5l4 3q5 4 10.5 7.5t14.5 9.5t20.5 11t25.5 11t31.5 11
t37.5 9t44 6t50 2q134 0 242.5 -59.5t172.5 -173t64 -261.5q0 -147 -71 -261.5t-191 -175.5t-267 -61zM614 287q80 0 134.5 53t54.5 131q0 81 -54 132.5t-135 51.5q-83 0 -135.5 -51t-52.5 -133q0 -80 53 -132t135 -52z" />
    <glyph glyph-name="seven" unicode="7" horiz-adv-x="1052" 
d="M274 0q36 266 137 590t214 526h-578v318h959v-318q-130 -205 -244 -530t-148 -586h-340z" />
    <glyph glyph-name="eight" unicode="8" horiz-adv-x="1193" 
d="M971 766q151 -125 151 -326q0 -135 -70.5 -243t-190.5 -167t-265 -59q-146 0 -265.5 59t-189 167t-69.5 243q0 198 149 324q-106 109 -106 270q0 123 64 221.5t174 152.5t243 54q201 0 341 -121t140 -307q0 -156 -106 -268zM444 1032q0 -63 44 -104t108 -41t108 41
t44 104t-44.5 103.5t-107.5 40.5q-64 0 -108 -40.5t-44 -103.5zM596 279q77 0 131.5 46.5t54.5 118.5q0 75 -55 126t-131 51q-78 0 -131 -50.5t-53 -126.5q0 -73 52.5 -119t131.5 -46z" />
    <glyph glyph-name="nine" unicode="9" horiz-adv-x="1214" 
d="M600 1462q143 0 248.5 -50t169.5 -144t94.5 -220.5t30.5 -287.5q0 -187 -31 -329.5t-96 -247t-173 -158.5t-257 -54q-200 0 -322 100.5t-160 272.5l297 86q27 -78 69.5 -109.5t115.5 -31.5q93 0 143.5 65.5t58.5 186.5l-4 -3q-5 -4 -10 -7.5t-14 -9.5t-20.5 -11
t-25.5 -11t-31.5 -11t-37.5 -9t-44 -6t-50 -2q-134 0 -242.5 59.5t-172.5 173t-64 261.5q0 147 70.5 261.5t190.5 175t267 60.5zM600 1147q-80 0 -134 -53t-54 -131q0 -81 54 -133t134 -52q83 0 135.5 51.5t52.5 133.5q0 80 -53 132t-135 52z" />
    <glyph glyph-name="colon" unicode=":" horiz-adv-x="481" 
d="M242 586q-78 0 -134.5 55.5t-56.5 132.5q0 78 56.5 134.5t134.5 56.5q77 0 132.5 -56.5t55.5 -134.5q0 -76 -56 -132t-132 -56zM242 -14q-78 0 -134.5 55.5t-56.5 132.5q0 78 56.5 134.5t134.5 56.5q77 0 132.5 -56.5t55.5 -134.5q0 -76 -56 -132t-132 -56z" />
    <glyph glyph-name="semicolon" unicode=";" horiz-adv-x="503" 
d="M264 586q-78 0 -134 55.5t-56 132.5q0 78 56 134.5t134 56.5q77 0 133 -56.5t56 -134.5q0 -76 -56 -132t-133 -56zM92 -252q37 52 62 119.5t28 116.5q-131 50 -131 180q0 77 52.5 134.5t136.5 57.5q83 0 138.5 -54.5t55.5 -158.5q0 -109 -57 -247.5t-158 -239.5z" />
    <glyph glyph-name="equal" unicode="=" 
d="M102 842v307h1024v-307h-1024zM102 285v307h1024v-307h-1024z" />
    <glyph glyph-name="question" unicode="?" horiz-adv-x="1120" 
d="M555 1466q224 0 369 -136t145 -339q0 -143 -78.5 -253.5t-232.5 -162.5v-114h-340v319h92q113 0 170.5 58t62.5 139q0 71 -50 121.5t-134 50.5q-101 0 -152 -59t-49 -160l-307 84q12 203 150.5 327.5t353.5 124.5zM590 365q76 0 132 -56t56 -133q0 -78 -55.5 -134
t-132.5 -56q-79 0 -135 56t-56 134q0 77 56 133t135 56z" />
    <glyph glyph-name="at" unicode="@" horiz-adv-x="1673" 
d="M1022 844h182l-33 -414q3 -63 89 -63q48 0 80 48t32 113q0 246 -144.5 390.5t-387.5 144.5q-147 0 -270.5 -71.5t-195 -196.5t-71.5 -275t68.5 -274t192 -196.5t276.5 -72.5q88 0 169.5 26t137.5 69l123 -160q-79 -64 -196.5 -102.5t-233.5 -38.5q-157 0 -297 57.5
t-241.5 156.5t-160.5 238.5t-59 296.5q0 154 60 293t161.5 239t242 159t294.5 59q219 0 389 -90.5t266 -260t96 -391.5q0 -175 -89.5 -271.5t-237.5 -96.5q-81 0 -144.5 28t-97.5 78q-97 -106 -221 -106q-96 0 -165 47t-100.5 119t-31.5 159q0 95 37.5 179.5t117 141
t185.5 56.5q62 0 107.5 -25.5t64.5 -54.5zM842 360q65 0 104 51t39 117q0 57 -31 95.5t-90 38.5q-68 0 -108.5 -51t-40.5 -117q0 -57 32.5 -95.5t94.5 -38.5z" />
    <glyph glyph-name="A" unicode="A" horiz-adv-x="1476" 
d="M1110 0l-90 242h-561l-90 -242h-349l539 1434h361l536 -1434h-346zM571 549h336l-168 452z" />
    <glyph glyph-name="B" unicode="B" horiz-adv-x="1261" 
d="M133 0v1434h547q230 0 352.5 -103.5t122.5 -286.5q0 -203 -186 -294v-5q44 -13 82.5 -38t73 -63t55 -95.5t20.5 -126.5q0 -200 -142 -311t-370 -111h-555zM473 868h193q159 0 159 136q0 133 -159 133h-193v-269zM473 297h209q178 0 178 141q0 70 -40.5 112t-125.5 42
h-221v-295z" />
    <glyph glyph-name="C" unicode="C" horiz-adv-x="1501" 
d="M793 -27q-151 0 -281 51t-225.5 145.5t-150 236t-54.5 313.5q0 217 88.5 386.5t249 264t366.5 94.5q113 0 213 -25.5t186.5 -78t152 -139.5t102.5 -203l-328 -107q-60 236 -319 236q-161 0 -266 -123.5t-105 -306.5q0 -190 110.5 -309t270.5 -119q70 0 125.5 19t91 51
t57 66t33.5 73l326 -105q-85 -207 -243 -313.5t-400 -106.5z" />
    <glyph glyph-name="D" unicode="D" horiz-adv-x="1433" 
d="M133 0v1434h551q143 0 265 -48.5t211.5 -139t140.5 -227t51 -304.5q0 -140 -39 -258.5t-105 -201.5t-153.5 -141.5t-184 -86t-196.5 -27.5h-541zM473 307h195q93 0 162 35.5t107.5 96t56.5 130t18 148.5q0 409 -361 409h-178v-819z" />
    <glyph glyph-name="E" unicode="E" horiz-adv-x="1138" 
d="M133 0v1434h934v-308h-594v-258h504v-297h-504v-264h594v-307h-934z" />
    <glyph glyph-name="F" unicode="F" horiz-adv-x="1136" 
d="M133 0v1434h932v-308h-592v-292h510v-297h-510v-537h-340z" />
    <glyph glyph-name="G" unicode="G" horiz-adv-x="1585" 
d="M788 -29q-157 0 -290 57.5t-224 157.5t-141.5 237t-50.5 294q0 208 86 377t246.5 268.5t365.5 99.5q501 0 647 -403l-323 -111q-34 90 -103.5 143.5t-199.5 53.5q-111 0 -199 -59t-134 -156t-46 -213q0 -180 109.5 -304t281.5 -124q264 0 332 243h-266v287h604v-819h-221
l-52 111q-17 -20 -47.5 -41t-80.5 -44.5t-127.5 -39t-166.5 -15.5z" />
    <glyph glyph-name="H" unicode="H" horiz-adv-x="1472" 
d="M133 0v1434h340v-551h526v551h340v-1434h-340v565h-526v-565h-340z" />
    <glyph glyph-name="I" unicode="I" horiz-adv-x="606" 
d="M133 0v1434h340v-1434h-340z" />
    <glyph glyph-name="J" unicode="J" horiz-adv-x="1122" 
d="M508 -29q-127 0 -232 47.5t-171.5 142.5t-73.5 222v145l329 -65v-33q0 -60 37 -100.5t115 -40.5q147 0 147 180v965h340v-957q0 -130 -36.5 -228.5t-103 -158.5t-155 -89.5t-196.5 -29.5z" />
    <glyph glyph-name="K" unicode="K" horiz-adv-x="1431" 
d="M985 -2l-385 588l-131 -146v-440h-336v1434h336v-523l459 523h440l-532 -588l575 -848h-426z" />
    <glyph glyph-name="L" unicode="L" horiz-adv-x="1083" 
d="M133 0v1434h340v-1119h569v-315h-909z" />
    <glyph glyph-name="M" unicode="M" horiz-adv-x="1851" 
d="M1718 1434l-2 -1434h-340v793l-340 -793h-225l-338 788v-788h-340v1434h373l420 -973l417 973h375z" />
    <glyph glyph-name="N" unicode="N" horiz-adv-x="1509" 
d="M133 0v1434h346l557 -873v873h340v-1434h-344l-559 870v-870h-340z" />
    <glyph glyph-name="O" unicode="O" horiz-adv-x="1642" 
d="M821 -27q-143 0 -265 42t-208 114t-147 168t-90 203t-29 219q0 113 29 220.5t89.5 203t146.5 167t208 113t266 41.5q143 0 265 -41.5t208.5 -113t147.5 -167t90 -203t29 -220.5q0 -112 -29.5 -219t-91 -203t-147.5 -168t-208 -114t-264 -42zM821 291q188 0 294 121
t106 307q0 188 -104.5 308t-295.5 120q-192 0 -295.5 -119.5t-103.5 -308.5q0 -121 43.5 -216.5t135.5 -153.5t220 -58z" />
    <glyph glyph-name="P" unicode="P" horiz-adv-x="1247" 
d="M133 0v1434h567q72 0 138.5 -14t133 -48.5t115 -87.5t79 -137t30.5 -191q0 -102 -29.5 -185t-77 -137t-110.5 -90.5t-127 -52.5t-129 -16h-250v-475h-340zM473 782h203q45 0 79 13t52.5 31t30 43.5t15 45.5t3.5 41q0 26 -7.5 51.5t-25.5 54t-56.5 46.5t-92.5 18h-201
v-344z" />
    <glyph glyph-name="Q" unicode="Q" horiz-adv-x="1642" 
d="M1561 719q0 -241 -125 -430l125 -125l-226 -217l-125 125q-172 -99 -389 -99q-143 0 -265 42t-208 114t-147 168t-90 203t-29 219q0 113 29 220.5t89.5 203t146.5 167t208 113t266 41.5q143 0 265 -41.5t208.5 -113t147.5 -167t90 -203t29 -220.5zM821 291q83 0 148 24
l-121 121l225 217l117 -116q31 85 31 182q0 188 -104.5 308t-295.5 120q-192 0 -295.5 -119.5t-103.5 -308.5q0 -121 43.5 -216.5t135.5 -153.5t220 -58z" />
    <glyph glyph-name="R" unicode="R" horiz-adv-x="1298" 
d="M133 0v1434h578q212 0 341.5 -126.5t129.5 -314.5q0 -160 -65.5 -267t-180.5 -161l311 -565h-370l-271 512h-133v-512h-340zM473 809h197q89 0 131.5 49t42.5 109q0 66 -41 112.5t-131 46.5h-199v-317z" />
    <glyph glyph-name="S" unicode="S" horiz-adv-x="1230" 
d="M618 -27q-214 0 -360.5 106.5t-196.5 297.5l318 92q35 -100 85.5 -144t153.5 -44q99 0 155 37.5t56 105.5q0 35 -15.5 60t-47.5 41.5t-67 26t-87 17.5q-267 47 -392.5 157.5t-125.5 293.5q0 190 143 317t384 127q197 0 334.5 -102t181.5 -285l-318 -90
q-28 93 -71.5 131.5t-126.5 38.5q-187 0 -187 -137q0 -51 54.5 -78.5t181.5 -54.5q259 -54 379 -165.5t120 -297.5q0 -134 -74 -237.5t-198.5 -158.5t-278.5 -55z" />
    <glyph glyph-name="T" unicode="T" horiz-adv-x="1191" 
d="M426 0v1116h-385v318h1110v-318h-385v-1116h-340z" />
    <glyph glyph-name="U" unicode="U" horiz-adv-x="1468" 
d="M735 -29q-94 0 -178.5 19.5t-163 67t-135.5 118t-91 180.5t-34 248v830h340v-816q0 -166 61 -247.5t201 -81.5q143 0 201.5 83.5t58.5 245.5v816h340v-834q0 -137 -32 -245.5t-87 -179.5t-132.5 -117.5t-163.5 -66.5t-185 -20z" />
    <glyph glyph-name="V" unicode="V" horiz-adv-x="1476" 
d="M1087 1434h369l-530 -1434h-373l-533 1434h369l350 -977z" />
    <glyph glyph-name="W" unicode="W" horiz-adv-x="2013" 
d="M1642 1434h351l-402 -1434h-338l-249 954l-244 -954h-338l-402 1434h351l233 -934l238 934h336l233 -908z" />
    <glyph glyph-name="X" unicode="X" horiz-adv-x="1439" 
d="M1419 0h-399l-301 453l-297 -453h-402l480 727l-463 707h403l279 -433l282 433h402l-461 -701z" />
    <glyph glyph-name="Y" unicode="Y" horiz-adv-x="1409" 
d="M535 0v537l-515 897h375l307 -553l310 553h377l-515 -897v-537h-339z" />
    <glyph glyph-name="Z" unicode="Z" horiz-adv-x="1239" 
d="M82 0v297l643 829h-606v308h1034v-297l-643 -830h647v-307h-1075z" />
    <glyph glyph-name="backslash" unicode="\" horiz-adv-x="976" 
d="M926 0h-330l-565 1434h329z" />
    <glyph glyph-name="underscore" unicode="_" horiz-adv-x="1024" 
d="M0 -389v287h1024v-287h-1024z" />
    <glyph glyph-name="a" unicode="a" horiz-adv-x="1073" 
d="M412 -29q-47 0 -95 11.5t-94.5 37.5t-82 63.5t-57.5 93t-22 122.5q0 42 7 77t33 79.5t70 77.5t124 62.5t188 43.5l168 23v2q0 145 -129 145q-68 0 -105.5 -30t-49.5 -97l-293 70q56 167 161.5 243t303.5 76q65 0 126.5 -12.5t120.5 -42.5t103 -74.5t71 -114t27 -155.5
v-672h-274l-43 80q-80 -109 -258 -109zM512 233q60 0 99.5 35.5t39.5 85.5v101l-153 -23q-70 -10 -93.5 -38t-23.5 -72q0 -39 34.5 -64t96.5 -25z" />
    <glyph glyph-name="b" unicode="b" horiz-adv-x="1292" 
d="M717 -29q-108 0 -181.5 41t-113.5 90l-45 -102h-275v1434h336v-478q35 43 109.5 79t173.5 36t190.5 -39t162.5 -108.5t114 -174.5t43 -229t-43 -228.5t-114.5 -174t-164 -108t-192.5 -38.5zM664 274q96 0 163.5 69.5t67.5 176.5q0 106 -68 177t-163 71t-160.5 -69.5
t-65.5 -178.5q0 -107 65.5 -176.5t160.5 -69.5z" />
    <glyph glyph-name="c" unicode="c" horiz-adv-x="1159" 
d="M614 -29q-110 0 -210 38.5t-176.5 108t-121.5 174t-45 228.5q0 165 76 292.5t201 193t276 65.5q170 0 302.5 -92t181.5 -250l-305 -100q-20 60 -67.5 94.5t-111.5 34.5q-96 0 -156.5 -65.5t-60.5 -172.5q0 -105 60.5 -170t156.5 -65q123 0 166 100l303 -100
q-56 -149 -181 -231.5t-288 -82.5z" />
    <glyph glyph-name="d" unicode="d" horiz-adv-x="1292" 
d="M575 -29q-100 0 -192.5 38.5t-164 108t-114.5 174t-43 228.5t43 229t114 174.5t162.5 108.5t190.5 39t173.5 -36t109.5 -79v478h336v-1434h-275l-45 102q-40 -49 -113.5 -90t-181.5 -41zM629 274q95 0 160 69.5t65 176.5q0 109 -65 178.5t-160 69.5t-163.5 -71
t-68.5 -177q0 -107 68 -176.5t164 -69.5z" />
    <glyph glyph-name="e" unicode="e" horiz-adv-x="1155" 
d="M1094 420h-719q10 -70 72 -123t153 -53q82 0 129.5 36.5t65.5 77.5l276 -79q-115 -308 -473 -308q-105 0 -201.5 38.5t-171.5 108t-119.5 174t-44.5 228.5q0 161 72.5 288t194.5 195t270 68q153 0 266.5 -71.5t171.5 -194.5t58 -281v-104zM805 631q1 11 -4 30t-19 45
t-36 48.5t-60.5 38.5t-87.5 16q-95 0 -150.5 -51t-70.5 -127h428z" />
    <glyph glyph-name="f" unicode="f" horiz-adv-x="839" 
d="M209 0v750h-168v292h168v80q0 84 27.5 151.5t74 108.5t105 62.5t123.5 21.5q188 0 290 -102l-127 -231q-34 30 -84 30q-73 0 -73 -86v-35h229v-292h-229v-750h-336z" />
    <glyph glyph-name="g" unicode="g" horiz-adv-x="1265" 
d="M604 -422q-207 0 -333 94t-167 248l312 68q11 -58 58.5 -92.5t129.5 -34.5q98 0 160.5 52.5t62.5 162.5v69q-27 -47 -100 -82.5t-170 -35.5q-96 0 -184.5 34.5t-158.5 99t-111.5 165t-41.5 223.5q0 121 41 221.5t110.5 165.5t158 100t186.5 35q103 0 175 -43t95 -88
l62 102h274v-962q0 -103 -29 -187t-80 -142t-122 -97.5t-153 -57.5t-175 -18zM610 330q94 0 155.5 58.5t61.5 160.5t-61.5 160.5t-155.5 58.5q-91 0 -152 -58.5t-61 -160.5q0 -103 60 -161t153 -58z" />
    <glyph glyph-name="h" unicode="h" horiz-adv-x="1193" 
d="M102 0v1434h332v-484q50 54 113 87.5t160 33.5q199 0 292 -119t93 -372v-580h-334v545q0 113 -40.5 162t-119.5 49q-164 0 -164 -209v-547h-332z" />
    <glyph glyph-name="i" unicode="i" horiz-adv-x="544" 
d="M268 1157q-71 0 -121.5 51t-50.5 123q0 71 51 122.5t121 51.5q72 0 124 -51.5t52 -122.5q0 -72 -52 -123t-124 -51zM104 0v1042h336v-1042h-336z" />
    <glyph glyph-name="j" unicode="j" horiz-adv-x="561" 
d="M287 1157q-71 0 -121.5 51t-50.5 123q0 71 51 122.5t121 51.5q72 0 124 -51.5t52 -122.5q0 -72 -52 -123t-124 -51zM127 -420q-188 0 -291 103l127 241q34 -30 84 -30q74 0 74 86v1062h336v-1118q0 -84 -27.5 -151.5t-74 -108.5t-105 -62.5t-123.5 -21.5z" />
    <glyph glyph-name="k" unicode="k" horiz-adv-x="1169" 
d="M772 0l-270 389l-64 -70v-319h-336v1434h336v-682l267 290h401l-383 -415l426 -627h-377z" />
    <glyph glyph-name="l" unicode="l" horiz-adv-x="540" 
d="M102 0v1434h336v-1434h-336z" />
    <glyph glyph-name="m" unicode="m" horiz-adv-x="1724" 
d="M102 0v1042h275l45 -106q42 52 122 93.5t181 41.5q181 0 262 -135q45 53 122.5 94t180.5 41q159 0 245.5 -96.5t86.5 -296.5v-678h-336v600q0 158 -127 158q-129 0 -129 -170v-588h-336v600q0 76 -32.5 117t-94.5 41q-65 0 -97 -40.5t-32 -129.5v-588h-336z" />
    <glyph glyph-name="n" unicode="n" horiz-adv-x="1200" 
d="M102 0v1042h275l47 -110q111 139 285 139q201 0 295 -119.5t94 -371.5v-580h-336v549q0 209 -160 209q-164 0 -164 -207v-551h-336z" />
    <glyph glyph-name="o" unicode="o" horiz-adv-x="1220" 
d="M610 -29q-108 0 -207 38.5t-175 108t-121.5 174t-45.5 228.5t45.5 229t121.5 174.5t175 108.5t207 39t207 -39t175 -108.5t121.5 -174.5t45.5 -229t-45.5 -228.5t-121.5 -174t-175 -108t-207 -38.5zM610 285q89 0 151 65.5t62 169.5q0 105 -62 171.5t-151 66.5
q-91 0 -152 -66t-61 -172q0 -105 61 -170t152 -65z" />
    <glyph glyph-name="p" unicode="p" horiz-adv-x="1292" 
d="M717 1071q100 0 192.5 -38.5t164 -108t114.5 -174t43 -228.5t-43 -229t-114 -174.5t-162.5 -108.5t-190.5 -39t-173.5 36t-109.5 79v-477h-336v1433h275l45 -102q40 49 113.5 90t181.5 41zM664 768q-95 0 -160.5 -69.5t-65.5 -176.5q0 -109 65.5 -178.5t160.5 -69.5
t163 71t68 177q0 107 -67.5 176.5t-163.5 69.5z" />
    <glyph glyph-name="q" unicode="q" horiz-adv-x="1292" 
d="M575 1071q108 0 181.5 -41t113.5 -90l45 102h275v-1433h-336v477q-35 -43 -109.5 -79t-173.5 -36t-190.5 39t-162.5 108.5t-114 174.5t-43 229t43 228.5t114.5 174t164 108t192.5 38.5zM629 768q-96 0 -164 -69.5t-68 -176.5q0 -106 68.5 -177t163.5 -71t160 69.5
t65 178.5q0 107 -65 176.5t-160 69.5z" />
    <glyph glyph-name="r" unicode="r" horiz-adv-x="845" 
d="M102 0v1042h275l47 -106q34 55 95 95t147 40q100 0 170 -45l-115 -299q-44 31 -107 31q-79 0 -127.5 -51t-48.5 -156v-551h-336z" />
    <glyph glyph-name="s" unicode="s" horiz-adv-x="1003" 
d="M504 -29q-174 0 -292 84t-151 219l273 88q17 -69 62 -104t108 -35q65 0 98 23t33 61q0 25 -24 42.5t-51 25t-71 14.5q-75 13 -131.5 28t-111.5 41.5t-90 61.5t-56.5 87t-21.5 118q0 63 25 122t74.5 110.5t134 82.5t192.5 31q151 0 258.5 -77.5t140.5 -215.5l-262 -76
q-35 113 -135 113q-53 0 -87 -17t-34 -50q0 -30 35.5 -48.5t126.5 -35.5q197 -36 296 -114t99 -228q0 -146 -115.5 -248.5t-322.5 -102.5z" />
    <glyph glyph-name="t" unicode="t" horiz-adv-x="839" 
d="M539 -29q-65 0 -123.5 21.5t-105 62.5t-74 108.5t-27.5 151.5v435h-168v292h168v271h336v-271h229v-292h-229v-379q0 -86 73 -86q50 0 84 30l127 -241q-103 -103 -290 -103z" />
    <glyph glyph-name="u" unicode="u" horiz-adv-x="1200" 
d="M1098 1042v-1042h-275l-47 111q-22 -27 -43.5 -47.5t-56 -44t-81.5 -36t-103 -12.5q-201 0 -295.5 120t-94.5 372v579h336v-548q0 -209 160 -209q164 0 164 207v550h336z" />
    <glyph glyph-name="v" unicode="v" horiz-adv-x="1169" 
d="M805 1042h344l-389 -1042h-350l-390 1042h345l219 -653z" />
    <glyph glyph-name="w" unicode="w" horiz-adv-x="1679" 
d="M1325 1042h334l-326 -1042h-340l-151 592l-156 -592h-340l-326 1042h334l168 -655l174 655h291l170 -651z" />
    <glyph glyph-name="x" unicode="x" horiz-adv-x="1169" 
d="M1149 0h-367l-198 279l-199 -279h-365l375 520l-375 522h369l193 -272l194 272h365l-371 -516z" />
    <glyph glyph-name="y" unicode="y" horiz-adv-x="1206" 
d="M768 1042h336v-979q-3 -124 -46 -218.5t-116.5 -152t-167.5 -86t-205 -28.5q-191 0 -309 93t-158 241l310 59q8 -50 48 -80t109 -30q85 0 142 53t57 164v65l-2 4q-104 -120 -270 -120q-199 0 -293 119.5t-94 371.5v524h335v-493q0 -111 40.5 -160t119.5 -49
q164 0 164 205v497z" />
    <glyph glyph-name="z" unicode="z" horiz-adv-x="1001" 
d="M72 0v236l438 534h-426v272h834v-233l-439 -537h451v-272h-858z" />
    <glyph glyph-name="uni00A0" unicode="&#xa0;" horiz-adv-x="573" 
 />
    <glyph glyph-name="cent" unicode="&#xa2;" horiz-adv-x="1159" 
d="M614 477q123 0 166 101l303 -101q-42 -111 -123 -185.5t-190 -107.5v-159h-336v165q-165 53 -269 191t-104 332q0 195 103 333t270 191v176h336v-172q118 -35 205 -117.5t123 -201.5l-305 -101q-20 60 -67.5 94.5t-111.5 34.5q-96 0 -156.5 -65.5t-60.5 -171.5
q0 -105 60.5 -170.5t156.5 -65.5z" />
    <glyph glyph-name="sterling" unicode="&#xa3;" horiz-adv-x="1140" 
d="M520 549v-242h578v-307h-1055v307h137v242h-139v297h139v106q0 130 36.5 229t103.5 160t155.5 91t196.5 30q183 0 312 -106.5t146 -298.5l-313 -45q-5 55 -42.5 94t-106.5 39q-148 0 -148 -184v-115h438v-297h-438z" />
    <glyph glyph-name="yen" unicode="&#xa5;" horiz-adv-x="1409" 
d="M1389 1434l-361 -629h180v-266h-331l-3 -2v-121h334v-266h-334v-150h-339v150h-334v266h334v121l-3 2h-331v266h180l-361 629h375l307 -553l310 553h377z" />
    <glyph glyph-name="copyright" unicode="&#xa9;" horiz-adv-x="1695" 
d="M848 -27q-203 0 -374.5 100t-271.5 271.5t-100 374.5q0 152 59 290t159 237.5t238 158.5t290 59t290 -59t237.5 -158.5t158.5 -237.5t59 -290t-59 -290t-158.5 -238t-237.5 -159t-290 -59zM848 164q113 0 216 44t177 118t118 177t44 216t-44 216t-118 177t-177 118
t-216 44t-216 -44t-177 -118t-118 -177t-44 -216t44 -216t118 -177t177 -118t216 -44zM844 324q-164 0 -270.5 106.5t-106.5 288.5q0 175 104 285t271 110q124 0 216 -57.5t130 -177.5l-174 -58q-32 125 -170 125q-85 0 -141 -65.5t-56 -161.5q0 -102 58.5 -164.5
t144.5 -62.5q70 0 110 32.5t52 77.5l174 -55q-92 -223 -342 -223z" />
    <glyph glyph-name="paragraph" unicode="&#xb6;" horiz-adv-x="1454" 
d="M1413 1434v-246h-215v-1579h-276l-2 1579h-195v-1579h-279l3 1005q-169 0 -288.5 120.5t-119.5 289.5t120 289.5t290 120.5h962z" />
    <glyph glyph-name="multiply" unicode="&#xd7;" 
d="M1114 993l-276 -276l276 -277l-221 -221l-277 277l-276 -277l-221 221l276 277l-276 276l221 221l276 -276l277 276z" />
    <glyph glyph-name="divide" unicode="&#xf7;" 
d="M614 985q-76 0 -132 56t-56 133q0 78 55.5 134t132.5 56q78 0 134.5 -56t56.5 -134q0 -77 -56.5 -133t-134.5 -56zM51 575v287h1127v-287h-1127zM614 90q-76 0 -132 56t-56 133q0 78 55.5 134t132.5 56q78 0 134.5 -56t56.5 -134q0 -77 -56.5 -133t-134.5 -56z" />
    <glyph glyph-name="endash" unicode="&#x2013;" 
d="M102 459v311h1024v-311h-1024z" />
    <glyph glyph-name="emdash" unicode="&#x2014;" horiz-adv-x="2252" 
d="M102 461v307h2048v-307h-2048z" />
    <glyph glyph-name="quoteleft" unicode="&#x2018;" horiz-adv-x="485" 
d="M393 1509q-37 -52 -62 -119t-28 -116q131 -50 131 -180q0 -78 -52 -135.5t-136 -57.5q-83 0 -139 54.5t-56 158.5q0 109 57 248t158 240z" />
    <glyph glyph-name="quoteright" unicode="&#x2019;" horiz-adv-x="485" 
d="M92 987q37 52 62 119.5t28 116.5q-131 50 -131 180q0 77 52.5 134.5t136.5 57.5q83 0 138.5 -54.5t55.5 -158.5q0 -109 -57 -247.5t-158 -239.5z" />
    <glyph glyph-name="quotedblleft" unicode="&#x201c;" horiz-adv-x="976" 
d="M393 1509q-37 -52 -62 -119t-28 -116q131 -50 131 -180q0 -78 -52 -135.5t-136 -57.5q-83 0 -139 54.5t-56 158.5q0 109 57 248t158 240zM885 1509q-37 -52 -62 -119t-28 -116q131 -50 131 -180q0 -77 -52.5 -135t-136.5 -58q-83 0 -138.5 54.5t-55.5 158.5q0 109 57 248
t158 240z" />
    <glyph glyph-name="quotedblright" unicode="&#x201d;" horiz-adv-x="976" 
d="M92 985q37 52 62 119.5t28 116.5q-131 50 -131 180q0 77 52.5 134.5t136.5 57.5q83 0 138.5 -54.5t55.5 -158.5q0 -109 -57 -247.5t-158 -239.5zM584 985q37 52 62 119.5t28 116.5q-131 50 -131 180q0 77 52 134.5t136 57.5q83 0 139 -54.5t56 -158.5q0 -109 -57 -247.5
t-158 -239.5z" />
    <glyph glyph-name="bullet" unicode="&#x2022;" horiz-adv-x="616" 
d="M309 358q-108 0 -183 74t-75 182q0 105 75.5 180.5t182.5 75.5q103 0 179.5 -76t76.5 -180q0 -107 -76 -181.5t-180 -74.5z" />
    <glyph glyph-name="Euro" unicode="&#x20ac;" horiz-adv-x="1462" 
d="M1153 395l248 -198q-189 -226 -500 -226q-234 0 -406.5 115t-244.5 332h-209l72 256h92v45v31h-164l72 256h139q71 210 243.5 333t405.5 123q317 0 498 -198l-250 -211q-86 92 -242 92q-167 0 -274 -139h383l-78 -256h-395q-2 -12 -2 -37q0 -27 2 -39h370l-77 -256h-205
q105 -129 284 -129q69 0 132.5 27.5t105.5 78.5z" />
    <glyph glyph-name="minus" unicode="&#x2212;" 
d="M102 563v307h1024v-307h-1024z" />
    </font>
</defs>
</svg>
