<?xml version="1.0" standalone="no"?>
<!DOCTYPE svg PUBLIC "-//W3C//DTD SVG 1.1//EN" "http://www.w3.org/Graphics/SVG/1.1/DTD/svg11.dtd" >
<svg xmlns="http://www.w3.org/2000/svg" xmlns:xlink="http://www.w3.org/1999/xlink" version="1.1">
<metadata>
Created by FontForge 20170731 at Fri May 28 20:07:31 2021
 By Aleksey,,,
Copyright 2017 OMSE LTD. All rights reserved.
</metadata>
<defs>
<font id="ModernEraTRIAL-BoldItalic" horiz-adv-x="1228" >
  <font-face 
    font-family="Modern Era TRIAL Bold Italic"
    font-weight="700"
    font-style="italic"
    font-stretch="normal"
    units-per-em="2048"
    panose-1="2 0 0 0 0 0 0 0 0 0"
    ascent="1608"
    descent="-440"
    x-height="1022"
    cap-height="1434"
    bbox="-291 -440 2189 1571"
    underline-thickness="212"
    underline-position="-421"
    slope="-10"
    unicode-range="U+000D-2212"
  />
<missing-glyph horiz-adv-x="1718" 
d="M895 -29q-151 0 -289 59t-238 159t-159 238t-59 290t59 290t159 237.5t238 158.5t289 59q152 0 290 -59t237.5 -158.5t158.5 -237.5t59 -290t-59 -290t-158.5 -238t-237.5 -159t-290 -59zM895 104q166 0 307.5 82t224 223.5t82.5 307.5t-82.5 307t-224 223t-307.5 82
t-307 -82t-223 -223t-82 -307t82 -307.5t223 -223.5t307 -82zM666 717q-52 0 -89.5 37t-37.5 88q0 52 37.5 89.5t89.5 37.5t88.5 -37t36.5 -90q0 -51 -36.5 -88t-88.5 -37zM1124 717q-52 0 -88.5 37t-36.5 88q0 53 36.5 90t88.5 37t89.5 -37.5t37.5 -89.5q0 -51 -37.5 -88
t-89.5 -37z" />
    <glyph glyph-name=".notdef" horiz-adv-x="1718" 
d="M895 -29q-151 0 -289 59t-238 159t-159 238t-59 290t59 290t159 237.5t238 158.5t289 59q152 0 290 -59t237.5 -158.5t158.5 -237.5t59 -290t-59 -290t-158.5 -238t-237.5 -159t-290 -59zM895 104q166 0 307.5 82t224 223.5t82.5 307.5t-82.5 307t-224 223t-307.5 82
t-307 -82t-223 -223t-82 -307t82 -307.5t223 -223.5t307 -82zM666 717q-52 0 -89.5 37t-37.5 88q0 52 37.5 89.5t89.5 37.5t88.5 -37t36.5 -90q0 -51 -36.5 -88t-88.5 -37zM1124 717q-52 0 -88.5 37t-36.5 88q0 53 36.5 90t88.5 37t89.5 -37.5t37.5 -89.5q0 -51 -37.5 -88
t-89.5 -37z" />
    <glyph glyph-name=".null" horiz-adv-x="0" 
 />
    <glyph glyph-name="nonmarkingreturn" horiz-adv-x="682" 
 />
    <glyph glyph-name="CR" unicode="&#xd;" horiz-adv-x="573" 
 />
    <glyph glyph-name="space" unicode=" " horiz-adv-x="573" 
 />
    <glyph glyph-name="exclam" unicode="!" horiz-adv-x="608" 
d="M164 420l180 1014h250l-180 -1014h-250zM227 -14q-62 0 -101.5 44t-39.5 103q0 60 48.5 111t115.5 51q62 0 102.5 -43.5t40.5 -104.5q0 -64 -52 -112.5t-114 -48.5z" />
    <glyph glyph-name="quotedbl" unicode="&#x22;" horiz-adv-x="768" 
d="M150 1022l88 494h247l-88 -494h-247zM551 1022l88 494h248l-88 -494h-248z" />
    <glyph glyph-name="numbersign" unicode="#" horiz-adv-x="1558" 
d="M1567 887h-297l-105 -340h277l-35 -201h-305l-109 -346h-217l109 346h-369l-108 -346h-218l109 346h-268l35 201h296l105 340h-279l35 200h307l109 347h217l-108 -347h368l109 347h217l-109 -347h269zM948 547l105 340h-369l-104 -340h368z" />
    <glyph glyph-name="dollar" unicode="$" horiz-adv-x="1153" 
d="M639 49l-27 -151h-247l24 149q-145 25 -231.5 121t-96.5 248l250 67q12 -121 65.5 -173t166.5 -52q120 0 196 57.5t76 153.5q0 49 -47.5 83.5t-169.5 57.5q-199 38 -300 116.5t-101 213.5q0 170 123.5 296t306.5 157l24 143h248l-25 -150q122 -29 192.5 -118.5
t80.5 -229.5l-250 -65q-7 110 -52.5 158.5t-139.5 48.5q-109 0 -177.5 -50.5t-74.5 -136.5q-3 -55 50.5 -86.5t186.5 -58.5q193 -42 286 -121.5t93 -210.5q0 -177 -120.5 -304t-309.5 -163z" />
    <glyph glyph-name="ampersand" unicode="&#x26;" horiz-adv-x="1187" 
d="M1219 862l-37 -200h-131l-43 -238q-35 -201 -182.5 -327t-342.5 -126q-191 0 -309.5 105.5t-118.5 275.5q0 116 67 237.5t195 194.5q-75 84 -75 211q0 56 17.5 117.5t58 124.5t97.5 112.5t143.5 81t189.5 31.5q170 0 266 -84.5t102 -222.5l-225 -51q-4 68 -50 106.5
t-118 38.5q-111 0 -178.5 -71t-67.5 -162q0 -70 47 -111t123 -41h207l23 123h231l-23 -125h134zM776 428l43 236h-213q-122 0 -209.5 -83t-87.5 -200q0 -86 56 -135t143 -49q96 0 173 64t95 167z" />
    <glyph glyph-name="quotesingle" unicode="'" horiz-adv-x="366" 
d="M150 1022l88 494h247l-88 -494h-247z" />
    <glyph glyph-name="parenleft" unicode="(" horiz-adv-x="612" 
d="M186 -342q-28 72 -40.5 109t-37 126t-36 190t-11.5 218q0 336 116.5 666t332.5 604l184 -141q-192 -246 -294.5 -538t-102.5 -591q0 -82 8.5 -160t16 -123.5t28 -113t26.5 -83.5t30 -79z" />
    <glyph glyph-name="parenright" unicode=")" horiz-adv-x="612" 
d="M463 1571q28 -72 40.5 -109t37 -126t36 -190t11.5 -218q0 -336 -116.5 -666t-332.5 -604l-184 141q192 246 294.5 538t102.5 591q0 101 -9 186t-30 162t-31.5 108.5t-37.5 102.5z" />
    <glyph glyph-name="asterisk" unicode="*" horiz-adv-x="915" 
d="M961 1161l-254 -78l114 -204l-159 -99l-115 209l-195 -215l-127 109l191 209l-230 77l82 170l234 -82l47 259h176l-45 -254l246 73z" />
    <glyph glyph-name="plus" unicode="+" 
d="M446 205l72 399h-399l41 225h397l70 400h229l-72 -400h400l-41 -225h-398l-69 -399h-230z" />
    <glyph glyph-name="comma" unicode="," horiz-adv-x="430" 
d="M-41 -207q96 89 137 209q-46 9 -73 45t-27 82q0 68 47.5 117t114.5 49q63 0 104 -39t41 -104q0 -102 -71 -225.5t-183 -219.5z" />
    <glyph glyph-name="hyphen" unicode="-" horiz-adv-x="770" 
d="M100 502l41 225h566l-41 -225h-566z" />
    <glyph glyph-name="period" unicode="." horiz-adv-x="428" 
d="M137 -14q-63 0 -103 40t-40 101q0 69 50 118.5t116 49.5q62 0 102.5 -40.5t40.5 -100.5q0 -67 -50.5 -117.5t-115.5 -50.5z" />
    <glyph glyph-name="slash" unicode="/" horiz-adv-x="933" 
d="M-31 0l809 1434h260l-809 -1434h-260z" />
    <glyph glyph-name="zero" unicode="0" horiz-adv-x="1239" 
d="M549 -27q-148 0 -250.5 70.5t-149.5 189.5t-47 279q0 77 10.5 161.5t34.5 178.5t59 180.5t89.5 165.5t121.5 138t158 93.5t195 34.5q216 0 328 -147t112 -389q0 -75 -10 -158.5t-34 -177.5t-59 -181t-89 -167.5t-120 -140t-156 -95t-193 -35.5zM569 205q84 0 153.5 54
t112.5 135t72.5 181t41.5 187t12 158q0 146 -52.5 229.5t-160.5 83.5q-85 0 -156 -54.5t-114.5 -136t-74 -182t-43 -188t-12.5 -158.5q0 -309 221 -309z" />
    <glyph glyph-name="one" unicode="1" horiz-adv-x="739" 
d="M236 0l202 1155q-59 -36 -146.5 -63t-154.5 -33l51 254q71 10 153 43.5t148 77.5h250l-254 -1434h-249z" />
    <glyph glyph-name="two" unicode="2" horiz-adv-x="1148" 
d="M20 0l39 231l562 422q163 124 224.5 209.5t61.5 179.5q0 81 -56 135t-151 54q-117 0 -202 -75.5t-107 -201.5l-219 64q45 200 201 322t358 122q186 0 306 -107.5t120 -275.5q0 -163 -89 -296t-292 -287l-350 -265h590l-41 -231h-955z" />
    <glyph glyph-name="three" unicode="3" horiz-adv-x="1183" 
d="M516 -29q-207 0 -332 111t-125 274q0 27 2 39l236 68v-27q-2 -104 59.5 -168.5t171.5 -64.5q139 0 229.5 92t90.5 217q0 92 -62 149.5t-168 57.5q-38 0 -98 -17l-112 152l413 348h-571l41 232h880l-41 -232l-350 -297q136 -11 229 -106.5t93 -253.5q0 -53 -13 -112
t-40 -125t-74 -125t-109 -107t-152.5 -76.5t-197.5 -28.5z" />
    <glyph glyph-name="four" unicode="4" horiz-adv-x="1177" 
d="M616 0l66 362h-655l32 187l783 885h278l-151 -859h166l-37 -213h-166l-66 -362h-250zM348 575h371l90 512z" />
    <glyph glyph-name="five" unicode="5" horiz-adv-x="1183" 
d="M502 -29q-196 0 -321.5 105t-125.5 254q0 31 4 45l240 69q-2 -12 -2 -34q1 -95 65.5 -151t167.5 -56q129 0 223.5 90.5t94.5 220.5q0 95 -61 152t-164 57q-73 0 -138.5 -28t-107.5 -70l-201 80l203 729h788l-43 -234h-573l-88 -313q32 20 90.5 35.5t122.5 15.5
q193 0 307.5 -110.5t114.5 -292.5q0 -156 -79 -285.5t-216 -204t-301 -74.5z" />
    <glyph glyph-name="six" unicode="6" horiz-adv-x="1206" 
d="M547 -29q-222 0 -337.5 126t-115.5 356q0 81 10 169t33.5 187.5t58.5 191t90.5 176.5t124 147.5t163 100t204.5 37.5q191 0 296 -98.5t118 -261.5l-231 -66q-11 95 -59 145t-146 50q-74 0 -132.5 -28.5t-99.5 -84t-69 -126t-49 -165.5q38 42 116 79.5t180 37.5
q186 0 303 -107.5t117 -285.5q0 -108 -39.5 -211t-110.5 -185.5t-182 -133t-243 -50.5zM559 201q135 0 223 94t88 219q0 94 -60 149.5t-161 55.5q-132 0 -220.5 -91.5t-88.5 -215.5q0 -92 59.5 -151.5t159.5 -59.5z" />
    <glyph glyph-name="seven" unicode="7" horiz-adv-x="1048" 
d="M190 0q97 280 286 631t355 571h-657l43 232h940l-41 -232q-179 -220 -377 -571t-295 -631h-254z" />
    <glyph glyph-name="eight" unicode="8" horiz-adv-x="1175" 
d="M956 762q127 -105 127 -270q0 -62 -19 -129.5t-64 -138t-109 -126.5t-164 -91.5t-219 -35.5q-199 0 -323 106.5t-124 280.5q0 72 23.5 146.5t81.5 151.5t141 126q-82 88 -82 211q0 53 17 113t57 124.5t97.5 115t147.5 83.5t197 33q173 0 286.5 -98.5t113.5 -251.5
q0 -94 -47.5 -189t-137.5 -161zM721 1249q-111 0 -179.5 -71t-68.5 -162q0 -71 48 -111.5t126 -40.5q111 0 180.5 70.5t69.5 159.5q0 71 -49 113t-127 42zM530 197q126 0 215 81.5t89 196.5q0 86 -61 137.5t-155 51.5q-133 0 -220 -86.5t-87 -194.5q0 -86 61.5 -136
t157.5 -50z" />
    <glyph glyph-name="nine" unicode="9" horiz-adv-x="1206" 
d="M733 1462q222 0 337.5 -125.5t115.5 -355.5q0 -81 -10 -169t-33.5 -187.5t-58.5 -191.5t-90.5 -177t-124 -147.5t-163 -100t-204.5 -37.5q-191 0 -296 99t-118 262l231 65q11 -95 59 -144.5t146 -49.5q74 0 132.5 28.5t99.5 84t69 125.5t49 165q-38 -42 -116 -79.5
t-180 -37.5q-186 0 -303 108t-117 286q0 86 24.5 169.5t73.5 157.5t116.5 130t161 89t199.5 33zM721 1233q-135 0 -223 -94t-88 -219q0 -94 60 -149.5t161 -55.5q132 0 220.5 91.5t88.5 215.5q0 92 -59.5 151.5t-159.5 59.5z" />
    <glyph glyph-name="colon" unicode=":" horiz-adv-x="430" 
d="M246 598q-61 0 -102.5 40.5t-41.5 100.5q0 67 50 117.5t116 50.5q61 0 102.5 -41.5t41.5 -101.5q0 -67 -50 -116.5t-116 -49.5zM137 -14q-63 0 -103 40.5t-40 102.5q0 67 50.5 116.5t115.5 49.5q63 0 103 -40.5t40 -102.5q0 -66 -50 -116t-116 -50z" />
    <glyph glyph-name="semicolon" unicode=";" horiz-adv-x="442" 
d="M258 598q-61 0 -102 40.5t-41 100.5q0 67 50 117.5t116 50.5q62 0 102.5 -41t40.5 -102q0 -67 -50 -116.5t-116 -49.5zM-41 -207q96 89 137 209q-46 9 -73 45t-27 82q0 68 47.5 117t114.5 49q63 0 104 -39t41 -104q0 -102 -71 -225.5t-183 -219.5z" />
    <glyph glyph-name="equal" unicode="=" 
d="M164 856l39 225h1024l-39 -225h-1024zM76 354l39 226h1024l-39 -226h-1024z" />
    <glyph glyph-name="question" unicode="?" horiz-adv-x="1081" 
d="M1114 1061q0 -44 -11.5 -95.5t-41.5 -116t-76 -120.5t-122.5 -105t-172.5 -73l-24 -143h-250l57 329h51q89 0 157.5 31t106 79t56 97.5t18.5 95.5q0 85 -52 139t-144 54q-121 0 -199.5 -70.5t-99.5 -189.5l-215 65q45 193 189.5 309.5t346.5 116.5q187 0 306.5 -113
t119.5 -290zM512 293q61 0 102 -40.5t41 -100.5q0 -67 -50.5 -116.5t-115.5 -49.5q-63 0 -104 40.5t-41 102.5q0 66 51 115t117 49z" />
    <glyph glyph-name="at" unicode="@" horiz-adv-x="1699" 
d="M967 1257q289 0 464 -171.5t175 -446.5q0 -77 -13 -147t-42 -134.5t-72.5 -111.5t-109.5 -75t-148 -28q-80 0 -136.5 29t-80.5 80q-117 -109 -250 -109q-118 0 -189 77t-71 198q0 74 30 152t82 143t131 107t168 42q71 0 117.5 -27.5t69.5 -64.5l28 74h148l-121 -473v-9
q0 -51 70 -51q57 0 100.5 31t67.5 81t35.5 104.5t11.5 109.5q0 202 -126.5 328.5t-336.5 126.5q-143 0 -264 -49.5t-199.5 -126t-134 -170.5t-79.5 -180.5t-24 -159.5q0 -202 132.5 -341t340.5 -139q178 0 328 97l84 -140q-80 -53 -193.5 -86t-224.5 -33q-185 0 -332.5 83
t-229 227t-81.5 321q0 85 26 180.5t74 192t124.5 184.5t170 156t218.5 108.5t262 40.5zM799 307q98 0 164.5 85.5t66.5 174.5q0 60 -35 95.5t-94 35.5q-94 0 -163.5 -81t-69.5 -177q0 -61 35 -97t96 -36z" />
    <glyph glyph-name="A" unicode="A" horiz-adv-x="1409" 
d="M1032 0l-61 322h-584l-176 -322h-264l790 1434h262l283 -1434h-250zM510 547h416l-109 563z" />
    <glyph glyph-name="B" unicode="B" horiz-adv-x="1249" 
d="M59 0l254 1434h527q177 0 279 -86t102 -226q0 -122 -61.5 -222t-178.5 -159q72 -25 124 -91t52 -167q0 -52 -13.5 -109.5t-52 -126t-97.5 -122t-160.5 -89.5t-229.5 -36h-545zM457 834h268q67 0 117 23t77 60.5t39.5 76.5t12.5 79q0 141 -178 141h-269zM348 219h293
q127 0 196.5 75.5t69.5 176.5q0 156 -202 156h-285z" />
    <glyph glyph-name="C" unicode="C" horiz-adv-x="1536" 
d="M741 -27q-283 0 -448.5 160.5t-165.5 435.5q0 129 37.5 258t111 243t173 202.5t234 140t284.5 51.5q241 0 391.5 -117t185.5 -331l-250 -76q-21 136 -104.5 214.5t-228.5 78.5q-107 0 -202.5 -39.5t-164 -105t-118.5 -149t-74.5 -173.5t-24.5 -176q0 -176 103 -281.5
t274 -105.5q160 0 274 75t176 191l223 -80q-102 -201 -278 -308.5t-408 -107.5z" />
    <glyph glyph-name="D" unicode="D" horiz-adv-x="1445" 
d="M59 0l254 1434h490q144 0 257.5 -43t185 -119t108.5 -177t37 -221q0 -124 -32 -247t-100 -236t-163 -200t-231.5 -139t-295.5 -52h-510zM350 225h244q102 0 187 30.5t143 82.5t101.5 116.5t68 138t36 141.5t11.5 132q0 342 -389 342h-230z" />
    <glyph glyph-name="E" unicode="E" horiz-adv-x="1142" 
d="M59 0l254 1434h901l-40 -226h-652l-65 -377h563l-39 -219h-565l-66 -387h651l-40 -225h-902z" />
    <glyph glyph-name="F" unicode="F" horiz-adv-x="1140" 
d="M59 0l254 1434h899l-41 -226h-649l-71 -411h567l-39 -219h-569l-101 -578h-250z" />
    <glyph glyph-name="G" unicode="G" horiz-adv-x="1609" 
d="M733 -29q-183 0 -322 80t-211.5 217.5t-72.5 309.5q0 75 16 157t50 168t83 166.5t120.5 152t156 125t195 84.5t233.5 31q121 0 219.5 -31.5t164.5 -88t107 -127t58 -154.5l-246 -76q-53 246 -323 246q-105 0 -199 -38.5t-162.5 -102t-119 -145t-76 -169.5t-25.5 -172
q0 -179 105.5 -290t289.5 -111q103 0 189.5 34.5t143 91t92.5 119.5t52 130h-311l39 213h557l-139 -791h-170l-6 158q-24 -27 -63.5 -55.5t-99.5 -60t-145.5 -51.5t-179.5 -20z" />
    <glyph glyph-name="H" unicode="H" horiz-adv-x="1431" 
d="M59 0l254 1434h250l-104 -588h633l104 588h250l-254 -1434h-250l109 614h-633l-109 -614h-250z" />
    <glyph glyph-name="I" unicode="I" horiz-adv-x="548" 
d="M59 0l254 1434h250l-254 -1434h-250z" />
    <glyph glyph-name="J" unicode="J" horiz-adv-x="1079" 
d="M399 -29q-167 0 -273 93.5t-106 244.5q0 15 9 76l14 82l236 -47l-5 -29q-4 -14 -4 -43q0 -67 41 -106t123 -39q97 0 158 61.5t80 167.5l178 1002h250l-178 -998q-41 -236 -178 -350.5t-345 -114.5z" />
    <glyph glyph-name="K" unicode="K" horiz-adv-x="1333" 
d="M1442 1434l-662 -613l426 -823h-297l-325 643l-195 -180l-82 -461h-248l254 1434h248l-106 -596l655 596h332z" />
    <glyph glyph-name="L" unicode="L" horiz-adv-x="1079" 
d="M59 0l254 1434h250l-213 -1205h627l-41 -229h-877z" />
    <glyph glyph-name="M" unicode="M" horiz-adv-x="1806" 
d="M1817 1434l-254 -1434h-250l174 979l-584 -979h-176l-242 971l-174 -971h-248l254 1434h281l274 -1090l648 1090h297z" />
    <glyph glyph-name="N" unicode="N" horiz-adv-x="1497" 
d="M63 0l254 1434h258l498 -1039l184 1039h250l-254 -1434h-256l-501 1036l-183 -1036h-250z" />
    <glyph glyph-name="O" unicode="O" horiz-adv-x="1671" 
d="M760 -27q-194 0 -339.5 82.5t-219.5 220.5t-74 310q0 69 14.5 147t47.5 163.5t80.5 166.5t118.5 154t156 127.5t199 87t242 32.5q145 0 265.5 -48t199.5 -131t122.5 -195.5t43.5 -241.5q0 -69 -15 -147t-48 -163.5t-81 -165.5t-118.5 -153t-155.5 -127.5t-198 -86.5
t-240 -32zM778 205q110 0 207 38t165.5 101t118 144.5t73.5 170t24 175.5q0 179 -106 289t-293 110q-136 0 -250.5 -58t-186.5 -150t-111.5 -202t-39.5 -219q0 -181 105.5 -290t293.5 -109z" />
    <glyph glyph-name="P" unicode="P" horiz-adv-x="1230" 
d="M59 0l254 1434h504q88 0 163 -22t133.5 -65t92 -113.5t33.5 -162.5q0 -109 -37.5 -207.5t-107 -175.5t-177.5 -122.5t-239 -45.5h-277l-92 -520h-250zM440 745h244q66 0 119 18.5t86.5 47.5t56.5 67.5t32 77t9 76.5q0 82 -56.5 129t-166.5 47h-242z" />
    <glyph glyph-name="Q" unicode="Q" horiz-adv-x="1738" 
d="M1616 848q0 -133 -55.5 -291.5t-161.5 -288.5l164 -164l-166 -161l-168 170q-205 -140 -469 -140q-194 0 -339.5 82.5t-219.5 220.5t-74 310q0 69 14.5 147t47.5 163.5t80.5 166.5t118.5 154t156 127.5t199 87t242 32.5q145 0 265.5 -48t199.5 -131t122.5 -195.5
t43.5 -241.5zM778 205q151 0 283 74l-143 145l165 160l150 -150q65 88 99 192.5t34 207.5q0 179 -106 289t-293 110q-136 0 -250.5 -58t-186.5 -150t-111.5 -202t-39.5 -219q0 -181 105.5 -290t293.5 -109z" />
    <glyph glyph-name="R" unicode="R" horiz-adv-x="1282" 
d="M59 0l254 1434h516q193 0 299.5 -98t106.5 -257q0 -163 -98.5 -301t-259.5 -184l233 -594h-274l-215 561h-213l-99 -561h-250zM446 780h259q72 0 128 24.5t87 64.5t46 84t15 89q0 79 -54 122.5t-151 43.5h-254z" />
    <glyph glyph-name="S" unicode="S" horiz-adv-x="1232" 
d="M539 -27q-214 0 -340.5 105t-143.5 303l244 68q14 -128 76.5 -189t189.5 -61q138 0 231 67t93 174q0 64 -59 105t-191 67q-217 40 -326.5 125.5t-109.5 231.5q0 143 78 257t208.5 176t286.5 62q199 0 317 -103t130 -286l-244 -65q-16 229 -225 229q-123 0 -205.5 -57
t-89.5 -158q-6 -70 56.5 -108t207.5 -72q213 -44 315.5 -130t102.5 -231q0 -149 -82 -266.5t-219 -180.5t-301 -63z" />
    <glyph glyph-name="T" unicode="T" horiz-adv-x="1183" 
d="M375 0l213 1202h-414l43 232h1075l-41 -232h-413l-213 -1202h-250z" />
    <glyph glyph-name="U" unicode="U" horiz-adv-x="1425" 
d="M627 -29q-102 0 -188 26.5t-152.5 80t-104 141.5t-37.5 203q0 70 15 147l153 865h250l-153 -863q-13 -73 -13 -118q0 -250 258 -250q317 0 381 370l154 861h250l-158 -885q-22 -124 -68 -222.5t-107 -164.5t-139 -109.5t-162 -62.5t-179 -19z" />
    <glyph glyph-name="V" unicode="V" horiz-adv-x="1404" 
d="M1257 1434h275l-784 -1434h-271l-276 1434h260l207 -1102z" />
    <glyph glyph-name="W" unicode="W" horiz-adv-x="1945" 
d="M1808 1434h265l-658 -1434h-248l-98 1083l-479 -1083h-240l-149 1434h254l88 -1047l458 1047h256l93 -1043z" />
    <glyph glyph-name="X" unicode="X" horiz-adv-x="1376" 
d="M1499 1434l-602 -713l350 -721h-280l-265 526l-448 -526h-307l622 735l-340 699h283l250 -510l430 510h307z" />
    <glyph glyph-name="Y" unicode="Y" horiz-adv-x="1318" 
d="M444 0l99 559l-342 875h266l238 -625l460 625h281l-653 -875l-99 -559h-250z" />
    <glyph glyph-name="Z" unicode="Z" horiz-adv-x="1241" 
d="M-10 0l39 219l934 989h-711l41 226h1028l-39 -220l-934 -989h756l-41 -225h-1073z" />
    <glyph glyph-name="backslash" unicode="\" horiz-adv-x="886" 
d="M514 0l-301 1434h233l299 -1434h-231z" />
    <glyph glyph-name="underscore" unicode="_" horiz-adv-x="1024" 
d="M-145 -315l36 213h1024l-36 -213h-1024z" />
    <glyph glyph-name="a" unicode="a" horiz-adv-x="1253" 
d="M492 -29q-185 0 -301.5 127.5t-116.5 319.5q0 80 24 166.5t73.5 169.5t118 149.5t166.5 107t210 40.5q107 0 183.5 -44t111.5 -106l20 121h246l-178 -1022h-203l-10 125q-143 -154 -344 -154zM557 193q102 0 183 61.5t121 150t40 181.5q0 111 -63 177t-170 66
q-72 0 -137.5 -33t-110.5 -87t-71.5 -124t-26.5 -143q0 -111 64.5 -180t170.5 -69z" />
    <glyph glyph-name="b" unicode="b" horiz-adv-x="1261" 
d="M598 -29q-114 0 -192 47.5t-113 110.5l-57 -129h-203l254 1434h245l-94 -525q134 142 332 142q188 0 304 -124.5t116 -314.5q0 -87 -25.5 -177.5t-76.5 -173.5t-120.5 -147.5t-166 -103.5t-203.5 -39zM594 193q77 0 143.5 36t110 92.5t68 125t24.5 135.5
q0 112 -63.5 179.5t-169.5 67.5q-103 0 -184 -60t-121 -147.5t-40 -181.5q0 -111 63.5 -179t168.5 -68z" />
    <glyph glyph-name="c" unicode="c" horiz-adv-x="1146" 
d="M524 -29q-203 0 -327.5 128.5t-124.5 324.5q0 113 43 223.5t119.5 201t196 146.5t259.5 56q169 0 281 -92t131 -234l-234 -70q-12 79 -65.5 123.5t-138.5 44.5q-79 0 -146 -34.5t-110 -90.5t-67 -123t-24 -135q0 -109 62.5 -175t169.5 -66q84 0 152 42.5t110 118.5
l211 -77q-76 -144 -205 -228t-293 -84z" />
    <glyph glyph-name="d" unicode="d" horiz-adv-x="1257" 
d="M489 -29q-186 0 -302.5 127.5t-116.5 319.5q0 80 24 166.5t74 169.5t118.5 149.5t166.5 107t209 40.5q107 0 183 -44t111 -106l97 533h245l-254 -1434h-202l-11 125q-143 -154 -342 -154zM553 193q102 0 183 61.5t121 150t40 181.5q0 110 -62.5 176.5t-168.5 66.5
q-97 0 -178.5 -56t-126 -144.5t-44.5 -186.5q0 -111 65.5 -180t170.5 -69z" />
    <glyph glyph-name="e" unicode="e" horiz-adv-x="1159" 
d="M1067 430h-766q0 -5 -1 -14.5t-1 -14.5q0 -98 64.5 -162.5t175.5 -64.5q98 0 171 47.5t105 108.5l197 -64q-162 -295 -496 -295q-194 0 -319 122.5t-125 316.5q0 169 80.5 316.5t221 236t304.5 88.5q191 0 303.5 -113t112.5 -301q0 -41 -11 -113zM881 618v11
q1 37 -10.5 73.5t-36 70t-70.5 54.5t-107 21q-117 0 -201 -65t-120 -165h545z" />
    <glyph glyph-name="f" unicode="f" horiz-adv-x="774" 
d="M125 0l143 807h-174l37 215h176l25 141q24 141 120 221t220 80q167 0 239 -90l-135 -166q-28 33 -86 33q-100 0 -119 -111l-18 -108h260l-39 -215h-260l-143 -807h-246z" />
    <glyph glyph-name="g" unicode="g" horiz-adv-x="1243" 
d="M444 -438q-197 0 -304 94t-120 240l232 47q5 -81 57 -126.5t154 -45.5q132 0 218.5 69t109.5 197l22 121q-49 -64 -134.5 -107t-193.5 -43q-186 0 -298.5 119.5t-112.5 306.5q0 109 39.5 217.5t110.5 198t182 145.5t241 56q113 0 190 -47.5t103 -104.5l68 123h202
l-174 -985q-39 -219 -194 -347t-398 -128zM549 229q101 0 179 56.5t116.5 140.5t38.5 176q0 105 -61.5 166t-164.5 61q-101 0 -180.5 -57t-118.5 -140t-39 -173q0 -107 62.5 -168.5t167.5 -61.5z" />
    <glyph glyph-name="h" unicode="h" horiz-adv-x="1157" 
d="M33 0l254 1434h243l-94 -523q137 140 320 140q148 0 228.5 -75.5t80.5 -227.5q0 -62 -12 -132l-109 -616h-246l105 584q6 47 6 82q0 85 -41.5 120t-118.5 35q-99 0 -175.5 -69t-100.5 -195l-97 -557h-243z" />
    <glyph glyph-name="i" unicode="i" horiz-adv-x="507" 
d="M385 1163q-59 0 -97 38.5t-38 96.5q0 63 47.5 109.5t110.5 46.5q58 0 95.5 -39.5t37.5 -97.5q0 -60 -46.5 -107t-109.5 -47zM41 0l180 1022h246l-180 -1022h-246z" />
    <glyph glyph-name="j" unicode="j" horiz-adv-x="522" 
d="M399 1163q-59 0 -97 38.5t-38 96.5q0 63 47.5 109.5t110.5 46.5q58 0 95.5 -39.5t37.5 -97.5q0 -60 -46.5 -107t-109.5 -47zM-61 -440q-161 0 -230 88l135 174q21 -33 80 -33q98 0 117 113l199 1120h245l-204 -1157q-25 -142 -122 -223.5t-220 -81.5z" />
    <glyph glyph-name="k" unicode="k" horiz-adv-x="1087" 
d="M1102 1024l-455 -406l320 -618h-275l-235 446l-119 -104l-59 -342h-246l254 1434h245l-135 -768l402 358h303z" />
    <glyph glyph-name="l" unicode="l" horiz-adv-x="491" 
d="M33 0l254 1434h245l-253 -1434h-246z" />
    <glyph glyph-name="m" unicode="m" horiz-adv-x="1730" 
d="M33 0l180 1022h203l10 -115q130 144 330 144q108 0 171.5 -44t86.5 -110q143 154 346 154q130 0 207.5 -69t77.5 -206q0 -46 -9 -102l-118 -674h-246l106 608q8 54 8 72q0 143 -141 143q-89 0 -156.5 -64t-87.5 -181l-104 -578h-246l109 608q6 37 6 70q0 145 -141 145
q-89 0 -156 -63.5t-88 -181.5l-102 -578h-246z" />
    <glyph glyph-name="n" unicode="n" horiz-adv-x="1161" 
d="M33 0l180 1022h203l10 -115q140 144 332 144q150 0 230.5 -76t80.5 -230q0 -51 -14 -137l-107 -608h-246l103 586q8 41 8 80q0 157 -162 157q-99 0 -175.5 -69t-98.5 -195l-98 -559h-246z" />
    <glyph glyph-name="o" unicode="o" horiz-adv-x="1218" 
d="M528 -29q-203 0 -329.5 126.5t-126.5 322.5q0 89 27.5 179t81.5 171t127 144t172 100t208 37q202 0 330.5 -128.5t128.5 -322.5q0 -90 -27.5 -180t-81.5 -170.5t-127 -143t-172.5 -99t-210.5 -36.5zM551 199q146 0 248 114.5t102 264.5q0 110 -64.5 177.5t-170.5 67.5
q-78 0 -145.5 -34.5t-111 -90t-68 -122.5t-24.5 -134q0 -109 63.5 -176t170.5 -67z" />
    <glyph glyph-name="p" unicode="p" horiz-adv-x="1259" 
d="M770 1051q185 0 301.5 -127.5t116.5 -319.5q0 -80 -24 -166.5t-73.5 -169.5t-118 -149.5t-166 -107t-208.5 -40.5q-108 0 -184 44.5t-113 107.5l-96 -535h-246l254 1434h203l10 -125q139 154 344 154zM707 829q-78 0 -145 -35.5t-110.5 -92.5t-67.5 -126t-24 -137
q0 -111 63.5 -178t170.5 -67q72 0 137.5 33t110.5 87t71.5 124t26.5 143q0 113 -63.5 181t-169.5 68z" />
    <glyph glyph-name="q" unicode="q" horiz-adv-x="1259" 
d="M662 1051q116 0 194 -47t111 -111l59 129h203l-254 -1434h-246l94 525q-142 -142 -334 -142q-186 0 -302.5 125.5t-116.5 315.5q0 87 25.5 176.5t76.5 172.5t120.5 147.5t166 103.5t203.5 39zM668 829q-102 0 -184.5 -61t-123.5 -149t-41 -179q0 -111 64.5 -179
t171.5 -68q78 0 144.5 35.5t109 92t66.5 125.5t24 138q0 111 -63 178t-168 67z" />
    <glyph glyph-name="r" unicode="r" horiz-adv-x="806" 
d="M33 0l180 1022h203l14 -117q47 63 117.5 104.5t159.5 41.5q110 0 172 -50l-121 -215q-39 35 -119 35q-93 0 -166 -70.5t-96 -193.5l-98 -557h-246z" />
    <glyph glyph-name="s" unicode="s" horiz-adv-x="997" 
d="M432 -29q-169 0 -275.5 83t-119.5 225l225 65q22 -168 191 -168q85 0 137.5 37t52.5 100q0 35 -36.5 60t-125.5 43q-76 14 -134.5 34.5t-107 51.5t-74.5 76.5t-26 103.5q0 109 60.5 194.5t161 130t221.5 44.5q154 0 249.5 -79.5t104.5 -215.5l-229 -58q-3 64 -38.5 106
t-113.5 42q-80 0 -130 -33.5t-50 -89.5q0 -39 42 -60t136 -40q161 -30 246.5 -94.5t85.5 -178.5q0 -113 -61.5 -200.5t-164 -133t-227.5 -45.5z" />
    <glyph glyph-name="t" unicode="t" horiz-adv-x="794" 
d="M420 -29q-117 0 -182.5 67t-65.5 179q0 32 6 66l92 524h-176l37 215h178l45 266h246l-45 -266h258l-37 -215h-260l-88 -500q-4 -24 -4 -33q0 -73 78 -73q61 0 102 37l78 -181q-36 -34 -102.5 -60t-159.5 -26z" />
    <glyph glyph-name="u" unicode="u" horiz-adv-x="1161" 
d="M1128 1022l-180 -1022h-203l-10 117q-139 -146 -332 -146q-150 0 -230.5 75.5t-80.5 229.5q0 69 14 138l107 608h246l-103 -586q-8 -39 -8 -78q0 -85 42.5 -121t119.5 -36q99 0 175.5 68.5t98.5 193.5l99 559h245z" />
    <glyph glyph-name="v" unicode="v" horiz-adv-x="1089" 
d="M899 1022h252l-567 -1022h-258l-207 1022h252l133 -743z" />
    <glyph glyph-name="w" unicode="w" horiz-adv-x="1591" 
d="M1407 1022h246l-498 -1022h-248l-73 715l-330 -715h-248l-137 1022h246l69 -733l338 733h225l78 -737z" />
    <glyph glyph-name="x" unicode="x" horiz-adv-x="1075" 
d="M1133 1022l-459 -510l280 -512h-268l-180 334l-297 -334h-270l458 514l-276 508h270l176 -332l293 332h273z" />
    <glyph glyph-name="y" unicode="y" horiz-adv-x="1175" 
d="M897 1022h246l-174 -985q-37 -219 -182 -347t-371 -128q-186 0 -287 90t-115 237l232 45q6 -161 186 -161q115 0 191.5 68.5t99.5 195.5l18 104q-131 -131 -315 -131q-150 0 -230.5 75.5t-80.5 229.5q0 77 12 138l100 569h246l-96 -547q-6 -43 -6 -80q0 -155 159 -155
q101 0 176.5 68.5t98.5 193.5z" />
    <glyph glyph-name="z" unicode="z" horiz-adv-x="972" 
d="M-10 0l30 182l619 637h-492l37 203h793l-33 -180l-618 -637h514l-37 -205h-813z" />
    <glyph glyph-name="uni00A0" unicode="&#xa0;" horiz-adv-x="573" 
 />
    <glyph glyph-name="cent" unicode="&#xa2;" horiz-adv-x="1146" 
d="M584 401q84 0 152 43t110 119l211 -78q-64 -121 -165 -200t-230 -103l-29 -159h-248l31 172q-144 41 -227 157.5t-83 274.5q0 135 57 262.5t172 225t265 126.5l31 174h248l-31 -176q121 -30 197.5 -113.5t91.5 -197.5l-234 -70q-12 79 -65.5 123.5t-139.5 44.5
q-79 0 -146 -34.5t-109.5 -90.5t-66.5 -123t-24 -135q0 -110 62.5 -176t169.5 -66z" />
    <glyph glyph-name="sterling" unicode="&#xa3;" horiz-adv-x="1095" 
d="M1165 1110l-235 -35q2 65 -39 110.5t-129 45.5q-92 0 -155.5 -62t-82.5 -168l-32 -184h460l-39 -219h-460l-66 -373h625l-39 -225h-1022l41 225h145l66 373h-148l39 219h148l30 178q41 231 180 349t336 118q180 0 281 -96.5t96 -255.5z" />
    <glyph glyph-name="yen" unicode="&#xa5;" horiz-adv-x="1318" 
d="M1446 1434l-506 -678h213l-35 -201h-325l-25 -139h326l-35 -201h-328l-37 -215h-250l37 215h-329l36 201h330l25 139h-332l37 201h217l-264 678h266l238 -625l460 625h281z" />
    <glyph glyph-name="copyright" unicode="&#xa9;" horiz-adv-x="1720" 
d="M897 -27q-152 0 -290 59t-237.5 159t-158.5 238t-59 290t59 290t158.5 237.5t237.5 158.5t290 59t290 -59t237.5 -158.5t158.5 -237.5t59 -290t-59 -290t-158.5 -238t-237.5 -159t-290 -59zM897 129q160 0 296 79t215 215t79 296t-79 296t-215 215t-296 79t-296 -79
t-215 -215t-79 -296t79 -296t215 -215t296 -79zM893 319q-167 0 -275 109.5t-108 290.5q0 175 106.5 287t274.5 112q124 0 215.5 -59.5t130.5 -177.5l-147 -50q-45 146 -197 146q-99 0 -164 -74t-65 -184q0 -115 66.5 -186.5t166.5 -71.5q146 0 190 131l148 -47
q-90 -226 -342 -226z" />
    <glyph glyph-name="paragraph" unicode="&#xb6;" horiz-adv-x="1329" 
d="M1440 1434l-35 -189h-195l-292 -1657h-211l290 1657h-194l-293 -1657h-213l182 1026q-149 1 -245.5 98.5t-96.5 241.5q0 52 18.5 114t59 127t96.5 117.5t138 86.5t176 35h815z" />
    <glyph glyph-name="multiply" unicode="&#xd7;" 
d="M1206 1038l-395 -327l254 -328l-176 -150l-256 332l-408 -336l-133 166l410 338l-252 326l178 145l252 -323l393 323z" />
    <glyph glyph-name="divide" unicode="&#xf7;" 
d="M688 1008q-63 0 -96.5 40.5t-22.5 100.5q12 69 70.5 118.5t124.5 49.5q63 0 96.5 -40.5t22.5 -100.5q-12 -67 -71 -117.5t-124 -50.5zM90 612l37 213h1085l-36 -213h-1086zM537 143q-62 0 -96 40.5t-23 101.5q12 69 70 118.5t124 49.5q62 0 96 -40.5t23 -101.5
q-12 -67 -70.5 -117.5t-123.5 -50.5z" />
    <glyph glyph-name="endash" unicode="&#x2013;" 
d="M100 500l41 229h1024l-41 -229h-1024z" />
    <glyph glyph-name="emdash" unicode="&#x2014;" horiz-adv-x="2252" 
d="M100 502l41 225h2048l-41 -225h-2048z" />
    <glyph glyph-name="quoteleft" unicode="&#x2018;" horiz-adv-x="430" 
d="M514 1479q-96 -89 -137 -209q46 -9 73 -45t27 -82q0 -68 -47.5 -117t-114.5 -49q-63 0 -104 39t-41 104q0 102 71 225.5t183 219.5z" />
    <glyph glyph-name="quoteright" unicode="&#x2019;" horiz-adv-x="430" 
d="M182 1059q96 89 137 209q-46 9 -73 45t-27 82q0 68 47.5 117t114.5 49q63 0 104 -39.5t41 -104.5q0 -102 -71 -225t-183 -219z" />
    <glyph glyph-name="quotedblleft" unicode="&#x201c;" horiz-adv-x="845" 
d="M514 1479q-96 -89 -137 -209q46 -9 73 -45t27 -82q0 -68 -47.5 -117t-114.5 -49q-63 0 -104 39t-41 104q0 102 71 225.5t183 219.5zM930 1479q-96 -89 -137 -209q46 -9 73 -45t27 -82q0 -68 -47.5 -117t-114.5 -49q-63 0 -104 39t-41 104q0 102 71 225.5t183 219.5z" />
    <glyph glyph-name="quotedblright" unicode="&#x201d;" horiz-adv-x="845" 
d="M182 1059q96 89 137 209q-46 9 -73 45t-27 82q0 68 47.5 117t114.5 49q63 0 104 -39.5t41 -104.5q0 -102 -71 -225t-183 -219zM598 1059q96 89 137 209q-46 9 -73 45t-27 82q0 68 47.5 117t114.5 49q63 0 104 -39.5t41 -104.5q0 -102 -71 -225t-183 -219z" />
    <glyph glyph-name="bullet" unicode="&#x2022;" horiz-adv-x="548" 
d="M272 399q-86 0 -140 54.5t-54 136.5q0 96 71.5 167.5t165.5 71.5q84 0 138.5 -55t54.5 -137q0 -98 -71.5 -168t-164.5 -70z" />
    <glyph glyph-name="Euro" unicode="&#x20ac;" horiz-adv-x="1495" 
d="M852 203q199 0 336 137l168 -158q-217 -211 -520 -211q-245 0 -402.5 126.5t-189.5 351.5h-211l88 194h119q6 66 22 143h-172l88 195h154q105 215 294.5 348t440.5 133q312 0 463 -207l-197 -141q-87 117 -274 117q-140 0 -254.5 -68t-194.5 -182h461l-94 -195h-463
q-25 -74 -31 -143h430l-92 -194h-325q33 -119 126.5 -182.5t229.5 -63.5z" />
    <glyph glyph-name="minus" unicode="&#x2212;" 
d="M119 604l41 225h1024l-41 -225h-1024z" />
    </font>
</defs>
</svg>
